<svg version="1.1" viewBox="0 0 800 800" xmlns="http://www.w3.org/2000/svg">
 <defs>
  <style>.cls-1 {
        fill: #418fde;
      }

      .cls-2 {
        fill: #3f6caf;
      }

      .cls-3 {
        fill: #baa895;
      }

      .cls-4 {
        fill: #ddd1b3;
      }

      .cls-5 {
        fill: none;
        stroke: #91826d;
        stroke-linecap: round;
        stroke-linejoin: round;
        stroke-width: 6.199px;
        opacity: 0.32;
      }

      .cls-6 {
        fill: #a82c44;
      }

      .cls-7 {
        fill: #cb333b;
      }

      .cls-8 {
        fill: #ff585d;
      }</style>
 </defs>
 <g transform="translate(63.692 242.38)" data-name="Capa 2">
  <g data-name="Capa 1">
   <path class="cls-1" d="m669.29 180.39 3.327 9.578-232.96 94.026a5.391 5.391 0 0 0-4.217 4.877l-0.392 5.427a5.391 5.391 0 0 1-4.2 4.875l-71.483 15.94a5.388 5.388 0 0 1-6.04-2.943c-0.639-1.342-1.381-2.895-2.116-4.422a5.39 5.39 0 0 0-6.017-2.923l-298.74 1.177 1.962-11.027z"/>
   <polygon class="cls-2" points="48.416 294.97 358.71 291.87 426.16 278.5 669.29 180.39 468.77 10.065 282.34 65.333 2.581 56.45"/>
   <path class="cls-3" d="m353.26 286.25c-105.69-23.408-271.21 1.382-271.21 1.382l-15.85-60.266 566.45-63.879 13.807 20.774c-94.258 10.839-226.43 87.748-226.43 87.748z"/>
   <path class="cls-4" d="m387.32 267.8c-1.42-0.24-2.83-0.47-4.25-0.68-179.44-28.2-315.2 15.843-315.2 15.843l-49.154-222.64-2.46-11.16c140.25-25.927 229.56 17.147 250.83 21.147 1.12 0.21 2.02 0.39 2.69 0.53 0.94 0.2 1.42 0.31 1.42 0.31l3.05 5.16z"/>
   <path class="cls-4" d="m654.3 174.66s-148.42 21.573-265.26 92.1c-0.58 0.34-1.15 0.69-1.72 1.04l-73.87-118.82-44.64-71.81-2.78-4.47s0.64-0.35 1.9-0.96c0.51-0.26 1.13-0.55 1.85-0.9 0.86-0.39 1.86-0.85 3-1.36 21.58-9.58 75.964-68.1 187.97-57.017 2.24 0.21 4.49 0.45 6.76 0.7z"/>
   <path class="cls-3" d="m393.4 274.16-4.59 2.7-5.74-9.74-69.62-118.14-42.52-72.15-3-5.09-0.84-1.43c1.12 0.21 2.02 0.39 2.69 0.53 0.86-0.39 1.86-0.85 3-1.36l3.8 6.46 112.46 190.82z"/>
   <path class="cls-5" d="m96.034 250.35c139.49-43.748 243.82-10.081 243.82-10.081"/>
   <path class="cls-5" d="m91.618 231.5c139.49-43.748 243.82-10.081 243.82-10.081"/>
   <path class="cls-5" d="m87.022 214.49c139.49-43.748 243.82-10.081 243.82-10.081"/>
   <path class="cls-5" d="m82.427 197.48c139.49-43.748 243.82-10.076 243.82-10.076"/>
   <path class="cls-5" d="m126.69 169.28c128.75-26.07 194.96 1.1 194.96 1.1"/>
   <path class="cls-5" d="m60.447 110.04c144.28-25.2 243.08 21.735 243.08 21.735"/>
   <path class="cls-5" d="m58.222 92.592c144.28-25.192 243.08 21.735 243.08 21.735"/>
   <path class="cls-5" d="m104.38 70.121c139.34-9.723 194.7 26.755 194.7 26.755"/>
   <path class="cls-5" d="m405.51 224.41c90.323-58.9 208.21-61.734 208.21-61.734"/>
   <path class="cls-5" d="m391.27 209.63c88.373-58.732 203.85-61.357 203.85-61.357"/>
   <path class="cls-5" d="m377.03 194.85c87.891-58.69 202.77-61.263 202.77-61.263"/>
   <path class="cls-5" d="m311.88 117.19c84.652-55.577 193.28-54.139 193.28-54.139"/>
   <path class="cls-5" d="m292.32 102.74c84.652-55.578 193.28-54.142 193.28-54.142"/>
   <path class="cls-5" d="m272.77 88.289c84.652-55.577 193.28-54.139 193.28-54.139"/>
   <polygon class="cls-6" points="290.96 171.77 291.78 224.91 218.1 149.43 211.63 31.019 247.57 60.681 250.11 133.54"/>
   <polygon class="cls-7" points="383.94 94.298 250.11 133.54 247.57 60.681 386.36 25.436"/>
   <polygon class="cls-7" points="426.37 176.86 429.6 126.36 290.96 171.77 291.78 224.91"/>
   <polygon class="cls-8" points="383.94 94.298 250.11 133.54 290.96 171.77 429.6 126.36"/>
   <polygon class="cls-8" points="344.66 0 386.36 25.436 247.57 60.681 211.63 31.019"/>
   <polygon class="cls-1" points="0 62.968 2.581 56.45 50.42 294.95 46.452 306"/>
  </g>
 </g>
</svg>
