<?xml version="1.0" encoding="UTF-8" standalone="no"?>
<svg
   xmlns:dc="http://purl.org/dc/elements/1.1/"
   xmlns:cc="http://creativecommons.org/ns#"
   xmlns:rdf="http://www.w3.org/1999/02/22-rdf-syntax-ns#"
   xmlns:svg="http://www.w3.org/2000/svg"
   xmlns="http://www.w3.org/2000/svg"
   xmlns:sodipodi="http://sodipodi.sourceforge.net/DTD/sodipodi-0.dtd"
   xmlns:inkscape="http://www.inkscape.org/namespaces/inkscape"
   width="102.05996"
   height="25.945946"
   viewBox="0 0 102.05996 25.945946"
   version="1.1"
   id="svg14"
   sodipodi:docname="docker-docs-logo.svg"
   inkscape:version="0.92.3 (2405546, 2018-03-11)">
  <metadata
     id="metadata18">
    <rdf:RDF>
      <cc:Work
         rdf:about="">
        <dc:format>image/svg+xml</dc:format>
        <dc:type
           rdf:resource="http://purl.org/dc/dcmitype/StillImage" />
        <dc:title>docs</dc:title>
      </cc:Work>
    </rdf:RDF>
  </metadata>
  <sodipodi:namedview
     pagecolor="#ffffff"
     bordercolor="#666666"
     borderopacity="1"
     objecttolerance="10"
     gridtolerance="10"
     guidetolerance="10"
     inkscape:pageopacity="0"
     inkscape:pageshadow="2"
     inkscape:window-width="1853"
     inkscape:window-height="1016"
     id="namedview16"
     showgrid="false"
     fit-margin-top="0"
     fit-margin-left="0"
     fit-margin-right="0"
     fit-margin-bottom="0"
     inkscape:zoom="4.3647799"
     inkscape:cx="78.124002"
     inkscape:cy="26.596921"
     inkscape:window-x="1433"
     inkscape:window-y="27"
     inkscape:window-maximized="1"
     inkscape:current-layer="Blind-whale" />
  <!-- Generator: Sketch 41.1 (35376) - http://www.bohemiancoding.com/sketch -->
  <title
     id="title2">docs</title>
  <desc
     id="desc4">Created with Sketch.</desc>
  <defs
     id="defs6" />
  <g
     id="Blind-whale"
     style="fill:none;fill-rule:evenodd;stroke:none;stroke-width:1"
     transform="translate(-2,-1)">
    <g
       id="docs"
       style="fill:#2496ed;fill-opacity:1">
      <path
         d="m 50.193848,17.404688 c 0,-0.445315 -0.08504,-0.864338 -0.255127,-1.257081 C 49.768635,15.754865 49.536704,15.41006 49.24292,15.113184 48.949136,14.816307 48.604331,14.581283 48.208496,14.408106 47.812661,14.234928 47.389,14.14834 46.9375,14.14834 c -0.457685,0 -0.884438,0.08659 -1.280273,0.259766 -0.395836,0.173177 -0.739094,0.406655 -1.029786,0.700439 -0.290691,0.293784 -0.521076,0.638588 -0.691162,1.034424 -0.170085,0.395835 -0.255127,0.816404 -0.255127,1.261719 0,0.445314 0.08504,0.865883 0.255127,1.261718 0.170086,0.395836 0.400471,0.74064 0.691162,1.034424 0.290692,0.293784 0.63395,0.527262 1.029786,0.70044 0.395835,0.173178 0.822588,0.259765 1.280273,0.259765 0.4515,0 0.875161,-0.08659 1.270996,-0.259765 0.395835,-0.173178 0.74064,-0.408202 1.034424,-0.705079 0.293784,-0.296876 0.525715,-0.641681 0.695801,-1.034423 0.170085,-0.392743 0.255127,-0.811766 0.255127,-1.25708 z M 46.9375,12.209375 c 1.2308,0 2.316239,0.380367 3.256348,1.141113 V 8.7210938 c 0,-0.2783217 0.09123,-0.5087068 0.273681,-0.6911622 C 50.649985,7.8474763 50.88037,7.75625 51.158691,7.75625 c 0.272137,0 0.502522,0.091226 0.691163,0.2736816 0.18864,0.1824554 0.282958,0.4128405 0.282958,0.6911622 v 8.6835942 c 0,1.447272 -0.507156,2.671869 -1.521484,3.673828 C 49.58463,22.092844 48.360033,22.6 46.9375,22.6 c -1.434903,0 -2.6595,-0.507156 -3.673828,-1.521484 -1.014328,-1.014328 -1.521485,-2.238926 -1.521485,-3.673828 0,-1.434904 0.507157,-2.659501 1.521485,-3.673829 1.014328,-1.014328 2.238925,-1.521484 3.673828,-1.521484 z m 16.690312,5.195313 c 0,1.447272 -0.507156,2.671869 -1.521484,3.673828 C 61.07963,22.092844 59.855033,22.6 58.4325,22.6 c -1.434903,0 -2.6595,-0.507156 -3.673828,-1.521484 -1.014328,-1.014328 -1.521485,-2.238926 -1.521485,-3.673828 0,-1.434904 0.507157,-2.659501 1.521485,-3.673829 1.014328,-1.014328 2.238925,-1.521484 3.673828,-1.521484 1.422533,0 2.64713,0.507156 3.673828,1.521484 0.507164,0.507164 0.885985,1.066892 1.136475,1.6792 0.250489,0.612307 0.378825,1.277177 0.385009,1.994629 z M 58.4325,14.14834 c -0.457685,0 -0.884438,0.08659 -1.280273,0.259766 -0.395836,0.173177 -0.739094,0.406655 -1.029786,0.700439 -0.290691,0.293784 -0.521076,0.638588 -0.691162,1.034424 -0.170085,0.395835 -0.255127,0.816404 -0.255127,1.261719 0,0.445314 0.08504,0.865883 0.255127,1.261718 0.170086,0.395836 0.400471,0.74064 0.691162,1.034424 0.290692,0.293784 0.63395,0.527262 1.029786,0.70044 0.395835,0.173178 0.822588,0.259765 1.280273,0.259765 0.4515,0 0.875161,-0.08659 1.270996,-0.259765 0.395835,-0.173178 0.74064,-0.408202 1.034424,-0.705079 0.293784,-0.296876 0.525715,-0.641681 0.695801,-1.034423 0.170085,-0.392743 0.255127,-0.811766 0.255127,-1.25708 0,-0.445315 -0.08504,-0.864338 -0.255127,-1.257081 C 61.263635,15.754865 61.031704,15.41006 60.73792,15.113184 60.444136,14.816307 60.099331,14.581283 59.703496,14.408106 59.307661,14.234928 58.884,14.14834 58.4325,14.14834 Z m 14.203984,5.510742 c 0.278322,0 0.508707,0.09123 0.691162,0.273682 0.182456,0.182455 0.273682,0.41284 0.273682,0.691162 0,0.272137 -0.10205,0.510253 -0.306152,0.714355 C 72.336512,22.179431 71.20778,22.6 69.908945,22.6 c -1.434903,0 -2.6595,-0.507156 -3.673828,-1.521484 -1.014328,-1.014328 -1.521484,-2.238926 -1.521484,-3.673828 0,-1.434904 0.507156,-2.659501 1.521484,-3.673829 1.014328,-1.014328 2.238925,-1.521484 3.673828,-1.521484 1.30502,0 2.433752,0.420569 3.386231,1.261719 0.222657,0.197917 0.333984,0.442218 0.333984,0.73291 0,0.278322 -0.09123,0.510253 -0.273681,0.695801 -0.182456,0.185548 -0.412841,0.27832 -0.691163,0.27832 -0.235027,0 -0.445311,-0.07422 -0.630859,-0.222656 -0.315431,-0.265952 -0.64632,-0.466959 -0.992676,-0.603028 -0.346356,-0.136068 -0.723631,-0.204101 -1.131836,-0.204101 -0.451499,0 -0.875161,0.08504 -1.270996,0.255127 -0.395835,0.170085 -0.742186,0.402017 -1.039062,0.695801 -0.296877,0.293784 -0.530354,0.638588 -0.70044,1.034423 -0.170085,0.395836 -0.255127,0.819497 -0.255127,1.270997 0,0.451499 0.08504,0.87516 0.255127,1.270996 0.170086,0.395835 0.403563,0.740639 0.70044,1.034423 0.296876,0.293784 0.643227,0.525716 1.039062,0.695801 0.395835,0.170086 0.819497,0.255127 1.270996,0.255127 0.408205,0 0.78548,-0.06649 1.131836,-0.199463 0.346356,-0.132976 0.674152,-0.332437 0.983399,-0.598388 0.173178,-0.129884 0.377277,-0.197917 0.612304,-0.204102 z m 2.087774,1.966797 V 8.7303711 c 0,-0.2721368 0.09432,-0.5025218 0.282959,-0.6911621 0.18864,-0.1886403 0.419025,-0.282959 0.691162,-0.282959 0.265952,0 0.493244,0.094319 0.681885,0.282959 0.18864,0.1886403 0.282959,0.4190253 0.282959,0.6911621 v 7.2363279 l 5.547851,-3.608886 c 0.154623,-0.09896 0.327799,-0.148438 0.519531,-0.148438 0.136069,0 0.262858,0.02474 0.380372,0.07422 0.117513,0.04948 0.219563,0.119059 0.306152,0.20874 0.08659,0.08968 0.156168,0.193277 0.20874,0.310791 0.05257,0.117514 0.07886,0.24121 0.07886,0.371094 0,0.346356 -0.123697,0.603026 -0.371094,0.770019 l -3.887207,2.523438 3.989258,4.490234 c 0.179363,0.197918 0.269043,0.423664 0.269043,0.677246 0,0.129884 -0.02629,0.25358 -0.07886,0.371094 -0.05257,0.117514 -0.122151,0.22111 -0.20874,0.310791 -0.08659,0.08968 -0.188639,0.159261 -0.306152,0.20874 -0.117514,0.04948 -0.244303,0.07422 -0.380372,0.07422 -0.259766,0 -0.476236,-0.0835 -0.649414,-0.250488 l -4.286132,-4.814942 -1.131836,0.742188 v 3.349121 c 0,0.265952 -0.09432,0.494791 -0.282959,0.686523 C 76.191623,22.504135 75.964331,22.6 75.698379,22.6 c -0.272137,0 -0.502522,-0.09586 -0.691162,-0.287598 -0.18864,-0.191732 -0.282959,-0.420571 -0.282959,-0.686523 z m 18.350957,-5.186035 c -0.105144,-0.340171 -0.261311,-0.650959 -0.468506,-0.932373 -0.207195,-0.281414 -0.448404,-0.522623 -0.723633,-0.723633 -0.275229,-0.20101 -0.578286,-0.357177 -0.90918,-0.468506 -0.330893,-0.111329 -0.672605,-0.166992 -1.025146,-0.166992 -0.352541,0 -0.695799,0.05566 -1.029785,0.166992 -0.333986,0.111329 -0.640136,0.267496 -0.918457,0.468506 -0.278322,0.20101 -0.51953,0.442219 -0.723633,0.723633 -0.204103,0.281414 -0.355631,0.592202 -0.45459,0.932373 z m -0.417481,3.237793 c 0.278322,0 0.508707,0.09123 0.691162,0.273681 0.182456,0.182456 0.273682,0.412841 0.273682,0.691163 0,0.272136 -0.09277,0.504068 -0.27832,0.6958 C 92.385594,22.179431 91.25377,22.6 89.94875,22.6 c -1.434903,0 -2.6595,-0.507156 -3.673828,-1.521484 -1.014328,-1.014328 -1.521484,-2.238926 -1.521484,-3.673828 0,-1.434904 0.507156,-2.659501 1.521484,-3.673829 1.014328,-1.014328 2.238925,-1.521484 3.673828,-1.521484 1.422533,0 2.64713,0.507156 3.673828,1.521484 0.507164,0.500979 0.887531,1.059161 1.141113,1.674561 0.253582,0.6154 0.380372,1.281816 0.380372,1.999268 0,0.278321 -0.09432,0.508706 -0.28296,0.691162 -0.18864,0.182455 -0.419025,0.273681 -0.691162,0.273681 h -7.347656 c 0.105144,0.340171 0.259765,0.650959 0.463867,0.932373 0.204103,0.281414 0.443765,0.522623 0.718994,0.723633 0.27523,0.20101 0.578287,0.357177 0.90918,0.468506 0.330894,0.111329 0.675698,0.166992 1.034424,0.166992 0.408205,0 0.782388,-0.06185 1.122559,-0.185547 0.340171,-0.123698 0.655597,-0.309243 0.946289,-0.55664 0.185548,-0.154624 0.398924,-0.235026 0.640136,-0.241211 z m 5.492559,-6.503418 v 0.185547 c 0.46387,-0.371096 0.967934,-0.655598 1.512207,-0.853516 0.54427,-0.197918 1.12565,-0.296875 1.74414,-0.296875 0.27214,0 0.56437,0.01856 0.87671,0.05566 0.31234,0.03711 0.59993,0.103597 0.86279,0.199463 0.26286,0.09587 0.48088,0.227294 0.65406,0.394287 0.17317,0.166993 0.25976,0.383462 0.25976,0.649414 0,0.136069 -0.0263,0.262858 -0.0789,0.380371 -0.0526,0.117514 -0.12215,0.22111 -0.20874,0.310791 -0.0866,0.08968 -0.18863,0.159261 -0.30615,0.208741 -0.11751,0.04948 -0.2443,0.07422 -0.38037,0.07422 -0.11751,0 -0.25358,-0.03402 -0.4082,-0.102051 -0.38965,-0.154623 -0.81332,-0.231933 -1.271,-0.231933 -0.4515,0 -0.87516,0.08504 -1.271,0.255127 -0.395831,0.170085 -0.740635,0.402017 -1.034419,0.695801 -0.293784,0.293784 -0.525716,0.638588 -0.695801,1.034423 -0.170086,0.395836 -0.255127,0.819497 -0.255127,1.270997 v 4.230468 c 0,0.265952 -0.09432,0.493245 -0.282959,0.681885 C 97.678694,22.505681 97.451401,22.6 97.185449,22.6 c -0.272136,0 -0.502522,-0.09432 -0.691162,-0.282959 -0.18864,-0.18864 -0.282959,-0.415933 -0.282959,-0.681885 v -8.460937 c 0,-0.265952 0.09432,-0.493245 0.282959,-0.681885 0.18864,-0.18864 0.419026,-0.282959 0.691162,-0.282959 0.265952,0 0.493245,0.09432 0.681885,0.282959 0.18864,0.18864 0.282959,0.415933 0.282959,0.681885 z"
         id="docker"
         style="fill:#2496ed;fill-opacity:1"
         inkscape:connector-curvature="0" />
      <path
         d="M 37.211467,10.900889 C 36.401859,10.339136 34.546507,10.128479 33.095959,10.409355 32.927291,9.0049739 32.151416,7.7761401 30.802069,6.6877446 L 30.026195,6.125992 29.486456,6.9335113 c -0.674673,1.053286 -1.01201,2.5278865 -0.910809,3.9322677 0.03373,0.491534 0.202402,1.369272 0.708407,2.141682 -0.472271,0.280876 -1.450548,0.631971 -2.732428,0.631971 H 2.1621803 l -0.067467,0.280877 c -0.2361357,1.404381 -0.2361357,5.793073 2.5300255,9.163588 2.0914878,2.562996 5.1949858,3.862049 9.2767602,3.862049 8.838222,0 15.382555,-4.248254 18.452319,-11.937242 1.214413,0.03511 3.811905,0 5.127519,-2.633215 0.03373,-0.07022 0.101201,-0.210657 0.337337,-0.7373 l 0.134934,-0.280876 z M 21.660244,1 H 17.94954 v 3.5109534 h 3.710704 z m 0,4.2131441 H 17.94954 v 3.5109535 h 3.710704 z m -4.385378,0 h -3.710704 v 3.5109535 h 3.710704 z m -4.385377,0 H 9.1787844 V 8.7240976 H 12.889489 Z M 8.5041109,9.4262883 H 4.7934068 v 3.5109537 h 3.7107041 z m 4.3853781,0 H 9.1787844 v 3.5109537 h 3.7107046 z m 4.385377,0 h -3.710704 v 3.5109537 h 3.710704 z m 4.385378,0 H 17.94954 v 3.5109537 h 3.710704 z m 4.385377,0 h -3.710704 v 3.5109537 h 3.710704 z"
         id="Shape"
         style="fill:#2496ed;fill-opacity:1"
         inkscape:connector-curvature="0" />
    </g>
  </g>
</svg>
