<?xml version="1.0" encoding="UTF-8" standalone="no"?>
<svg
   xmlns:dc="http://purl.org/dc/elements/1.1/"
   xmlns:cc="http://creativecommons.org/ns#"
   xmlns:rdf="http://www.w3.org/1999/02/22-rdf-syntax-ns#"
   xmlns:svg="http://www.w3.org/2000/svg"
   xmlns="http://www.w3.org/2000/svg"
   xmlns:xlink="http://www.w3.org/1999/xlink"
   version="1.1"
   id="svg2869"
   height="63.5"
   width="127.5">
  <defs
     id="defs2871">
    <radialGradient
       r="34.345188"
       fy="672.79736"
       fx="225.26402"
       cy="672.79736"
       cx="225.26402"
       gradientTransform="matrix(1,0,0,0.6985294,0,202.82863)"
       gradientUnits="userSpaceOnUse"
       id="radialGradient2378"
       xlink:href="#linearGradient3144" />
    <radialGradient
       r="34.345188"
       fy="672.79736"
       fx="225.26402"
       cy="672.79736"
       cx="225.26402"
       gradientTransform="matrix(1,0,0,0.6985294,0,202.82863)"
       gradientUnits="userSpaceOnUse"
       id="radialGradient2368"
       xlink:href="#linearGradient3144" />
    <linearGradient
       id="linearGradient3144">
      <stop
         id="stop3146"
         offset="0"
         style="stop-color:#ffffff;stop-opacity:1;" />
      <stop
         id="stop3148"
         offset="1"
         style="stop-color:#ffffff;stop-opacity:0;" />
    </linearGradient>
    <radialGradient
       r="34.345188"
       fy="672.79736"
       fx="225.26402"
       cy="672.79736"
       cx="225.26402"
       gradientTransform="matrix(1,0,0,0.6985294,0,202.82863)"
       gradientUnits="userSpaceOnUse"
       id="radialGradient2370"
       xlink:href="#linearGradient3144" />
    <radialGradient
       r="34.345188"
       fy="672.79736"
       fx="225.26402"
       cy="672.79736"
       cx="225.26402"
       gradientTransform="matrix(1,0,0,0.6985294,0,202.82863)"
       gradientUnits="userSpaceOnUse"
       id="radialGradient3171"
       xlink:href="#linearGradient3144" />
    <radialGradient
       r="34.345188"
       fy="672.79736"
       fx="225.26402"
       cy="672.79736"
       cx="225.26402"
       gradientTransform="matrix(1,0,0,0.6985294,0,202.82863)"
       gradientUnits="userSpaceOnUse"
       id="radialGradient3173"
       xlink:href="#linearGradient3144" />
    <radialGradient
       r="34.345188"
       fy="672.79736"
       fx="225.26402"
       cy="672.79736"
       cx="225.26402"
       gradientTransform="matrix(1,0,0,0.6985294,0,202.82863)"
       gradientUnits="userSpaceOnUse"
       id="radialGradient3175"
       xlink:href="#linearGradient3144" />
    <radialGradient
       r="34.345188"
       fy="672.79736"
       fx="225.26402"
       cy="672.79736"
       cx="225.26402"
       gradientTransform="matrix(1,0,0,0.6985294,0,202.82863)"
       gradientUnits="userSpaceOnUse"
       id="radialGradient3189"
       xlink:href="#linearGradient3144" />
    <radialGradient
       r="34.345188"
       fy="672.79736"
       fx="225.26402"
       cy="672.79736"
       cx="225.26402"
       gradientTransform="matrix(1,0,0,0.6985294,0,202.82863)"
       gradientUnits="userSpaceOnUse"
       id="radialGradient3191"
       xlink:href="#linearGradient3144" />
    <radialGradient
       r="34.345188"
       fy="672.79736"
       fx="225.26402"
       cy="672.79736"
       cx="225.26402"
       gradientTransform="matrix(1,0,0,0.6985294,0,202.82863)"
       gradientUnits="userSpaceOnUse"
       id="radialGradient3193"
       xlink:href="#linearGradient3144" />
    <radialGradient
       r="34.345188"
       fy="672.79736"
       fx="225.26402"
       cy="672.79736"
       cx="225.26402"
       gradientTransform="matrix(1,0,0,0.6985294,0,202.82863)"
       gradientUnits="userSpaceOnUse"
       id="radialGradient3205"
       xlink:href="#linearGradient3144" />
    <linearGradient
       id="linearGradient3836-0">
      <stop
         id="stop3838-2"
         offset="0"
         style="stop-color:#c4a000;stop-opacity:1;" />
      <stop
         id="stop3840-5"
         offset="1"
         style="stop-color:#fce94f;stop-opacity:1;" />
    </linearGradient>
    <linearGradient
       id="linearGradient3354">
      <stop
         style="stop-color:#2157c7;stop-opacity:1;"
         offset="0"
         id="stop3356" />
      <stop
         style="stop-color:#6daaff;stop-opacity:1;"
         offset="1"
         id="stop3358" />
    </linearGradient>
    <linearGradient
       gradientTransform="matrix(0,-1.4500001,1.4705882,0,-15.05882,91.45)"
       y2="36.079998"
       x2="21.689653"
       y1="29.279999"
       x1="56.172409"
       gradientUnits="userSpaceOnUse"
       id="linearGradient3036"
       xlink:href="#linearGradient3895" />
    <linearGradient
       id="linearGradient3895">
      <stop
         style="stop-color:#729fcf;stop-opacity:1;"
         offset="0"
         id="stop3897" />
      <stop
         style="stop-color:#204a87;stop-opacity:1;"
         offset="1"
         id="stop3899" />
    </linearGradient>
    <linearGradient
       y2="36.079998"
       x2="21.689653"
       y1="29.279999"
       x1="56.172409"
       gradientTransform="matrix(0,-0.58000003,0.58823527,0,13.176471,38.379999)"
       gradientUnits="userSpaceOnUse"
       id="linearGradient3918-3"
       xlink:href="#linearGradient3895" />
    <linearGradient
       y2="36.079998"
       x2="21.689653"
       y1="29.279999"
       x1="56.172409"
       gradientTransform="matrix(0.58000003,0,0,0.58823527,25.620001,13.176471)"
       gradientUnits="userSpaceOnUse"
       id="linearGradient3029-6"
       xlink:href="#linearGradient3895" />
    <linearGradient
       id="linearGradient4739">
      <stop
         style="stop-color:#204a87;stop-opacity:1;"
         offset="0"
         id="stop4735" />
      <stop
         style="stop-color:#729fcf;stop-opacity:1"
         offset="1"
         id="stop4737" />
    </linearGradient>
    <linearGradient
       id="linearGradient3797">
      <stop
         style="stop-color:#3465a4;stop-opacity:1;"
         offset="0"
         id="stop3799-3" />
      <stop
         style="stop-color:#729fcf;stop-opacity:1;"
         offset="1"
         id="stop3801" />
    </linearGradient>
    <linearGradient
       xlink:href="#linearGradient3797"
       id="linearGradient4687-1-6-6"
       x1="18.145235"
       y1="51.499367"
       x2="44.398445"
       y2="51.499367"
       gradientUnits="userSpaceOnUse"
       gradientTransform="matrix(1,0,0,1.0981138,0.14321474,-55.839871)" />
    <linearGradient
       xlink:href="#linearGradient3797"
       id="linearGradient4695-7-8-7-0"
       x1="0.18017258"
       y1="36.248028"
       x2="14.623517"
       y2="36.248028"
       gradientUnits="userSpaceOnUse"
       gradientTransform="matrix(-1,0,0,1,57.200391,-43.587124)" />
    <linearGradient
       xlink:href="#linearGradient3797"
       id="linearGradient4687-1-6-6-8"
       x1="18.145235"
       y1="51.499367"
       x2="44.398445"
       y2="51.499367"
       gradientUnits="userSpaceOnUse"
       gradientTransform="matrix(1,0,0,1.0981138,45.686839,-56.465414)" />
    <linearGradient
       xlink:href="#linearGradient3797"
       id="linearGradient1065"
       x1="26.11158"
       y1="2.9369314"
       x2="44.096264"
       y2="2.9110429"
       gradientUnits="userSpaceOnUse"
       gradientTransform="matrix(1.2002734,0,0,1.2002734,-6.0365755,41.424104)" />
    <linearGradient
       xlink:href="#linearGradient3797"
       id="linearGradient4655"
       x1="108"
       y1="46"
       x2="128"
       y2="46"
       gradientUnits="userSpaceOnUse"
       gradientTransform="translate(-86.020077,-13.687753)" />
    <linearGradient
       xlink:href="#linearGradient4739"
       id="linearGradient4743"
       gradientUnits="userSpaceOnUse"
       x1="18.702328"
       y1="31.725029"
       x2="45.765244"
       y2="31.812008" />
    <linearGradient
       xlink:href="#linearGradient4739"
       id="linearGradient995"
       gradientUnits="userSpaceOnUse"
       x1="39.971127"
       y1="44.082279"
       x2="26.592251"
       y2="23.73741"
       gradientTransform="translate(78.922405,4.6396909)" />
    <linearGradient
       xlink:href="#linearGradient3895"
       id="linearGradient1022"
       gradientUnits="userSpaceOnUse"
       x1="21.974438"
       y1="29.822496"
       x2="52.530876"
       y2="35.507179" />
    <linearGradient
       y2="35.507179"
       x2="52.530876"
       y1="29.822496"
       x1="21.974438"
       gradientUnits="userSpaceOnUse"
       id="linearGradient1197"
       xlink:href="#linearGradient3895" />
  </defs>
  <g
     transform="translate(-64.25,-0.25)"
     id="layer1">
    <rect
       y="0.25"
       x="64.25"
       height="63.5"
       width="63.5"
       id="rect836"
       style="opacity:1;fill:#3a4146;fill-opacity:1;fill-rule:evenodd;stroke:none;stroke-width:0.49999997;stroke-linecap:round;stroke-linejoin:miter;stroke-miterlimit:4;stroke-dasharray:none;stroke-dashoffset:0;stroke-opacity:1" />
    <rect
       style="opacity:1;fill:#c3c9cd;fill-opacity:1;fill-rule:evenodd;stroke:none;stroke-width:0.49999997;stroke-linecap:round;stroke-linejoin:miter;stroke-miterlimit:4;stroke-dasharray:none;stroke-dashoffset:0;stroke-opacity:1"
       id="rect838"
       width="63.5"
       height="63.5"
       x="128.25"
       y="0.25" />
    <g
       id="g4675"
       transform="matrix(1.0161989,0,0,1.0161989,63.509092,-0.29287856)">
      <g
         id="g1045"
         transform="translate(27.100757,23.156998)" />
      <g
         id="g1020"
         transform="matrix(1.0609942,0,0,1.0609942,-1.9456602,-1.9888296)">
        <path
           transform="matrix(1.1051629,0,0,1.1051629,-3.3975789,-3.4322105)"
           style="fill:url(#linearGradient1022);fill-opacity:1;fill-rule:evenodd;stroke:none;stroke-width:1px;stroke-linecap:butt;stroke-linejoin:miter;stroke-opacity:1"
           d="m 46.862923,19.416557 c 1.66448,-7.41576 -2.46805,-8.904332 -8.5834,-8.36557 -4.11598,-2.663978 -8.27216,-3.770605 -12.55492,0.02414 -9.092843,-1.4097023 -9.656833,2.766969 -7.92369,8.256193 -2.73442,1.388934 -5.868243,2.528459 -4.07631,6.743807 -7.680309,2.33437 -5.7802556,8.942561 -4.1199056,15.266333 5.5618756,0.0094 4.4051156,-7.129743 8.5057256,-11.000703 0.59642,13.168027 3.40522,23.70858 13.88958,25.133475 9.57683,-1.495739 14.31812,-9.769102 13.97992,-25.161985 3.71316,4.605098 2.370548,10.614916 9.210148,10.704411 -0.5217,-5.949656 3.023801,-12.794017 -3.914549,-15.177637 1.68354,-4.071161 -1.666449,-5.112266 -4.412599,-6.422464 z"
           id="path4647" />
        <path
           style="fill:none;fill-opacity:1;stroke:#0b1521;stroke-width:2.21032572;stroke-linecap:round;stroke-linejoin:miter;stroke-miterlimit:4;stroke-dasharray:none;stroke-opacity:1"
           d="M 10.406304,25.263156 C 8.2839879,27.271095 6.7135569,29.390094 6.6157637,29.943264 4.0263487,34.00175 5.9212349,39.85168 7.1631788,43.041756 16.571991,37.30436 14.403214,32.366927 16.975062,28.310886"
           id="path827-3-6-6-9" />
        <path
           style="fill:none;fill-opacity:1;stroke:#0b1521;stroke-width:2.21032572;stroke-linecap:round;stroke-linejoin:miter;stroke-miterlimit:4;stroke-dasharray:none;stroke-opacity:1"
           d="M 16.617378,30.099271 C 18.015258,42.763729 18.084072,56.22657 31.967634,57.875855 44.78367,56.442673 46.008839,42.833486 47.417716,30.06776"
           id="path821-9-0-6-4-8" />
        <path
           style="opacity:1;fill:none;fill-opacity:1;fill-rule:nonzero;stroke:#0b1521;stroke-width:2.21032572;stroke-linecap:round;stroke-miterlimit:4;stroke-dasharray:none"
           id="path4669-3-1"
           d="m 10.913786,24.727003 a 7.7969213,6.3020225 0 0 1 5.36154,-6.794954" />
        <path
           style="opacity:1;fill:none;fill-opacity:1;fill-rule:nonzero;stroke:#0b1521;stroke-width:2.21032572;stroke-linecap:round;stroke-miterlimit:4;stroke-dasharray:none"
           id="path4669-1-6-3"
           d="m 15.824326,17.277108 a 7.7969213,6.3020225 0 0 1 1.19308,-7.12608 7.7969213,6.3020225 0 0 1 8.678521,-1.5831735" />
        <path
           style="opacity:1;fill:none;fill-opacity:1;fill-rule:nonzero;stroke:#0b1521;stroke-width:2.21032572;stroke-linecap:round;stroke-miterlimit:4;stroke-dasharray:none"
           id="path4669-1-2-3-1-9"
           d="m -38.746863,8.6463425 a 7.7969213,6.3020225 0 0 1 6.480178,-2.8777831 7.7969213,6.3020225 0 0 1 6.539114,2.7893297"
           transform="scale(-1,1)" />
        <path
           style="opacity:1;fill:none;fill-opacity:1;fill-rule:nonzero;stroke:#0b1521;stroke-width:2.21032572;stroke-linecap:round;stroke-miterlimit:4;stroke-dasharray:none"
           id="path4669-1-5-5-6"
           d="m -48.989754,17.268057 a 7.7969213,6.3020225 0 0 1 1.433475,-7.043401 7.7969213,6.3020225 0 0 1 8.648757,-1.4437247"
           transform="scale(-1,1)" />
        <path
           style="opacity:1;fill:none;fill-opacity:1;fill-rule:nonzero;stroke:#0b1521;stroke-width:2.21032572;stroke-linecap:round;stroke-miterlimit:4;stroke-dasharray:none"
           id="path4669-2-4-9"
           d="m -53.097978,24.794131 a 7.5624275,6.3020225 0 0 1 4.704385,-6.767884"
           transform="scale(-1,1)" />
        <path
           style="opacity:1;fill:none;fill-opacity:1;fill-rule:nonzero;stroke:#729fcf;stroke-width:2.17509174;stroke-linecap:round;stroke-miterlimit:4;stroke-dasharray:none"
           id="path4669-3-1-4"
           d="m 13.066014,24.5468 a 6.9618187,4.3235502 0 0 1 4.117308,-4.602635" />
        <path
           style="opacity:1;fill:none;fill-opacity:1;fill-rule:nonzero;stroke:#729fcf;stroke-width:2.17509174;stroke-linecap:round;stroke-miterlimit:4;stroke-dasharray:none"
           id="path4669-1-6-3-9"
           d="m 18.04188,16.59087 a 5.7523088,4.1353617 0 0 1 0.890425,-5.104059 5.7523088,4.1353617 0 0 1 7.117062,-0.531715" />
        <path
           style="opacity:1;fill:none;fill-opacity:1;fill-rule:nonzero;stroke:#729fcf;stroke-width:1.89913595;stroke-linecap:round;stroke-miterlimit:4;stroke-dasharray:none"
           id="path4669-1-2-3-1-9-0"
           d="m -38.014432,11.137345 a 6.4067531,5.661931 0 0 1 5.484481,-3.2955175 6.4067531,5.661931 0 0 1 5.848826,2.7632395"
           transform="scale(-1,1)" />
        <path
           style="opacity:1;fill:none;fill-opacity:1;fill-rule:nonzero;stroke:#729fcf;stroke-width:2.17509174;stroke-linecap:round;stroke-miterlimit:4;stroke-dasharray:none"
           id="path4669-1-5-5-6-1"
           d="m -46.754332,16.627222 a 5.4478283,4.3276558 0 0 1 1.332429,-5.088394 5.4478283,4.3276558 0 0 1 6.522947,-0.402451"
           transform="scale(-1,1)" />
        <path
           style="fill:none;fill-opacity:1;stroke:#729fcf;stroke-width:2.17509174;stroke-linecap:round;stroke-linejoin:miter;stroke-miterlimit:4;stroke-dasharray:none;stroke-opacity:1"
           d="M 18.781353,29.619019 C 20.056823,40.497603 19.825912,54.271588 31.864782,55.55181 42.5648,54.738587 44.005893,41.642851 45.208457,29.746187"
           id="path821-9-0-6-4-8-28" />
        <path
           style="fill:none;fill-rule:evenodd;stroke:#729fcf;stroke-width:2.17509174;stroke-linecap:round;stroke-linejoin:miter;stroke-miterlimit:4;stroke-dasharray:none;stroke-dashoffset:0;stroke-opacity:1"
           d="m 14.135688,29.55084 c 1.513405,-2.286545 3.838508,-1.883509 4.576728,-0.186792"
           id="path866" />
        <path
           style="fill:none;fill-rule:evenodd;stroke:#729fcf;stroke-width:2.17509174;stroke-linecap:round;stroke-linejoin:miter;stroke-miterlimit:4;stroke-dasharray:none;stroke-opacity:1"
           d="m 11.955409,26.813371 c 0.753375,-0.753214 1.129518,-1.452486 1.106199,-2.386578"
           id="path868" />
        <path
           style="fill:none;fill-rule:evenodd;stroke:#729fcf;stroke-width:2.17509174;stroke-linecap:round;stroke-linejoin:miter;stroke-miterlimit:4;stroke-dasharray:none;stroke-opacity:1"
           d="m 16.957692,20.005125 c 1.155563,-0.327326 1.984499,-1.769638 1.25442,-3.073667"
           id="path868-7" />
        <g
           id="g4583-1-6-1"
           transform="matrix(0.6619134,0,0,0.76251857,23.141389,6.6930998)">
          <path
             transform="rotate(-66.420589)"
             d="m -48.632539,35.775429 a 2,4.375 0 0 1 -2.419975,-3.174399 2,4.375 0 0 1 1.439682,-5.308664 2,4.375 0 0 1 2.433606,3.12414 2,4.375 0 0 1 -1.416642,5.338241"
             id="path4557-8-0-0"
             style="opacity:1;fill:#0b1521;fill-opacity:1;fill-rule:nonzero;stroke:none;stroke-width:1.88976383;stroke-miterlimit:4;stroke-dasharray:none" />
          <path
             transform="matrix(-0.40001972,-0.91650653,-0.91650653,0.40001972,0,0)"
             d="m -59.260518,11.320401 a 2,4.375 0 0 1 -2.419975,-3.1744 2,4.375 0 0 1 1.439682,-5.3086639 2,4.375 0 0 1 2.433606,3.12414 2,4.375 0 0 1 -1.416642,5.3382419"
             id="path4557-4-5-6-1"
             style="opacity:1;fill:#0b1521;fill-opacity:1;fill-rule:nonzero;stroke:none;stroke-width:1.88976383;stroke-miterlimit:4;stroke-dasharray:none" />
          <path
             transform="rotate(0.20338494)"
             d="m 13.954073,67.074179 a 2,4.375 0 0 1 -2.419975,-3.1744 2,4.375 0 0 1 1.439682,-5.308663 2,4.375 0 0 1 2.433606,3.12414 2,4.375 0 0 1 -1.416642,5.338241"
             id="path4557-3-1-2-9"
             style="opacity:1;fill:#0b1521;fill-opacity:1;fill-rule:nonzero;stroke:none;stroke-width:1.88976383;stroke-miterlimit:4;stroke-dasharray:none" />
        </g>
        <path
           id="path827-3-6-6-9-5-6"
           d="m 11.955409,26.813371 c -5.7191513,5.384675 -4.9140072,9.03267 -3.6032146,12.807958 2.3830906,-1.735628 3.8482866,-4.003857 4.5874036,-5.95184 0.546538,-1.440431 0.335979,-1.425345 0.996202,-3.749627"
           style="fill:none;fill-opacity:1;stroke:#729fcf;stroke-width:2.17509174;stroke-linecap:round;stroke-linejoin:miter;stroke-miterlimit:4;stroke-dasharray:none;stroke-opacity:1" />
        <g
           id="g1071"
           transform="matrix(1.4426554,0,0,1.5336585,-14.226765,37.012899)">
          <path
             d="m 32.012441,-3.579859 a 4.2360187,4.386272 0 0 1 3.896572,-4.6885042 4.2360187,4.386272 0 0 1 4.549821,4.0082547 4.2360187,4.386272 0 0 1 -3.845206,4.73375573 4.2360187,4.386272 0 0 1 -4.593232,-3.95481253"
             id="path5083-1"
             style="opacity:1;fill:#ffffff;fill-opacity:1;fill-rule:nonzero;stroke:none;stroke-width:2.8068428;stroke-miterlimit:4;stroke-dasharray:none" />
          <path
             d="m 32.090572,-3.0617162 a 2.262718,2.3429775 0 0 1 2.081398,-2.5044184 2.262718,2.3429775 0 0 1 2.43034,2.1410553 2.262718,2.3429775 0 0 1 -2.053961,2.52858996 2.262718,2.3429775 0 0 1 -2.453528,-2.11250846"
             id="path5083-8-6"
             style="opacity:1;fill:#0b1521;fill-opacity:1;fill-rule:nonzero;stroke:none;stroke-width:1.49930751;stroke-miterlimit:4;stroke-dasharray:none" />
          <path
             transform="matrix(-0.02973672,0.99955777,0.99924923,0.03874253,0,0)"
             d="M -7.5008603,28.528731 A 3.0267222,3.5582526 0 0 1 -4.71668,24.7253 a 3.0267222,3.5582526 0 0 1 3.2509404,3.251596 3.0267222,3.5582526 0 0 1 -2.7474785,3.84014 3.0267222,3.5582526 0 0 1 -3.2819583,-3.208242"
             id="path5083-0-4"
             style="opacity:1;fill:#ffffff;fill-opacity:1;fill-rule:nonzero;stroke:none;stroke-width:2.13695836;stroke-miterlimit:4;stroke-dasharray:none" />
          <path
             d="m 28.695223,-3.0884248 a 1.684593,1.7443461 0 0 1 1.5496,-1.8645388 1.684593,1.7443461 0 0 1 1.809387,1.5940151 1.684593,1.7443461 0 0 1 -1.529173,1.8825346 1.684593,1.7443461 0 0 1 -1.826651,-1.5727621"
             id="path5083-8-1-8"
             style="opacity:1;fill:#0b1521;fill-opacity:1;fill-rule:nonzero;stroke:none;stroke-width:1.11623406;stroke-miterlimit:4;stroke-dasharray:none" />
        </g>
        <path
           style="fill:none;fill-opacity:1;stroke:#0b1521;stroke-width:2.21032572;stroke-linecap:round;stroke-linejoin:miter;stroke-miterlimit:4;stroke-dasharray:none;stroke-opacity:1"
           d="m 53.531164,25.211096 c 2.122316,2.007939 3.692747,4.126938 3.79054,4.680108 2.589415,4.058486 0.694529,9.908416 -0.547415,13.098492 -9.408812,-5.737395 -6.784715,-8.865895 -9.356563,-12.921936"
           id="path827-3-6-6-9-1" />
        <path
           style="opacity:1;fill:none;fill-opacity:1;fill-rule:nonzero;stroke:#729fcf;stroke-width:2.17509174;stroke-linecap:round;stroke-miterlimit:4;stroke-dasharray:none"
           id="path4669-1-5-5-6-1-3"
           d="m -51.452249,25.464789 a 3.0704331,3.9997387 0 0 1 0.164861,-3.797464 3.0704331,3.9997387 0 0 1 2.529066,-1.900786"
           transform="scale(-1,1)" />
        <path
           style="fill:none;fill-rule:evenodd;stroke:#729fcf;stroke-width:2.17509174;stroke-linecap:round;stroke-linejoin:miter;stroke-miterlimit:4;stroke-dasharray:none;stroke-opacity:1"
           d="m 48.008752,19.700889 c -1.155563,-0.327326 -1.984499,-1.769638 -1.25442,-3.073667"
           id="path868-7-6" />
        <path
           id="path827-3-6-6-9-5-6-3"
           d="m 51.538585,25.901022 c 5.719151,5.384675 5.493687,9.931173 4.182894,13.706462 -2.38309,-1.735629 -3.674382,-3.250273 -4.413499,-5.198256 -0.546538,-1.440431 -0.944643,-3.599145 -2.300482,-5.865459"
           style="fill:none;fill-opacity:1;stroke:#729fcf;stroke-width:2.17509174;stroke-linecap:round;stroke-linejoin:miter;stroke-miterlimit:4;stroke-dasharray:none;stroke-opacity:1" />
        <path
           style="fill:none;fill-rule:evenodd;stroke:#729fcf;stroke-width:2.17509174;stroke-linecap:round;stroke-linejoin:miter;stroke-miterlimit:4;stroke-dasharray:none;stroke-dashoffset:0;stroke-opacity:1"
           d="m 45.247185,29.514639 c 0.962709,-2.518417 3.751556,-1.869017 4.402824,0.103048"
           id="path866-5" />
      </g>
    </g>
    <g
       transform="matrix(1.0161989,0,0,1.0161989,127.50909,-0.29287856)"
       id="g1195">
      <g
         transform="translate(27.100757,23.156998)"
         id="g1129" />
      <g
         transform="matrix(1.0609942,0,0,1.0609942,-1.9456602,-1.9888296)"
         id="g1193">
        <path
           id="path1131"
           d="m 46.862923,19.416557 c 1.66448,-7.41576 -2.46805,-8.904332 -8.5834,-8.36557 -4.11598,-2.663978 -8.27216,-3.770605 -12.55492,0.02414 -9.092843,-1.4097023 -9.656833,2.766969 -7.92369,8.256193 -2.73442,1.388934 -5.868243,2.528459 -4.07631,6.743807 -7.680309,2.33437 -5.7802556,8.942561 -4.1199056,15.266333 5.5618756,0.0094 4.4051156,-7.129743 8.5057256,-11.000703 0.59642,13.168027 3.40522,23.70858 13.88958,25.133475 9.57683,-1.495739 14.31812,-9.769102 13.97992,-25.161985 3.71316,4.605098 2.370548,10.614916 9.210148,10.704411 -0.5217,-5.949656 3.023801,-12.794017 -3.914549,-15.177637 1.68354,-4.071161 -1.666449,-5.112266 -4.412599,-6.422464 z"
           style="fill:url(#linearGradient1197);fill-opacity:1;fill-rule:evenodd;stroke:none;stroke-width:1px;stroke-linecap:butt;stroke-linejoin:miter;stroke-opacity:1"
           transform="matrix(1.1051629,0,0,1.1051629,-3.3975789,-3.4322105)" />
        <path
           id="path1133"
           d="M 10.406304,25.263156 C 8.2839879,27.271095 6.7135569,29.390094 6.6157637,29.943264 4.0263487,34.00175 5.9212349,39.85168 7.1631788,43.041756 16.571991,37.30436 14.403214,32.366927 16.975062,28.310886"
           style="fill:none;fill-opacity:1;stroke:#0b1521;stroke-width:2.21032572;stroke-linecap:round;stroke-linejoin:miter;stroke-miterlimit:4;stroke-dasharray:none;stroke-opacity:1" />
        <path
           id="path1135"
           d="M 16.617378,30.099271 C 18.015258,42.763729 18.084072,56.22657 31.967634,57.875855 44.78367,56.442673 46.008839,42.833486 47.417716,30.06776"
           style="fill:none;fill-opacity:1;stroke:#0b1521;stroke-width:2.21032572;stroke-linecap:round;stroke-linejoin:miter;stroke-miterlimit:4;stroke-dasharray:none;stroke-opacity:1" />
        <path
           d="m 10.913786,24.727003 a 7.7969213,6.3020225 0 0 1 5.36154,-6.794954"
           id="path1137"
           style="opacity:1;fill:none;fill-opacity:1;fill-rule:nonzero;stroke:#0b1521;stroke-width:2.21032572;stroke-linecap:round;stroke-miterlimit:4;stroke-dasharray:none" />
        <path
           d="m 15.824326,17.277108 a 7.7969213,6.3020225 0 0 1 1.19308,-7.12608 7.7969213,6.3020225 0 0 1 8.678521,-1.5831735"
           id="path1139"
           style="opacity:1;fill:none;fill-opacity:1;fill-rule:nonzero;stroke:#0b1521;stroke-width:2.21032572;stroke-linecap:round;stroke-miterlimit:4;stroke-dasharray:none" />
        <path
           transform="scale(-1,1)"
           d="m -38.746863,8.6463425 a 7.7969213,6.3020225 0 0 1 6.480178,-2.8777831 7.7969213,6.3020225 0 0 1 6.539114,2.7893297"
           id="path1141"
           style="opacity:1;fill:none;fill-opacity:1;fill-rule:nonzero;stroke:#0b1521;stroke-width:2.21032572;stroke-linecap:round;stroke-miterlimit:4;stroke-dasharray:none" />
        <path
           transform="scale(-1,1)"
           d="m -48.989754,17.268057 a 7.7969213,6.3020225 0 0 1 1.433475,-7.043401 7.7969213,6.3020225 0 0 1 8.648757,-1.4437247"
           id="path1143"
           style="opacity:1;fill:none;fill-opacity:1;fill-rule:nonzero;stroke:#0b1521;stroke-width:2.21032572;stroke-linecap:round;stroke-miterlimit:4;stroke-dasharray:none" />
        <path
           transform="scale(-1,1)"
           d="m -53.097978,24.794131 a 7.5624275,6.3020225 0 0 1 4.704385,-6.767884"
           id="path1145"
           style="opacity:1;fill:none;fill-opacity:1;fill-rule:nonzero;stroke:#0b1521;stroke-width:2.21032572;stroke-linecap:round;stroke-miterlimit:4;stroke-dasharray:none" />
        <path
           d="m 13.066014,24.5468 a 6.9618187,4.3235502 0 0 1 4.117308,-4.602635"
           id="path1147"
           style="opacity:1;fill:none;fill-opacity:1;fill-rule:nonzero;stroke:#729fcf;stroke-width:2.17509174;stroke-linecap:round;stroke-miterlimit:4;stroke-dasharray:none" />
        <path
           d="m 18.04188,16.59087 a 5.7523088,4.1353617 0 0 1 0.890425,-5.104059 5.7523088,4.1353617 0 0 1 7.117062,-0.531715"
           id="path1149"
           style="opacity:1;fill:none;fill-opacity:1;fill-rule:nonzero;stroke:#729fcf;stroke-width:2.17509174;stroke-linecap:round;stroke-miterlimit:4;stroke-dasharray:none" />
        <path
           transform="scale(-1,1)"
           d="m -38.014432,11.137345 a 6.4067531,5.661931 0 0 1 5.484481,-3.2955175 6.4067531,5.661931 0 0 1 5.848826,2.7632395"
           id="path1151"
           style="opacity:1;fill:none;fill-opacity:1;fill-rule:nonzero;stroke:#729fcf;stroke-width:1.89913595;stroke-linecap:round;stroke-miterlimit:4;stroke-dasharray:none" />
        <path
           transform="scale(-1,1)"
           d="m -46.754332,16.627222 a 5.4478283,4.3276558 0 0 1 1.332429,-5.088394 5.4478283,4.3276558 0 0 1 6.522947,-0.402451"
           id="path1153"
           style="opacity:1;fill:none;fill-opacity:1;fill-rule:nonzero;stroke:#729fcf;stroke-width:2.17509174;stroke-linecap:round;stroke-miterlimit:4;stroke-dasharray:none" />
        <path
           id="path1155"
           d="M 18.781353,29.619019 C 20.056823,40.497603 19.825912,54.271588 31.864782,55.55181 42.5648,54.738587 44.005893,41.642851 45.208457,29.746187"
           style="fill:none;fill-opacity:1;stroke:#729fcf;stroke-width:2.17509174;stroke-linecap:round;stroke-linejoin:miter;stroke-miterlimit:4;stroke-dasharray:none;stroke-opacity:1" />
        <path
           id="path1157"
           d="m 14.135688,29.55084 c 1.513405,-2.286545 3.838508,-1.883509 4.576728,-0.186792"
           style="fill:none;fill-rule:evenodd;stroke:#729fcf;stroke-width:2.17509174;stroke-linecap:round;stroke-linejoin:miter;stroke-miterlimit:4;stroke-dasharray:none;stroke-dashoffset:0;stroke-opacity:1" />
        <path
           id="path1159"
           d="m 11.955409,26.813371 c 0.753375,-0.753214 1.129518,-1.452486 1.106199,-2.386578"
           style="fill:none;fill-rule:evenodd;stroke:#729fcf;stroke-width:2.17509174;stroke-linecap:round;stroke-linejoin:miter;stroke-miterlimit:4;stroke-dasharray:none;stroke-opacity:1" />
        <path
           id="path1161"
           d="m 16.957692,20.005125 c 1.155563,-0.327326 1.984499,-1.769638 1.25442,-3.073667"
           style="fill:none;fill-rule:evenodd;stroke:#729fcf;stroke-width:2.17509174;stroke-linecap:round;stroke-linejoin:miter;stroke-miterlimit:4;stroke-dasharray:none;stroke-opacity:1" />
        <g
           transform="matrix(0.6619134,0,0,0.76251857,23.141389,6.6930998)"
           id="g1169">
          <path
             style="opacity:1;fill:#0b1521;fill-opacity:1;fill-rule:nonzero;stroke:none;stroke-width:1.88976383;stroke-miterlimit:4;stroke-dasharray:none"
             id="path1163"
             d="m -48.632539,35.775429 a 2,4.375 0 0 1 -2.419975,-3.174399 2,4.375 0 0 1 1.439682,-5.308664 2,4.375 0 0 1 2.433606,3.12414 2,4.375 0 0 1 -1.416642,5.338241"
             transform="rotate(-66.420589)" />
          <path
             style="opacity:1;fill:#0b1521;fill-opacity:1;fill-rule:nonzero;stroke:none;stroke-width:1.88976383;stroke-miterlimit:4;stroke-dasharray:none"
             id="path1165"
             d="m -59.260518,11.320401 a 2,4.375 0 0 1 -2.419975,-3.1744 2,4.375 0 0 1 1.439682,-5.3086639 2,4.375 0 0 1 2.433606,3.12414 2,4.375 0 0 1 -1.416642,5.3382419"
             transform="matrix(-0.40001972,-0.91650653,-0.91650653,0.40001972,0,0)" />
          <path
             style="opacity:1;fill:#0b1521;fill-opacity:1;fill-rule:nonzero;stroke:none;stroke-width:1.88976383;stroke-miterlimit:4;stroke-dasharray:none"
             id="path1167"
             d="m 13.954073,67.074179 a 2,4.375 0 0 1 -2.419975,-3.1744 2,4.375 0 0 1 1.439682,-5.308663 2,4.375 0 0 1 2.433606,3.12414 2,4.375 0 0 1 -1.416642,5.338241"
             transform="rotate(0.20338494)" />
        </g>
        <path
           style="fill:none;fill-opacity:1;stroke:#729fcf;stroke-width:2.17509174;stroke-linecap:round;stroke-linejoin:miter;stroke-miterlimit:4;stroke-dasharray:none;stroke-opacity:1"
           d="m 11.955409,26.813371 c -5.7191513,5.384675 -4.9140072,9.03267 -3.6032146,12.807958 2.3830906,-1.735628 3.8482866,-4.003857 4.5874036,-5.95184 0.546538,-1.440431 0.335979,-1.425345 0.996202,-3.749627"
           id="path1171" />
        <g
           transform="matrix(1.4426554,0,0,1.5336585,-14.226765,37.012899)"
           id="g1181">
          <path
             style="opacity:1;fill:#ffffff;fill-opacity:1;fill-rule:nonzero;stroke:none;stroke-width:2.8068428;stroke-miterlimit:4;stroke-dasharray:none"
             id="path1173"
             d="m 32.012441,-3.579859 a 4.2360187,4.386272 0 0 1 3.896572,-4.6885042 4.2360187,4.386272 0 0 1 4.549821,4.0082547 4.2360187,4.386272 0 0 1 -3.845206,4.73375573 4.2360187,4.386272 0 0 1 -4.593232,-3.95481253" />
          <path
             style="opacity:1;fill:#0b1521;fill-opacity:1;fill-rule:nonzero;stroke:none;stroke-width:1.49930751;stroke-miterlimit:4;stroke-dasharray:none"
             id="path1175"
             d="m 32.090572,-3.0617162 a 2.262718,2.3429775 0 0 1 2.081398,-2.5044184 2.262718,2.3429775 0 0 1 2.43034,2.1410553 2.262718,2.3429775 0 0 1 -2.053961,2.52858996 2.262718,2.3429775 0 0 1 -2.453528,-2.11250846" />
          <path
             style="opacity:1;fill:#ffffff;fill-opacity:1;fill-rule:nonzero;stroke:none;stroke-width:2.13695836;stroke-miterlimit:4;stroke-dasharray:none"
             id="path1177"
             d="M -7.5008603,28.528731 A 3.0267222,3.5582526 0 0 1 -4.71668,24.7253 a 3.0267222,3.5582526 0 0 1 3.2509404,3.251596 3.0267222,3.5582526 0 0 1 -2.7474785,3.84014 3.0267222,3.5582526 0 0 1 -3.2819583,-3.208242"
             transform="matrix(-0.02973672,0.99955777,0.99924923,0.03874253,0,0)" />
          <path
             style="opacity:1;fill:#0b1521;fill-opacity:1;fill-rule:nonzero;stroke:none;stroke-width:1.11623406;stroke-miterlimit:4;stroke-dasharray:none"
             id="path1179"
             d="m 28.695223,-3.0884248 a 1.684593,1.7443461 0 0 1 1.5496,-1.8645388 1.684593,1.7443461 0 0 1 1.809387,1.5940151 1.684593,1.7443461 0 0 1 -1.529173,1.8825346 1.684593,1.7443461 0 0 1 -1.826651,-1.5727621" />
        </g>
        <path
           id="path1183"
           d="m 53.531164,25.211096 c 2.122316,2.007939 3.692747,4.126938 3.79054,4.680108 2.589415,4.058486 0.694529,9.908416 -0.547415,13.098492 -9.408812,-5.737395 -6.784715,-8.865895 -9.356563,-12.921936"
           style="fill:none;fill-opacity:1;stroke:#0b1521;stroke-width:2.21032572;stroke-linecap:round;stroke-linejoin:miter;stroke-miterlimit:4;stroke-dasharray:none;stroke-opacity:1" />
        <path
           transform="scale(-1,1)"
           d="m -51.452249,25.464789 a 3.0704331,3.9997387 0 0 1 0.164861,-3.797464 3.0704331,3.9997387 0 0 1 2.529066,-1.900786"
           id="path1185"
           style="opacity:1;fill:none;fill-opacity:1;fill-rule:nonzero;stroke:#729fcf;stroke-width:2.17509174;stroke-linecap:round;stroke-miterlimit:4;stroke-dasharray:none" />
        <path
           id="path1187"
           d="m 48.008752,19.700889 c -1.155563,-0.327326 -1.984499,-1.769638 -1.25442,-3.073667"
           style="fill:none;fill-rule:evenodd;stroke:#729fcf;stroke-width:2.17509174;stroke-linecap:round;stroke-linejoin:miter;stroke-miterlimit:4;stroke-dasharray:none;stroke-opacity:1" />
        <path
           style="fill:none;fill-opacity:1;stroke:#729fcf;stroke-width:2.17509174;stroke-linecap:round;stroke-linejoin:miter;stroke-miterlimit:4;stroke-dasharray:none;stroke-opacity:1"
           d="m 51.538585,25.901022 c 5.719151,5.384675 5.493687,9.931173 4.182894,13.706462 -2.38309,-1.735629 -3.674382,-3.250273 -4.413499,-5.198256 -0.546538,-1.440431 -0.944643,-3.599145 -2.300482,-5.865459"
           id="path1189" />
        <path
           id="path1191"
           d="m 45.247185,29.514639 c 0.962709,-2.518417 3.751556,-1.869017 4.402824,0.103048"
           style="fill:none;fill-rule:evenodd;stroke:#729fcf;stroke-width:2.17509174;stroke-linecap:round;stroke-linejoin:miter;stroke-miterlimit:4;stroke-dasharray:none;stroke-dashoffset:0;stroke-opacity:1" />
      </g>
    </g>
  </g>
  <metadata
     id="metadata5247">
    <rdf:RDF>
      <cc:Work
         rdf:about="">
        <dc:format>image/svg+xml</dc:format>
        <dc:type
           rdf:resource="http://purl.org/dc/dcmitype/StillImage" />
        <dc:title></dc:title>
        <cc:license
           rdf:resource="" />
        <dc:date>Sat Dec 17 15:36:02 2011 +0000</dc:date>
        <dc:creator>
          <cc:Agent>
            <dc:title>[yorikvanhavre]</dc:title>
          </cc:Agent>
        </dc:creator>
        <dc:rights>
          <cc:Agent>
            <dc:title>FreeCAD LGPL2+</dc:title>
          </cc:Agent>
        </dc:rights>
        <dc:publisher>
          <cc:Agent>
            <dc:title>FreeCAD</dc:title>
          </cc:Agent>
        </dc:publisher>
        <dc:identifier>FreeCAD/src/Mod/Draft/Resources/icons/Draft_Point.svg</dc:identifier>
        <dc:relation>http://www.freecadweb.org/wiki/index.php?title=Artwork</dc:relation>
        <dc:contributor>
          <cc:Agent>
            <dc:title>[agryson] Alexander Gryson</dc:title>
          </cc:Agent>
        </dc:contributor>
        <dc:subject>
          <rdf:Bag>
            <rdf:li>dot circle</rdf:li>
          </rdf:Bag>
        </dc:subject>
        <dc:description>A dot or circle</dc:description>
      </cc:Work>
    </rdf:RDF>
  </metadata>
</svg>
