<?xml version="1.0" encoding="UTF-8" standalone="no"?>
<!-- Created with Inkscape (http://www.inkscape.org/) -->

<svg
   xmlns:dc="http://purl.org/dc/elements/1.1/"
   xmlns:cc="http://creativecommons.org/ns#"
   xmlns:rdf="http://www.w3.org/1999/02/22-rdf-syntax-ns#"
   xmlns:svg="http://www.w3.org/2000/svg"
   xmlns="http://www.w3.org/2000/svg"
   xmlns:xlink="http://www.w3.org/1999/xlink"
   xmlns:sodipodi="http://sodipodi.sourceforge.net/DTD/sodipodi-0.dtd"
   xmlns:inkscape="http://www.inkscape.org/namespaces/inkscape"
   width="64px"
   height="64px"
   id="svg2918"
   sodipodi:version="0.32"
   inkscape:version="0.48.2 r9819"
   sodipodi:docname="Draft_Circle4.svg"
   inkscape:output_extension="org.inkscape.output.svg.inkscape"
   version="1.1">
  <defs
     id="defs2920">
    <radialGradient
       inkscape:collect="always"
       xlink:href="#linearGradient3144"
       id="radialGradient3191"
       gradientUnits="userSpaceOnUse"
       gradientTransform="matrix(1,0,0,0.6985294,0,202.82863)"
       cx="225.26402"
       cy="672.79736"
       fx="225.26402"
       fy="672.79736"
       r="34.345188" />
    <linearGradient
       inkscape:collect="always"
       id="linearGradient3144">
      <stop
         style="stop-color:#ffffff;stop-opacity:1;"
         offset="0"
         id="stop3146" />
      <stop
         style="stop-color:#ffffff;stop-opacity:0;"
         offset="1"
         id="stop3148" />
    </linearGradient>
    <radialGradient
       inkscape:collect="always"
       xlink:href="#linearGradient3144"
       id="radialGradient3183"
       gradientUnits="userSpaceOnUse"
       gradientTransform="matrix(1,0,0,0.6985294,0,202.82863)"
       cx="225.26402"
       cy="672.79736"
       fx="225.26402"
       fy="672.79736"
       r="34.345188" />
    <inkscape:perspective
       sodipodi:type="inkscape:persp3d"
       inkscape:vp_x="0 : 32 : 1"
       inkscape:vp_y="0 : 1000 : 0"
       inkscape:vp_z="64 : 32 : 1"
       inkscape:persp3d-origin="32 : 21.333333 : 1"
       id="perspective2926" />
    <radialGradient
       inkscape:collect="always"
       xlink:href="#linearGradient3144"
       id="radialGradient3087"
       gradientUnits="userSpaceOnUse"
       gradientTransform="matrix(1,0,0,0.6985294,0,202.82863)"
       cx="225.26402"
       cy="672.79736"
       fx="225.26402"
       fy="672.79736"
       r="34.345188" />
    <radialGradient
       inkscape:collect="always"
       xlink:href="#linearGradient3144"
       id="radialGradient3089"
       gradientUnits="userSpaceOnUse"
       gradientTransform="matrix(1,0,0,0.6985294,0,202.82863)"
       cx="225.26402"
       cy="672.79736"
       fx="225.26402"
       fy="672.79736"
       r="34.345188" />
    <radialGradient
       inkscape:collect="always"
       xlink:href="#linearGradient3144"
       id="radialGradient3104"
       gradientUnits="userSpaceOnUse"
       gradientTransform="matrix(1,0,0,0.6985294,0,202.82863)"
       cx="225.26402"
       cy="672.79736"
       fx="225.26402"
       fy="672.79736"
       r="34.345188" />
    <radialGradient
       inkscape:collect="always"
       xlink:href="#linearGradient3144"
       id="radialGradient3106"
       gradientUnits="userSpaceOnUse"
       gradientTransform="matrix(1,0,0,0.6985294,0,202.82863)"
       cx="225.26402"
       cy="672.79736"
       fx="225.26402"
       fy="672.79736"
       r="34.345188" />
    <radialGradient
       inkscape:collect="always"
       xlink:href="#linearGradient3144-2"
       id="radialGradient3104-8"
       gradientUnits="userSpaceOnUse"
       gradientTransform="matrix(1,0,0,0.6985294,-254.24674,209.81738)"
       cx="225.26402"
       cy="672.79736"
       fx="225.26402"
       fy="672.79736"
       r="34.345188" />
    <linearGradient
       inkscape:collect="always"
       id="linearGradient3144-2">
      <stop
         style="stop-color:#ffffff;stop-opacity:1;"
         offset="0"
         id="stop3146-4" />
      <stop
         style="stop-color:#ffffff;stop-opacity:0;"
         offset="1"
         id="stop3148-5" />
    </linearGradient>
    <radialGradient
       inkscape:collect="always"
       xlink:href="#linearGradient3144-5"
       id="radialGradient3104-1"
       gradientUnits="userSpaceOnUse"
       gradientTransform="matrix(1,0,0,0.6985294,-282.23188,43.707565)"
       cx="225.26402"
       cy="672.79736"
       fx="225.26402"
       fy="672.79736"
       r="34.345188" />
    <linearGradient
       inkscape:collect="always"
       id="linearGradient3144-5">
      <stop
         style="stop-color:#ffffff;stop-opacity:1;"
         offset="0"
         id="stop3146-2" />
      <stop
         style="stop-color:#ffffff;stop-opacity:0;"
         offset="1"
         id="stop3148-7" />
    </linearGradient>
    <radialGradient
       inkscape:collect="always"
       xlink:href="#linearGradient3144"
       id="radialGradient3182"
       gradientUnits="userSpaceOnUse"
       gradientTransform="matrix(1,0,0,0.6985294,0,202.82863)"
       cx="225.26402"
       cy="672.79736"
       fx="225.26402"
       fy="672.79736"
       r="34.345188" />
    <radialGradient
       inkscape:collect="always"
       xlink:href="#linearGradient3144"
       id="radialGradient3187"
       gradientUnits="userSpaceOnUse"
       gradientTransform="matrix(1,0,0,0.6985294,0,202.82863)"
       cx="225.26402"
       cy="672.79736"
       fx="225.26402"
       fy="672.79736"
       r="34.345188" />
    <radialGradient
       inkscape:collect="always"
       xlink:href="#linearGradient3144-21"
       id="radialGradient3187-2"
       gradientUnits="userSpaceOnUse"
       gradientTransform="matrix(1,0,0,0.6985294,0,202.82863)"
       cx="225.26402"
       cy="672.79736"
       fx="225.26402"
       fy="672.79736"
       r="34.345188" />
    <linearGradient
       inkscape:collect="always"
       id="linearGradient3144-21">
      <stop
         style="stop-color:#ffffff;stop-opacity:1;"
         offset="0"
         id="stop3146-6" />
      <stop
         style="stop-color:#ffffff;stop-opacity:0;"
         offset="1"
         id="stop3148-8" />
    </linearGradient>
    <radialGradient
       r="34.345188"
       fy="672.79736"
       fx="225.26402"
       cy="672.79736"
       cx="225.26402"
       gradientTransform="matrix(1,0,0,0.6985294,-247.17834,213.61696)"
       gradientUnits="userSpaceOnUse"
       id="radialGradient3206"
       xlink:href="#linearGradient3144-21"
       inkscape:collect="always" />
    <radialGradient
       inkscape:collect="always"
       xlink:href="#linearGradient3144"
       id="radialGradient3276"
       gradientUnits="userSpaceOnUse"
       gradientTransform="matrix(1,0,0,0.6985294,-231.60485,231.95308)"
       cx="225.26402"
       cy="672.79736"
       fx="225.26402"
       fy="672.79736"
       r="34.345188" />
  </defs>
  <sodipodi:namedview
     id="base"
     pagecolor="#ffffff"
     bordercolor="#666666"
     borderopacity="1.0"
     inkscape:pageopacity="0.0"
     inkscape:pageshadow="2"
     inkscape:zoom="11.53125"
     inkscape:cx="32"
     inkscape:cy="32"
     inkscape:current-layer="layer1"
     showgrid="true"
     inkscape:document-units="px"
     inkscape:grid-bbox="true"
     inkscape:window-width="1680"
     inkscape:window-height="989"
     inkscape:window-x="1671"
     inkscape:window-y="-9"
     inkscape:snap-page="true"
     inkscape:window-maximized="1" />
  <metadata
     id="metadata2923">
    <rdf:RDF>
      <cc:Work
         rdf:about="">
        <dc:format>image/svg+xml</dc:format>
        <dc:type
           rdf:resource="http://purl.org/dc/dcmitype/StillImage" />
        <dc:title></dc:title>
      </cc:Work>
    </rdf:RDF>
  </metadata>
  <g
     id="layer1"
     inkscape:label="Layer 1"
     inkscape:groupmode="layer">
    <g
       id="g6360"
       style="opacity:0.41503266">
      <path
         id="path4439"
         d="m 31.34122,8.3964415 c -14.572107,0 -26.4003251,11.8282215 -26.4003251,26.4003175 0,14.572099 11.8282181,26.400318 26.4003251,26.400318 11.784043,0 21.772342,-7.734301 25.163587,-18.40036 3.326785,-0.65641 5.797091,-3.62923 5.709047,-7.132878 -0.07952,-3.163572 -2.221245,-5.795174 -5.106655,-6.635447 C 54.475116,17.18057 43.928395,8.3964415 31.34122,8.3964415 z m -0.209925,5.2161735 c 9.912376,-2e-6 18.250893,6.789064 20.55437,16.027297 -2.232679,1.241959 -3.719458,3.650334 -3.650865,6.379887 0.05986,2.38157 1.286506,4.45913 3.121489,5.699913 -2.870207,8.298485 -10.754864,14.261191 -20.024994,14.261191 -11.693122,2e-6 -21.1841442,-9.491013 -21.1841442,-21.184144 0,-11.693129 9.4910222,-21.184144 21.1841442,-21.184144 z m -0.497423,14.466552 c -0.12099,-0.0015 -0.23827,0.0043 -0.36053,0.0091 -3.912384,0.153472 -6.966888,3.453233 -6.81342,7.36562 0.153468,3.912386 3.453222,6.962335 7.365606,6.808863 3.912398,-0.153472 6.966902,-3.453229 6.813434,-7.36562 -0.148678,-3.790125 -3.254454,-6.774883 -7.00509,-6.817991 z"
         style="fill:#000000;fill-opacity:1;fill-rule:nonzero;stroke:none;stroke-width:5.80000019;marker:none;visibility:visible;display:inline;overflow:visible;enable-background:accumulate"
         inkscape:connector-curvature="0" />
      <path
         transform="translate(51.165313,22.720869)"
         sodipodi:open="true"
         sodipodi:end="6.2634128"
         sodipodi:start="0"
         d="m -7.4579949,33.951218 c 0,4.047094 -3.1643401,7.327913 -7.0677501,7.327913 -3.903411,0 -7.067751,-3.280819 -7.067751,-7.327913 0,-4.047095 3.16434,-7.327914 7.067751,-7.327914 3.848947,0 6.9902702,3.193186 7.0663685,7.183032"
         sodipodi:ry="7.3279133"
         sodipodi:rx="7.0677505"
         sodipodi:cy="33.951218"
         sodipodi:cx="-14.525745"
         id="path6314"
         style="fill:#000000;fill-opacity:1;stroke:none"
         sodipodi:type="arc" />
      <path
         transform="translate(25.192412,12.816519)"
         sodipodi:open="true"
         sodipodi:end="6.2634128"
         sodipodi:start="0"
         d="m -7.4579949,33.951218 c 0,4.047094 -3.1643401,7.327913 -7.0677501,7.327913 -3.903411,0 -7.067751,-3.280819 -7.067751,-7.327913 0,-4.047095 3.16434,-7.327914 7.067751,-7.327914 3.848947,0 6.9902702,3.193186 7.0663685,7.183032"
         sodipodi:ry="7.3279133"
         sodipodi:rx="7.0677505"
         sodipodi:cy="33.951218"
         sodipodi:cx="-14.525745"
         id="path6314-3"
         style="fill:#000000;fill-opacity:1;stroke:none"
         sodipodi:type="arc" />
    </g>
    <path
       style="fill:#ffffff;fill-opacity:1;fill-rule:nonzero;stroke:#000000;stroke-width:0.84700072;stroke-linecap:butt;stroke-linejoin:miter;stroke-miterlimit:4;stroke-opacity:1;stroke-dasharray:none;stroke-dashoffset:0;marker:none;visibility:visible;display:inline;overflow:visible;enable-background:accumulate"
       d="m 28.990983,3.6007689 c -14.572107,0 -26.4003252,11.8282211 -26.4003252,26.4003171 0,14.5721 11.8282182,26.400318 26.4003252,26.400318 14.572091,0 26.400295,-11.828217 26.40031,-26.400318 l -0.01373,-0.725609 C 54.984397,14.963565 43.308244,3.6007689 28.990953,3.6007689 z m -0.20994,5.2161734 C 40.269731,8.8169408 49.640567,17.9326 49.95606,29.416948 l 0.0092,0.584138 c 0,11.693134 -9.491023,21.184145 -21.184159,21.184145 -11.693122,10e-7 -21.1841298,-9.491014 -21.1841298,-21.184145 0,-11.693129 9.4910078,-21.1841437 21.1841298,-21.1841437 z"
       id="path4425"
       inkscape:connector-curvature="0" />
    <g
       id="g3284">
      <g
         id="g3278">
        <g
           id="g3263">
          <g
             id="g3259">
            <path
               sodipodi:type="arc"
               style="fill:#ffa900;fill-opacity:1;fill-rule:nonzero;stroke:#000000;stroke-width:5.80000019;stroke-linecap:butt;stroke-linejoin:miter;stroke-miterlimit:4;stroke-opacity:1;stroke-dasharray:none;stroke-dashoffset:0;marker:none;visibility:visible;display:inline;overflow:visible;enable-background:accumulate"
               id="path3179"
               sodipodi:cx="197.14285"
               sodipodi:cy="655.2193"
               sodipodi:rx="48.57143"
               sodipodi:ry="48.57143"
               d="m 245.71428,655.2193 a 48.57143,48.57143 0 1 1 -97.14286,0 48.57143,48.57143 0 1 1 97.14286,0 z"
               transform="matrix(-0.1459885,0.00366916,-0.00366916,-0.1459885,83.957793,125.97476)" />
            <path
               sodipodi:type="arc"
               style="fill:url(#radialGradient3187);fill-opacity:1;stroke:none"
               id="path3181"
               sodipodi:cx="225.26402"
               sodipodi:cy="672.79736"
               sodipodi:rx="34.345188"
               sodipodi:ry="23.991123"
               d="m 259.60921,672.79736 a 34.345188,23.991123 0 1 1 -68.69038,0 34.345188,23.991123 0 1 1 68.69038,0 z"
               transform="matrix(-0.12235523,0.07972014,-0.07972014,-0.12235523,132.61774,93.462271)" />
          </g>
        </g>
      </g>
    </g>
    <g
       id="g3185"
       transform="matrix(-0.14592237,0.00572413,-0.00572413,-0.14592237,60.715685,124.85872)"
       inkscape:export-filename="/home/yorik/Documents/Lab/Draft/icons/circle.png"
       inkscape:export-xdpi="7.2934141"
       inkscape:export-ydpi="7.2934141">
      <path
         d="m 245.71428,655.2193 c 0,26.82526 -21.74617,48.57143 -48.57143,48.57143 -26.82526,0 -48.57143,-21.74617 -48.57143,-48.57143 0,-26.82526 21.74617,-48.57143 48.57143,-48.57143 26.82526,0 48.57143,21.74617 48.57143,48.57143 z"
         sodipodi:ry="48.57143"
         sodipodi:rx="48.57143"
         sodipodi:cy="655.2193"
         sodipodi:cx="197.14285"
         id="path3187"
         style="fill:#ffa900;fill-opacity:1;fill-rule:nonzero;stroke:#000000;stroke-width:5.79999971;stroke-linecap:butt;stroke-linejoin:miter;stroke-miterlimit:4;stroke-opacity:1;stroke-dasharray:none;stroke-dashoffset:0;marker:none;visibility:visible;display:inline;overflow:visible;enable-background:accumulate"
         sodipodi:type="arc" />
      <path
         transform="matrix(0.8513023,-0.5246754,0.5246754,0.8513023,-338.69692,214.19328)"
         d="m 259.60921,672.79736 c 0,13.24993 -15.37686,23.99113 -34.34519,23.99113 -18.96832,0 -34.34519,-10.7412 -34.34519,-23.99113 0,-13.24993 15.37687,-23.99112 34.34519,-23.99112 18.96833,0 34.34519,10.74119 34.34519,23.99112 z"
         sodipodi:ry="23.991123"
         sodipodi:rx="34.345188"
         sodipodi:cy="672.79736"
         sodipodi:cx="225.26402"
         id="path3189"
         style="fill:url(#radialGradient3106);fill-opacity:1;stroke:none"
         sodipodi:type="arc" />
    </g>
    <use
       x="0"
       y="0"
       xlink:href="#g3284"
       id="use3291"
       transform="translate(-18.384824,21.593496)"
       width="64"
       height="64" />
    <use
       x="0"
       y="0"
       xlink:href="#g3284"
       id="use3293"
       transform="translate(-43.600928,12.227642)"
       width="64"
       height="64" />
  </g>
</svg>
