<svg id="svg" version="1.1" xmlns="http://www.w3.org/2000/svg" xmlns:xlink="http://www.w3.org/1999/xlink" width="400" height="400" viewBox="0, 0, 400,400"><g id="svgg"><path id="path0" d="M175.787 7.233 C 173.482 7.439,171.019 7.978,168.987 8.721 C 166.889 9.487,164.634 9.972,162.389 10.138 C 160.513 10.277,157.633 10.762,155.989 11.216 C 154.345 11.670,151.470 12.399,149.600 12.835 C 145.927 13.691,139.986 15.556,133.000 18.045 C 95.262 31.492,60.397 58.974,38.416 92.600 C 35.000 97.827,32.927 101.144,31.120 104.280 C 29.085 107.808,21.873 122.788,20.468 126.400 C 17.509 134.012,13.941 144.858,12.835 149.600 C 12.399 151.470,11.670 154.345,11.216 155.989 C 10.762 157.633,10.277 160.513,10.138 162.389 C 9.973 164.615,9.488 166.887,8.742 168.930 C 7.058 173.539,6.806 178.053,6.817 203.400 C 6.828 228.696,7.048 232.560,8.774 237.788 C 9.526 240.066,10.114 242.951,10.365 245.600 C 10.584 247.910,11.141 250.880,11.602 252.200 C 12.063 253.520,12.705 255.860,13.030 257.400 C 13.844 261.266,17.552 272.525,20.473 280.000 C 23.213 287.014,31.415 303.377,33.816 306.621 C 34.314 307.293,35.546 309.239,36.556 310.947 C 44.460 324.317,60.317 342.431,74.600 354.407 C 76.800 356.252,79.590 358.590,80.800 359.603 C 82.010 360.616,83.810 361.954,84.800 362.576 C 85.790 363.199,87.860 364.662,89.400 365.829 C 92.062 367.845,94.675 369.517,103.103 374.597 C 107.843 377.455,125.280 385.772,129.200 387.046 C 130.850 387.582,133.370 388.453,134.800 388.981 C 138.987 390.529,145.052 392.426,149.584 393.605 C 151.903 394.208,154.790 394.984,156.000 395.328 C 157.210 395.673,160.090 396.131,162.400 396.346 C 165.147 396.602,167.536 397.093,169.306 397.767 C 173.386 399.321,178.442 399.593,203.200 399.593 C 228.509 399.593,232.668 399.354,237.600 397.615 C 239.470 396.955,241.752 396.412,242.671 396.408 C 245.469 396.395,250.417 395.582,252.567 394.783 C 253.685 394.367,255.860 393.742,257.400 393.395 C 260.366 392.726,267.266 390.581,271.600 388.980 C 273.030 388.452,275.550 387.581,277.200 387.044 C 280.666 385.916,297.654 377.963,301.796 375.530 C 311.500 369.828,320.478 363.746,326.492 358.800 C 328.498 357.150,331.682 354.544,333.567 353.008 C 337.985 349.411,349.411 337.985,353.008 333.567 C 354.544 331.682,357.150 328.498,358.800 326.492 C 363.746 320.478,369.828 311.500,375.530 301.796 C 377.963 297.654,385.916 280.666,387.044 277.200 C 387.581 275.550,388.452 273.030,388.980 271.600 C 390.581 267.266,392.726 260.366,393.395 257.400 C 393.742 255.860,394.367 253.685,394.783 252.567 C 395.582 250.417,396.395 245.469,396.408 242.671 C 396.412 241.752,396.955 239.470,397.615 237.600 C 399.354 232.668,399.593 228.509,399.593 203.200 C 399.593 178.442,399.321 173.386,397.767 169.306 C 397.093 167.536,396.602 165.147,396.346 162.400 C 396.131 160.090,395.673 157.210,395.328 156.000 C 394.984 154.790,394.208 151.903,393.605 149.584 C 392.426 145.052,390.529 138.987,388.981 134.800 C 388.453 133.370,387.582 130.850,387.046 129.200 C 385.772 125.280,377.455 107.843,374.597 103.103 C 369.517 94.675,367.845 92.062,365.829 89.400 C 364.662 87.860,363.199 85.790,362.576 84.800 C 361.954 83.810,360.616 82.010,359.603 80.800 C 358.590 79.590,356.252 76.800,354.407 74.600 C 342.431 60.317,324.317 44.460,310.947 36.556 C 309.239 35.546,307.293 34.314,306.621 33.816 C 303.377 31.415,287.014 23.213,280.000 20.473 C 272.525 17.552,261.266 13.844,257.400 13.030 C 255.860 12.705,253.520 12.063,252.200 11.602 C 250.880 11.141,247.910 10.584,245.600 10.365 C 242.951 10.114,240.066 9.526,237.788 8.774 C 235.457 8.005,232.690 7.448,229.988 7.204 C 224.959 6.751,180.914 6.775,175.787 7.233 M112.589 96.205 C 126.926 99.242,135.588 112.523,135.598 131.486 C 135.611 154.405,124.350 167.757,105.000 167.768 C 85.440 167.779,74.359 154.886,74.259 132.000 C 74.145 106.029,89.828 91.383,112.589 96.205 M319.223 96.000 C 320.005 96.217,321.175 96.948,321.823 97.623 L 323.000 98.852 323.200 125.126 C 323.441 156.728,322.681 153.895,331.044 154.396 C 337.712 154.795,339.598 156.319,339.599 161.313 C 339.601 168.096,340.044 167.982,313.600 167.982 C 287.156 167.982,287.599 168.096,287.601 161.313 C 287.602 156.291,289.346 154.800,295.678 154.408 C 303.969 153.894,303.373 155.487,303.523 133.458 C 303.695 108.246,303.842 108.657,295.359 110.624 C 289.709 111.934,286.811 109.821,286.802 104.385 C 286.795 99.693,290.377 97.371,299.735 96.002 C 302.834 95.548,317.592 95.547,319.223 96.000 M101.800 109.760 C 96.588 112.057,95.400 116.110,95.400 131.600 C 95.400 146.925,96.693 151.292,101.869 153.455 C 111.268 157.382,116.569 144.560,114.460 123.000 C 113.410 112.256,108.289 106.900,101.800 109.760 M337.572 190.301 C 340.627 191.859,340.586 191.645,340.715 206.752 C 340.874 225.439,341.082 225.000,332.051 225.000 C 323.879 225.000,323.248 224.420,323.088 216.764 C 322.974 211.338,322.594 210.060,320.671 208.636 L 319.541 207.800 214.871 207.800 C 157.302 207.800,109.369 207.942,108.354 208.116 C 105.062 208.681,104.850 209.072,106.216 212.051 C 107.354 214.529,107.392 214.821,107.593 222.534 L 107.800 230.467 109.075 231.605 C 109.869 232.315,110.999 232.837,112.075 232.991 C 113.580 233.207,343.284 232.934,364.019 232.692 C 375.535 232.557,375.597 232.619,375.597 244.400 C 375.597 252.848,375.322 254.064,373.150 255.227 C 372.462 255.595,342.338 255.687,241.974 255.628 C 98.730 255.543,109.568 255.355,108.227 257.949 C 107.730 258.908,107.600 260.565,107.600 265.908 C 107.600 277.740,106.278 279.525,97.665 279.321 C 93.501 279.222,91.798 278.436,90.400 275.967 L 89.400 274.200 89.400 244.600 L 89.400 215.000 90.573 212.460 C 92.400 208.502,91.814 208.117,83.371 207.727 C 77.097 207.438,74.635 207.893,72.948 209.655 L 71.800 210.852 71.697 243.926 C 71.582 280.909,71.431 278.861,74.400 280.586 C 76.112 281.581,84.156 281.689,93.600 280.843 C 98.071 280.443,100.312 280.427,103.381 280.773 C 110.371 281.561,318.850 281.402,320.386 280.607 C 322.435 279.548,322.921 278.023,323.065 272.200 C 323.258 264.419,323.936 263.800,332.271 263.800 C 341.059 263.800,340.883 263.417,340.719 282.190 C 340.586 297.370,340.568 297.469,337.731 298.655 C 335.519 299.579,59.261 299.456,57.310 298.530 C 54.217 297.063,54.419 300.827,54.409 244.487 C 54.399 191.002,54.335 192.828,56.302 191.077 C 56.749 190.679,57.628 190.200,58.257 190.011 C 60.810 189.246,336.063 189.531,337.572 190.301 " stroke="none" fill="#5cec4b" fill-rule="evenodd"></path><path id="path1" d="M97.670 96.048 C 83.154 98.462,74.172 112.255,74.259 132.000 C 74.359 154.886,85.440 167.779,105.000 167.768 C 124.350 167.757,135.611 154.405,135.598 131.486 C 135.584 106.259,120.578 92.238,97.670 96.048 M299.735 96.002 C 290.377 97.371,286.795 99.693,286.802 104.385 C 286.811 109.821,289.709 111.934,295.359 110.624 C 303.842 108.657,303.695 108.246,303.523 133.458 C 303.373 155.487,303.969 153.894,295.678 154.408 C 289.346 154.800,287.602 156.291,287.601 161.313 C 287.599 168.096,287.156 167.982,313.600 167.982 C 340.044 167.982,339.601 168.096,339.599 161.313 C 339.598 156.319,337.712 154.795,331.044 154.396 C 322.681 153.895,323.441 156.728,323.200 125.126 L 323.000 98.852 321.823 97.623 C 321.175 96.948,320.005 96.217,319.223 96.000 C 317.592 95.547,302.834 95.548,299.735 96.002 M108.409 110.100 C 113.436 112.643,115.148 119.356,114.660 134.600 C 114.382 143.294,113.938 145.944,112.240 149.037 C 107.970 156.820,99.133 155.266,96.291 146.234 C 95.041 142.258,94.928 121.342,96.135 117.400 C 98.270 110.433,103.233 107.481,108.409 110.100 M58.257 190.011 C 57.628 190.200,56.749 190.679,56.302 191.077 C 54.335 192.828,54.399 191.002,54.409 244.487 C 54.419 300.827,54.217 297.063,57.310 298.530 C 59.261 299.456,335.519 299.579,337.731 298.655 C 340.568 297.469,340.586 297.370,340.719 282.190 C 340.883 263.417,341.059 263.800,332.271 263.800 C 323.936 263.800,323.258 264.419,323.065 272.200 C 322.921 278.023,322.435 279.548,320.386 280.607 C 318.850 281.402,110.371 281.561,103.381 280.773 C 100.312 280.427,98.071 280.443,93.600 280.843 C 84.156 281.689,76.112 281.581,74.400 280.586 C 71.431 278.861,71.582 280.909,71.697 243.926 L 71.800 210.852 72.948 209.655 C 74.635 207.893,77.097 207.438,83.371 207.727 C 91.814 208.117,92.400 208.502,90.573 212.460 L 89.400 215.000 89.400 244.600 L 89.400 274.200 90.400 275.967 C 91.798 278.436,93.501 279.222,97.665 279.321 C 106.278 279.525,107.600 277.740,107.600 265.908 C 107.600 260.565,107.730 258.908,108.227 257.949 C 109.568 255.355,98.730 255.543,241.974 255.628 C 342.338 255.687,372.462 255.595,373.150 255.227 C 375.322 254.064,375.597 252.848,375.597 244.400 C 375.597 232.619,375.535 232.557,364.019 232.692 C 343.284 232.934,113.580 233.207,112.075 232.991 C 110.999 232.837,109.869 232.315,109.075 231.605 L 107.800 230.467 107.593 222.534 C 107.392 214.821,107.354 214.529,106.216 212.051 C 104.850 209.072,105.062 208.681,108.354 208.116 C 109.369 207.942,157.302 207.800,214.871 207.800 L 319.541 207.800 320.671 208.636 C 322.594 210.060,322.974 211.338,323.088 216.764 C 323.248 224.420,323.879 225.000,332.051 225.000 C 341.082 225.000,340.874 225.439,340.715 206.752 C 340.586 191.645,340.627 191.859,337.572 190.301 C 336.063 189.531,60.810 189.246,58.257 190.011 " stroke="none" fill="#f1fbf0" fill-rule="evenodd"></path></g></svg>