<svg id="svg" version="1.1" xmlns="http://www.w3.org/2000/svg" xmlns:xlink="http://www.w3.org/1999/xlink" width="400" height="400" viewBox="0, 0, 400,400"><g id="svgg"><path id="path0" d="M165.530 0.815 C 164.281 1.219,161.491 1.746,159.330 1.987 C 155.092 2.459,153.315 2.847,150.200 3.979 C 149.100 4.379,146.850 4.985,145.200 5.325 C 143.550 5.664,140.820 6.495,139.133 7.171 C 137.447 7.847,135.847 8.400,135.578 8.400 C 129.629 8.400,97.357 24.067,84.744 33.078 C 82.905 34.392,80.230 36.289,78.800 37.294 C 45.244 60.871,14.410 106.104,5.241 145.206 C 4.803 147.073,4.156 149.410,3.803 150.400 C 2.879 152.993,2.467 155.028,1.977 159.424 C 1.739 161.561,1.199 164.409,0.777 165.754 C -0.419 169.570,-0.420 231.342,0.777 235.258 C 1.204 236.656,1.668 238.970,1.809 240.400 C 2.238 244.768,2.793 247.663,3.804 250.800 C 4.336 252.450,5.071 255.145,5.438 256.789 C 5.805 258.432,6.445 260.571,6.860 261.540 C 7.276 262.510,8.047 264.765,8.575 266.552 C 14.440 286.423,28.505 312.363,42.254 328.667 C 44.263 331.050,47.323 334.703,49.054 336.784 C 52.904 341.415,59.064 347.589,63.833 351.598 C 65.795 353.247,69.304 356.236,71.632 358.240 C 73.959 360.244,77.289 362.840,79.032 364.009 C 80.774 365.178,83.190 366.885,84.400 367.803 C 100.518 380.029,128.226 392.437,152.609 398.349 L 159.418 400.000 200.213 400.000 L 241.009 400.000 249.404 397.840 C 273.515 391.636,295.919 381.668,313.800 369.189 C 315.340 368.115,318.400 365.982,320.600 364.450 C 322.800 362.918,325.713 360.705,327.073 359.532 C 328.433 358.359,331.673 355.607,334.273 353.416 C 340.598 348.085,348.926 339.670,353.689 333.796 C 355.829 331.158,358.584 327.830,359.812 326.400 C 361.040 324.970,362.870 322.540,363.878 321.000 C 364.887 319.460,366.568 317.030,367.613 315.600 C 372.853 308.434,381.110 293.296,386.487 281.000 C 388.234 277.004,394.586 258.166,395.186 255.200 C 395.431 253.990,396.073 251.600,396.613 249.888 C 397.153 248.176,397.855 244.576,398.173 241.888 C 398.491 239.200,399.032 236.212,399.376 235.250 C 400.319 232.605,400.308 168.318,399.364 165.606 C 399.020 164.619,398.487 161.777,398.178 159.291 C 397.870 156.805,397.323 153.743,396.962 152.486 C 396.602 151.229,395.814 148.310,395.210 146.000 C 393.941 141.141,392.109 135.370,390.165 130.104 C 389.414 128.072,388.800 126.209,388.800 125.966 C 388.800 123.926,379.274 104.407,373.711 95.049 C 349.535 54.378,308.071 21.282,265.400 8.596 C 263.640 8.072,260.670 7.097,258.800 6.427 C 256.930 5.758,255.100 5.208,254.733 5.205 C 254.366 5.202,252.116 4.592,249.733 3.848 C 247.253 3.074,243.604 2.294,241.200 2.023 C 238.890 1.763,235.856 1.201,234.458 0.775 C 230.635 -0.390,169.144 -0.355,165.530 0.815 M230.182 104.167 C 232.822 105.270,232.975 105.884,233.220 116.381 C 233.589 132.152,230.503 130.795,266.006 130.798 C 299.490 130.801,297.002 129.933,296.998 141.600 C 296.994 152.697,299.889 151.750,265.200 152.000 C 234.306 152.222,235.642 152.097,234.107 154.907 C 233.109 156.733,233.010 204.643,234.000 206.564 C 235.551 209.573,233.552 209.376,264.929 209.600 C 299.986 209.850,297.000 208.863,297.000 220.200 C 297.000 231.576,300.069 230.553,265.200 230.800 C 230.002 231.049,233.543 229.655,233.206 243.400 C 232.898 255.959,234.620 254.959,213.000 255.127 C 194.415 255.272,190.597 255.007,182.754 253.032 C 153.215 245.592,132.900 224.596,125.835 194.204 C 124.066 186.595,123.213 186.080,115.829 188.163 C 106.293 190.852,105.120 191.612,95.134 201.564 L 86.469 210.200 83.230 216.919 C 80.686 222.197,79.899 224.256,79.563 226.519 C 79.328 228.104,78.610 231.049,77.968 233.065 C 76.547 237.522,76.505 239.598,77.766 242.949 C 78.298 244.361,78.944 246.930,79.202 248.658 C 81.421 263.520,100.001 285.076,113.637 288.610 C 115.046 288.975,117.248 289.715,118.531 290.255 C 119.814 290.795,122.416 291.427,124.314 291.659 C 126.344 291.907,129.090 292.600,130.983 293.340 L 134.200 294.600 213.871 294.800 L 293.541 295.000 294.671 295.836 C 298.378 298.580,297.816 306.973,293.789 309.000 C 292.215 309.792,291.404 309.800,208.800 309.800 L 125.400 309.800 121.600 308.520 C 119.510 307.817,116.810 307.118,115.600 306.969 C 112.405 306.573,100.970 302.732,97.112 300.759 C 92.749 298.527,73.283 279.409,70.476 274.600 C 67.063 268.752,64.432 262.365,63.952 258.767 C 63.690 256.805,62.981 254.149,62.251 252.400 L 61.000 249.400 61.000 238.600 L 61.000 227.800 62.134 225.011 C 62.757 223.478,63.520 220.598,63.828 218.611 C 64.324 215.418,64.803 214.166,67.963 207.800 L 71.538 200.600 83.269 188.952 C 96.042 176.270,97.212 175.401,104.259 173.372 C 105.547 173.001,107.864 172.199,109.409 171.589 C 110.955 170.979,113.295 170.348,114.609 170.186 C 121.728 169.310,125.275 166.303,126.977 159.703 C 134.498 130.527,160.517 107.973,191.200 104.035 C 196.052 103.412,228.640 103.522,230.182 104.167 " stroke="none" fill="#5cec4b" fill-rule="evenodd"></path><path id="path1" d="M191.200 104.035 C 160.517 107.973,134.498 130.527,126.977 159.703 C 125.275 166.303,121.728 169.310,114.609 170.186 C 113.295 170.348,110.955 170.979,109.409 171.589 C 107.864 172.199,105.547 173.001,104.259 173.372 C 97.212 175.401,96.042 176.270,83.269 188.952 L 71.538 200.600 67.963 207.800 C 64.803 214.166,64.324 215.418,63.828 218.611 C 63.520 220.598,62.757 223.478,62.134 225.011 L 61.000 227.800 61.000 238.600 L 61.000 249.400 62.251 252.400 C 62.981 254.149,63.690 256.805,63.952 258.767 C 64.432 262.365,67.063 268.752,70.476 274.600 C 73.283 279.409,92.749 298.527,97.112 300.759 C 100.970 302.732,112.405 306.573,115.600 306.969 C 116.810 307.118,119.510 307.817,121.600 308.520 L 125.400 309.800 208.800 309.800 C 291.404 309.800,292.215 309.792,293.789 309.000 C 297.816 306.973,298.378 298.580,294.671 295.836 L 293.541 295.000 213.871 294.800 L 134.200 294.600 130.983 293.340 C 129.090 292.600,126.344 291.907,124.314 291.659 C 122.416 291.427,119.814 290.795,118.531 290.255 C 117.248 289.715,115.046 288.975,113.637 288.610 C 106.548 286.773,101.255 282.687,90.191 270.512 C 84.878 264.666,80.204 255.370,79.202 248.658 C 78.944 246.930,78.298 244.361,77.766 242.949 C 76.505 239.598,76.547 237.522,77.968 233.065 C 78.610 231.049,79.328 228.104,79.563 226.519 C 79.899 224.256,80.686 222.197,83.230 216.919 L 86.469 210.200 95.134 201.564 C 105.120 191.612,106.293 190.852,115.829 188.163 C 123.213 186.080,124.066 186.595,125.835 194.204 C 132.900 224.596,153.215 245.592,182.754 253.032 C 190.597 255.007,194.415 255.272,213.000 255.127 C 234.620 254.959,232.898 255.959,233.206 243.400 C 233.543 229.655,230.002 231.049,265.200 230.800 C 300.069 230.553,297.000 231.576,297.000 220.200 C 297.000 208.863,299.986 209.850,264.929 209.600 C 233.552 209.376,235.551 209.573,234.000 206.564 C 233.010 204.643,233.109 156.733,234.107 154.907 C 235.642 152.097,234.306 152.222,265.200 152.000 C 299.889 151.750,296.994 152.697,296.998 141.600 C 297.002 129.933,299.490 130.801,266.006 130.798 C 230.503 130.795,233.589 132.152,233.220 116.381 C 232.975 105.884,232.822 105.270,230.182 104.167 C 228.640 103.522,196.052 103.412,191.200 104.035 " stroke="none" fill="#f9fcf9" fill-rule="evenodd"></path></g></svg>