<svg id="svg" version="1.1" xmlns="http://www.w3.org/2000/svg" xmlns:xlink="http://www.w3.org/1999/xlink" width="400" height="400" viewBox="0, 0, 400,400"><g id="svgg"><path id="path0" d="M191.000 22.228 C 188.778 23.381,187.390 25.004,175.842 39.948 C 170.348 47.057,170.601 49.821,177.017 52.785 C 181.723 54.960,182.360 56.003,182.861 62.365 C 183.454 69.881,183.090 175.411,182.465 177.288 C 181.740 179.464,180.230 181.045,178.089 181.871 C 175.585 182.837,59.396 183.023,56.690 182.066 C 54.467 181.279,52.977 179.846,51.342 176.923 C 47.540 170.124,46.450 170.533,26.274 186.327 C 16.423 194.039,17.024 196.217,32.042 207.223 C 46.210 217.606,48.502 217.998,51.355 210.523 C 52.607 207.241,54.601 205.115,57.072 204.429 C 59.264 203.820,175.196 203.837,177.391 204.446 C 179.486 205.028,181.785 207.372,182.462 209.615 C 183.256 212.248,183.260 323.066,182.466 325.310 C 181.604 327.745,180.067 329.190,176.559 330.865 C 169.648 334.164,169.950 335.572,180.509 349.287 C 193.408 366.043,193.941 366.050,206.004 349.595 C 215.866 336.142,216.376 334.204,210.833 331.250 C 207.569 329.510,206.028 328.145,205.152 326.217 C 204.282 324.302,203.968 212.571,204.824 209.489 C 205.422 207.336,207.302 205.377,209.483 204.634 C 211.769 203.855,318.141 203.655,320.911 204.424 C 323.834 205.236,325.152 206.911,327.031 212.200 C 329.386 218.831,332.284 218.214,345.134 208.345 C 362.485 195.019,362.504 194.334,345.864 182.195 C 332.525 172.465,330.403 171.804,327.315 176.410 C 322.715 183.273,329.468 182.600,265.189 182.600 L 210.579 182.600 208.589 181.578 C 207.157 180.843,206.320 180.059,205.600 178.778 L 204.600 177.000 204.486 118.400 C 204.352 49.715,203.826 55.807,210.164 52.600 C 216.846 49.220,216.361 47.469,204.271 31.308 C 197.105 21.730,194.885 20.211,191.000 22.228 M239.125 81.808 C 232.943 83.792,233.528 85.671,246.409 105.200 C 259.283 124.719,258.401 122.433,258.749 137.200 C 259.115 152.726,259.987 154.200,268.800 154.200 C 277.628 154.200,278.482 152.756,278.841 137.224 C 279.184 122.416,278.101 125.090,292.530 103.426 C 301.029 90.665,302.390 88.253,302.396 85.931 C 302.405 82.644,298.560 80.904,292.167 81.302 C 285.857 81.695,283.974 83.160,277.545 92.684 C 269.823 104.123,267.926 104.101,260.243 92.476 C 253.897 82.876,252.107 81.567,245.000 81.336 C 242.220 81.246,240.428 81.389,239.125 81.808 M88.104 85.188 C 83.937 87.079,84.343 89.735,90.099 98.249 C 92.312 101.522,95.803 106.686,97.857 109.724 C 104.891 120.128,104.898 120.088,93.204 137.194 C 85.360 148.668,84.400 150.323,84.400 152.368 C 84.400 155.834,87.035 157.391,92.858 157.367 C 99.562 157.340,102.168 155.541,108.076 146.860 C 115.805 135.506,118.164 135.442,125.800 146.380 C 132.209 155.560,134.791 157.353,141.600 157.351 C 152.243 157.349,152.481 153.802,142.793 139.600 C 128.571 118.753,128.728 121.073,140.384 104.026 C 150.313 89.506,151.055 86.601,145.277 84.870 C 137.402 82.511,131.856 85.117,125.399 94.212 C 117.920 104.745,115.827 104.618,107.896 93.152 C 104.592 88.377,101.825 85.817,99.089 85.004 C 96.100 84.116,90.248 84.214,88.104 85.188 M87.000 225.974 C 83.101 226.923,81.487 228.966,81.696 232.687 C 82.000 238.088,84.029 238.897,98.000 239.183 C 109.674 239.422,110.726 239.645,111.927 242.132 C 113.135 244.630,112.310 245.884,96.359 265.800 C 89.487 274.380,83.172 282.467,82.327 283.770 C 77.726 290.862,79.187 297.787,85.573 299.157 C 88.450 299.774,135.168 299.770,138.047 299.153 C 143.952 297.886,145.691 290.956,140.889 287.826 C 138.637 286.359,135.555 286.000,125.199 286.000 C 104.689 286.000,104.681 286.057,129.527 255.461 C 140.401 242.071,142.138 239.343,142.673 234.804 C 143.160 230.684,140.797 226.998,137.068 226.059 C 135.016 225.542,89.094 225.464,87.000 225.974 M265.455 235.386 C 258.865 237.735,258.328 249.743,264.674 252.844 C 270.120 255.506,277.082 253.326,278.739 248.440 C 281.800 239.414,274.442 232.182,265.455 235.386 M264.983 263.152 C 259.044 265.850,258.549 276.688,264.205 280.200 C 271.395 284.665,279.216 280.198,279.191 271.640 C 279.169 264.088,272.152 259.896,264.983 263.152 M267.087 289.213 C 258.775 291.299,257.497 304.524,265.293 307.781 C 272.419 310.758,279.173 306.588,279.189 299.200 C 279.206 291.499,274.255 287.414,267.087 289.213 " stroke="none" fill="#f4fbf4" fill-rule="evenodd"></path><path id="path1" d="M153.000 0.386 C 128.253 6.787,110.767 13.787,93.200 24.324 C 47.516 51.725,15.999 94.056,1.978 146.846 L 0.000 154.292 0.000 199.395 L 0.000 244.498 1.802 251.388 C 15.551 303.940,45.771 344.913,92.000 373.676 C 107.575 383.366,131.576 393.697,147.000 397.348 C 148.320 397.661,151.175 398.385,153.344 398.958 L 157.288 400.000 199.779 400.000 L 242.270 400.000 249.235 398.210 C 304.067 384.123,349.379 350.410,376.395 303.600 C 380.171 297.056,387.441 282.217,389.720 276.400 C 391.700 271.348,396.921 255.824,397.389 253.600 C 397.551 252.830,398.205 250.324,398.842 248.031 L 400.000 243.861 400.000 199.506 L 400.000 155.150 398.375 149.075 C 381.170 84.734,339.549 36.063,280.491 11.222 C 275.418 9.088,260.708 4.185,252.000 1.725 L 246.600 0.200 200.400 0.138 C 174.990 0.103,153.660 0.215,153.000 0.386 M197.148 22.808 C 198.795 24.001,207.469 35.209,211.922 41.898 C 215.655 47.505,215.240 50.033,210.164 52.600 C 203.826 55.807,204.352 49.715,204.486 118.400 L 204.600 177.000 205.600 178.778 C 206.320 180.059,207.157 180.843,208.589 181.578 L 210.579 182.600 265.189 182.600 C 329.468 182.600,322.715 183.273,327.315 176.410 C 330.403 171.804,332.525 172.465,345.864 182.195 C 362.504 194.334,362.485 195.019,345.134 208.345 C 332.284 218.214,329.386 218.831,327.031 212.200 C 325.152 206.911,323.834 205.236,320.911 204.424 C 318.141 203.655,211.769 203.855,209.483 204.634 C 207.302 205.377,205.422 207.336,204.824 209.489 C 203.968 212.571,204.282 324.302,205.152 326.217 C 206.028 328.145,207.569 329.510,210.833 331.250 C 216.376 334.204,215.866 336.142,206.004 349.595 C 193.941 366.050,193.408 366.043,180.509 349.287 C 169.950 335.572,169.648 334.164,176.559 330.865 C 180.067 329.190,181.604 327.745,182.466 325.310 C 183.260 323.066,183.256 212.248,182.462 209.615 C 181.785 207.372,179.486 205.028,177.391 204.446 C 175.196 203.837,59.264 203.820,57.072 204.429 C 54.601 205.115,52.607 207.241,51.355 210.523 C 48.502 217.998,46.210 217.606,32.042 207.223 C 17.024 196.217,16.423 194.039,26.274 186.327 C 46.450 170.533,47.540 170.124,51.342 176.923 C 52.977 179.846,54.467 181.279,56.690 182.066 C 59.396 183.023,175.585 182.837,178.089 181.871 C 180.230 181.045,181.740 179.464,182.465 177.288 C 183.090 175.411,183.454 69.881,182.861 62.365 C 182.360 56.003,181.723 54.960,177.017 52.785 C 170.601 49.821,170.348 47.057,175.842 39.948 C 191.051 20.266,192.277 19.280,197.148 22.808 M251.000 82.353 C 253.949 83.660,255.639 85.511,260.243 92.476 C 267.926 104.101,269.823 104.123,277.545 92.684 C 283.974 83.160,285.857 81.695,292.167 81.302 C 298.560 80.904,302.405 82.644,302.396 85.931 C 302.390 88.253,301.029 90.665,292.530 103.426 C 278.101 125.090,279.184 122.416,278.841 137.224 C 278.482 152.756,277.628 154.200,268.800 154.200 C 259.987 154.200,259.115 152.726,258.749 137.200 C 258.401 122.433,259.283 124.719,246.409 105.200 C 234.661 87.388,234.172 86.324,236.425 83.459 C 238.297 81.079,246.691 80.443,251.000 82.353 M99.089 85.004 C 101.825 85.817,104.592 88.377,107.896 93.152 C 115.827 104.618,117.920 104.745,125.399 94.212 C 131.856 85.117,137.402 82.511,145.277 84.870 C 151.055 86.601,150.313 89.506,140.384 104.026 C 129.916 119.335,129.730 120.404,135.943 129.546 C 137.234 131.446,140.316 135.970,142.793 139.600 C 152.481 153.802,152.243 157.349,141.600 157.351 C 134.791 157.353,132.209 155.560,125.800 146.380 C 118.164 135.442,115.805 135.506,108.076 146.860 C 102.168 155.541,99.562 157.340,92.858 157.367 C 87.035 157.391,84.400 155.834,84.400 152.368 C 84.400 150.323,85.360 148.668,93.204 137.194 C 104.898 120.088,104.891 120.128,97.857 109.724 C 95.803 106.686,92.312 101.522,90.099 98.249 C 84.343 89.735,83.937 87.079,88.104 85.188 C 90.248 84.214,96.100 84.116,99.089 85.004 M137.068 226.059 C 140.797 226.998,143.160 230.684,142.673 234.804 C 142.138 239.343,140.401 242.071,129.527 255.461 C 104.681 286.057,104.689 286.000,125.199 286.000 C 135.555 286.000,138.637 286.359,140.889 287.826 C 145.691 290.956,143.952 297.886,138.047 299.153 C 135.168 299.770,88.450 299.774,85.573 299.157 C 79.187 297.787,77.726 290.862,82.327 283.770 C 83.172 282.467,89.487 274.380,96.359 265.800 C 112.310 245.884,113.135 244.630,111.927 242.132 C 110.726 239.645,109.674 239.422,98.000 239.183 C 84.029 238.897,82.000 238.088,81.696 232.687 C 81.487 228.966,83.101 226.923,87.000 225.974 C 89.094 225.464,135.016 225.542,137.068 226.059 M273.688 235.218 C 280.623 237.144,281.480 249.641,274.897 252.859 C 267.826 256.314,260.827 252.574,260.472 245.149 C 260.081 236.971,265.456 232.932,273.688 235.218 M274.307 263.019 C 281.025 265.826,281.161 277.648,274.510 280.693 C 265.918 284.626,257.976 277.268,260.766 267.957 C 262.161 263.299,269.004 260.803,274.307 263.019 M274.755 289.977 C 281.177 293.253,280.881 305.034,274.307 307.781 C 265.582 311.426,258.170 304.246,260.818 294.712 C 262.192 289.763,269.481 287.286,274.755 289.977 " stroke="none" fill="#5fee49" fill-rule="evenodd"></path></g></svg>