<?xml version="1.0" encoding="UTF-8" standalone="no"?>
<svg
   xmlns:dc="http://purl.org/dc/elements/1.1/"
   xmlns:cc="http://creativecommons.org/ns#"
   xmlns:rdf="http://www.w3.org/1999/02/22-rdf-syntax-ns#"
   xmlns:svg="http://www.w3.org/2000/svg"
   xmlns="http://www.w3.org/2000/svg"
   viewBox="0 0 64 64"
   height="64"
   width="64"
   id="svg2"
   version="1.1">
  <metadata
     id="metadata8">
    <rdf:RDF>
      <cc:Work
         rdf:about="">
        <dc:format>image/svg+xml</dc:format>
        <dc:type
           rdf:resource="http://purl.org/dc/dcmitype/StillImage" />
        <dc:title></dc:title>
      </cc:Work>
    </rdf:RDF>
  </metadata>
  <defs
     id="defs6" />
  <g
     transform="matrix(3.6182849,0,0,3.5380941,1.2040574,2.0649383)"
     id="layer1">
    <g
       style="stroke-width:1.31035995"
       transform="matrix(0.20232182,0,0,0.20151218,2.4489918,0.32264121)"
       id="layer1-5">
      <g
         id="text2117"
         style="font-size:25.07789993px;line-height:1.25;font-family:sans-serif;letter-spacing:0px;word-spacing:0px;fill:#ff0000;fill-opacity:1;stroke:#7f0000;stroke-width:0.65517998;stroke-miterlimit:4;stroke-dasharray:none;stroke-opacity:1"
         transform="scale(0.99432608,1.0057063)"
         aria-label="MY">
        <path
           id="path70"
           style="font-size:25.07789993px;fill:#ff0000;fill-opacity:1;stroke:#7f0000;stroke-width:0.65517998;stroke-miterlimit:4;stroke-dasharray:none;stroke-opacity:1"
           d="m 11.663434,16.785229 h 3.685765 l 4.665371,12.440989 4.689862,-12.440989 h 3.685765 V 35.067116 H 25.977919 V 19.013831 l -4.714352,12.53895 h -2.485748 l -4.714352,-12.53895 v 16.053285 h -2.400033 z" />
        <path
           id="path72"
           style="font-size:25.07789993px;fill:#ff0000;fill-opacity:1;stroke:#7f0000;stroke-width:0.65517998;stroke-miterlimit:4;stroke-dasharray:none;stroke-opacity:1"
           d="m 30.802475,16.785229 h 2.65718 l 5.069459,7.518472 5.032723,-7.518472 h 2.657179 l -6.465396,9.575643 v 8.706244 h -2.485749 v -8.706244 z" />
      </g>
      <g
         id="text8881"
         style="font-size:85.33329773px;line-height:1.25;font-family:sans-serif;letter-spacing:0px;word-spacing:0px;stroke-width:1.31035995" />
    </g>
    <g
       transform="matrix(0.26458333,0,0,0.26458333,-0.65135585,2.4039292)"
       id="layer1-6">
      <g
         id="text2117-4"
         style="font-size:19.07489967px;line-height:1.25;font-family:sans-serif;letter-spacing:0px;word-spacing:0px;fill:#ff0000;fill-opacity:1;stroke:#7f0000;stroke-width:0.5;stroke-miterlimit:4;stroke-dasharray:none;stroke-opacity:1"
         transform="scale(0.99440031,1.0056312)"
         aria-label="STRAN">
        <path
           id="path76"
           style="font-size:19.07489967px;fill:#ff0000;fill-opacity:1;stroke:#7f0000;stroke-width:0.5;stroke-miterlimit:4;stroke-dasharray:none;stroke-opacity:1"
           d="m 13.56202,26.850091 v 1.834841 q -1.0711,-0.512265 -2.02112,-0.763741 -0.950019,-0.251476 -1.834841,-0.251476 -1.5367961,0 -2.3750485,0.596091 -0.8289386,0.59609 -0.8289386,1.695132 0,0.922078 0.5495211,1.397088 0.5588349,0.465696 2.104945,0.754427 l 1.136298,0.232848 q 2.104945,0.400498 3.101534,1.415715 1.005903,1.005903 1.005903,2.701036 0,2.021119 -1.359832,3.064278 -1.350518,1.043159 -3.9677283,1.043159 -0.9872751,0 -2.104945,-0.223534 -1.108356,-0.223534 -2.3005372,-0.661288 v -1.937295 q 1.1456117,0.64266 2.2446537,0.968647 1.0990421,0.325987 2.1608285,0.325987 1.6113073,0 2.4868153,-0.633346 0.875508,-0.633346 0.875508,-1.8069 0,-1.02453 -0.633346,-1.601993 -0.624032,-0.577463 -2.0583753,-0.866194 L 8.597703,33.910039 Q 6.492758,33.490913 5.5520525,32.596777 4.611347,31.702641 4.611347,30.109961 q 0,-1.844155 1.2946343,-2.905942 1.3039482,-1.061786 3.5858576,-1.061786 0.9779611,0 1.9931781,0.176964 1.015217,0.176965 2.077003,0.530894 z" />
        <path
           id="path78"
           style="font-size:19.07489967px;fill:#ff0000;fill-opacity:1;stroke:#7f0000;stroke-width:0.5;stroke-miterlimit:4;stroke-dasharray:none;stroke-opacity:1"
           d="m 15.406175,26.393709 h 11.763476 v 1.583365 H 22.233276 V 40.299385 H 20.342551 V 27.977074 h -4.936376 z" />
        <path
           id="path80"
           style="font-size:19.07489967px;fill:#ff0000;fill-opacity:1;stroke:#7f0000;stroke-width:0.5;stroke-miterlimit:4;stroke-dasharray:none;stroke-opacity:1"
           d="m 35.58943,33.779644 q 0.605404,0.204906 1.173553,0.875508 0.577463,0.670602 1.154925,1.844155 l 1.909353,3.800078 h -2.021119 l -1.778958,-3.56723 q -0.68923,-1.397087 -1.341204,-1.853469 -0.642661,-0.456382 -1.76033,-0.456382 h -2.049062 v 5.877081 H 28.995177 V 26.393709 h 4.247146 q 2.384362,0 3.557916,0.996589 1.173553,0.996589 1.173553,3.008395 0,1.313262 -0.614718,2.179456 -0.605405,0.866194 -1.769644,1.201495 z m -4.712842,-5.839825 v 4.936375 h 2.365735 q 1.359831,0 2.049061,-0.624032 0.698544,-0.633347 0.698544,-1.853469 0,-1.220123 -0.698544,-1.834842 -0.68923,-0.624032 -2.049061,-0.624032 z" />
        <path
           id="path82"
           style="font-size:19.07489967px;fill:#ff0000;fill-opacity:1;stroke:#7f0000;stroke-width:0.5;stroke-miterlimit:4;stroke-dasharray:none;stroke-opacity:1"
           d="m 46.123469,28.247178 -2.552013,6.920239 h 5.11334 z m -1.061786,-1.853469 h 2.132886 l 5.299619,13.905676 h -1.955923 l -1.266692,-3.56723 h -6.268266 l -1.266692,3.56723 h -1.983864 z" />
        <path
           id="path84"
           style="font-size:19.07489967px;fill:#ff0000;fill-opacity:1;stroke:#7f0000;stroke-width:0.5;stroke-miterlimit:4;stroke-dasharray:none;stroke-opacity:1"
           d="m 54.515307,26.393709 h 2.533385 L 63.214505,38.02679 V 26.393709 h 1.825527 V 40.299385 H 62.506647 L 56.340835,28.666304 v 11.633081 h -1.825528 z" />
      </g>
      <g
         id="text8881-3"
         style="font-size:85.33329773px;line-height:1.25;font-family:sans-serif;letter-spacing:0px;word-spacing:0px" />
    </g>
  </g>
</svg>
