<?xml version="1.0" encoding="UTF-8" standalone="no"?>
<!-- Created with Inkscape (http://www.inkscape.org/) -->

<svg
   xmlns:dc="http://purl.org/dc/elements/1.1/"
   xmlns:cc="http://creativecommons.org/ns#"
   xmlns:rdf="http://www.w3.org/1999/02/22-rdf-syntax-ns#"
   xmlns:svg="http://www.w3.org/2000/svg"
   xmlns="http://www.w3.org/2000/svg"
   xmlns:xlink="http://www.w3.org/1999/xlink"
   xmlns:sodipodi="http://sodipodi.sourceforge.net/DTD/sodipodi-0.dtd"
   xmlns:inkscape="http://www.inkscape.org/namespaces/inkscape"
   width="64px"
   height="64px"
   id="svg3140"
   sodipodi:version="0.32"
   inkscape:version="0.48.2 r9819"
   sodipodi:docname="FreeCAD05_Tango_Dialog-error.svg"
   inkscape:output_extension="org.inkscape.output.svg.inkscape"
   version="1.1">
  <defs
     id="defs3142">
    <linearGradient
       id="linearGradient3864">
      <stop
         id="stop3866"
         offset="0"
         style="stop-color:#71b2f8;stop-opacity:1;" />
      <stop
         id="stop3868"
         offset="1"
         style="stop-color:#002795;stop-opacity:1;" />
    </linearGradient>
    <radialGradient
       inkscape:collect="always"
       xlink:href="#linearGradient3864"
       id="radialGradient3661"
       gradientUnits="userSpaceOnUse"
       gradientTransform="matrix(0.6186598,0.9666542,-1.0332462,0.6612786,-327.27568,-255.84136)"
       cx="282.64584"
       cy="29.149046"
       fx="282.64584"
       fy="29.149046"
       r="19.571428" />
    <linearGradient
       id="linearGradient3682">
      <stop
         style="stop-color:#ff6d0f;stop-opacity:1;"
         offset="0"
         id="stop3684" />
      <stop
         style="stop-color:#ff1000;stop-opacity:1;"
         offset="1"
         id="stop3686" />
    </linearGradient>
    <radialGradient
       inkscape:collect="always"
       xlink:href="#linearGradient3682"
       id="radialGradient3817"
       gradientUnits="userSpaceOnUse"
       gradientTransform="matrix(1.1149219,0.2722306,-0.7507171,3.0745639,-471.08629,-148.32863)"
       cx="270.58316"
       cy="33.899986"
       fx="270.58316"
       fy="33.899986"
       r="19.571428" />
    <inkscape:perspective
       sodipodi:type="inkscape:persp3d"
       inkscape:vp_x="0 : 32 : 1"
       inkscape:vp_y="0 : 1000 : 0"
       inkscape:vp_z="64 : 32 : 1"
       inkscape:persp3d-origin="32 : 21.333333 : 1"
       id="perspective3148" />
    <linearGradient
       y2="15.814602"
       x2="20.917078"
       y1="33.955299"
       x1="21.993773"
       gradientUnits="userSpaceOnUse"
       id="linearGradient3982"
       xlink:href="#linearGradient3957"
       inkscape:collect="always"
       gradientTransform="matrix(1.6277635,0,0,1.59327,-47.479789,-29.643969)" />
    <linearGradient
       y2="-8.5626707"
       x2="20.064686"
       y1="53.835983"
       x1="43.93581"
       gradientUnits="userSpaceOnUse"
       id="linearGradient3980"
       xlink:href="#linearGradient2479"
       inkscape:collect="always"
       gradientTransform="matrix(1.6277635,0,0,1.59327,-54.241055,-34.607304)" />
    <linearGradient
       y2="5.5410109"
       x2="19.071495"
       y1="66.288063"
       x1="36.917976"
       gradientUnits="userSpaceOnUse"
       id="linearGradient3978"
       xlink:href="#linearGradient2536"
       inkscape:collect="always"
       gradientTransform="matrix(1.6277635,0,0,1.59327,-50.071217,-31.685919)" />
    <radialGradient
       r="17.142857"
       fy="40.000000"
       fx="23.857143"
       cy="40.000000"
       cx="23.857143"
       gradientTransform="matrix(1.6277635,0,0,0.79663502,-44.964781,0.63525877)"
       gradientUnits="userSpaceOnUse"
       id="radialGradient3976"
       xlink:href="#linearGradient4126"
       inkscape:collect="always" />
    <linearGradient
       gradientUnits="userSpaceOnUse"
       y2="15.814602"
       x2="20.917078"
       y1="33.955299"
       x1="21.993773"
       id="linearGradient3963"
       xlink:href="#linearGradient3957"
       inkscape:collect="always" />
    <linearGradient
       y2="-8.5626707"
       x2="20.064686"
       y1="53.835983"
       x1="43.93581"
       gradientUnits="userSpaceOnUse"
       id="linearGradient3066"
       xlink:href="#linearGradient2479"
       inkscape:collect="always" />
    <linearGradient
       y2="5.5410109"
       x2="19.071495"
       y1="66.288063"
       x1="36.917976"
       gradientUnits="userSpaceOnUse"
       id="linearGradient3064"
       xlink:href="#linearGradient2536"
       inkscape:collect="always" />
    <linearGradient
       y2="-8.5626707"
       x2="20.064686"
       y1="53.835983"
       x1="43.93581"
       gradientUnits="userSpaceOnUse"
       id="linearGradient3048"
       xlink:href="#linearGradient2479"
       inkscape:collect="always" />
    <linearGradient
       y2="5.5410109"
       x2="19.071495"
       y1="66.288063"
       x1="36.917976"
       gradientUnits="userSpaceOnUse"
       id="linearGradient3046"
       xlink:href="#linearGradient2536"
       inkscape:collect="always" />
    <linearGradient
       gradientUnits="userSpaceOnUse"
       y2="5.5410109"
       x2="19.071495"
       y1="66.288063"
       x1="36.917976"
       id="linearGradient2542"
       xlink:href="#linearGradient2536"
       inkscape:collect="always" />
    <linearGradient
       gradientUnits="userSpaceOnUse"
       y2="-8.5626707"
       x2="20.064686"
       y1="53.835983"
       x1="43.93581"
       id="linearGradient2485"
       xlink:href="#linearGradient2479"
       inkscape:collect="always" />
    <radialGradient
       r="17.142857"
       fy="40.000000"
       fx="23.857143"
       cy="40.000000"
       cx="23.857143"
       gradientTransform="matrix(1.000000,0.000000,0.000000,0.500000,1.899196e-14,20.00000)"
       gradientUnits="userSpaceOnUse"
       id="radialGradient2169"
       xlink:href="#linearGradient4126"
       inkscape:collect="always" />
    <linearGradient
       inkscape:collect="always"
       id="linearGradient4126">
      <stop
         style="stop-color:#000000;stop-opacity:1;"
         offset="0"
         id="stop4128" />
      <stop
         style="stop-color:#000000;stop-opacity:0;"
         offset="1"
         id="stop4130" />
    </linearGradient>
    <linearGradient
       id="linearGradient2479">
      <stop
         id="stop2481"
         offset="0"
         style="stop-color:#ffe69b;stop-opacity:1;" />
      <stop
         id="stop2483"
         offset="1"
         style="stop-color:#ffffff;stop-opacity:1;" />
    </linearGradient>
    <linearGradient
       id="linearGradient2536">
      <stop
         id="stop2538"
         offset="0"
         style="stop-color:#a40000;stop-opacity:1;" />
      <stop
         id="stop2540"
         offset="1"
         style="stop-color:#ff1717;stop-opacity:1;" />
    </linearGradient>
    <linearGradient
       id="linearGradient3957">
      <stop
         id="stop3959"
         offset="0"
         style="stop-color:#fffeff;stop-opacity:0.33333334;" />
      <stop
         id="stop3961"
         offset="1"
         style="stop-color:#fffeff;stop-opacity:0.21568628;" />
    </linearGradient>
    <linearGradient
       gradientTransform="matrix(1.0563358,0,0,1.0977261,-16.874103,-9.0758339)"
       gradientUnits="userSpaceOnUse"
       y2="48.301884"
       x2="30.85088"
       y1="30.281681"
       x1="8.5469341"
       id="linearGradient5250"
       xlink:href="#linearGradient6525"
       inkscape:collect="always" />
    <radialGradient
       inkscape:collect="always"
       xlink:href="#linearGradient4126-4"
       id="radialGradient7449"
       gradientUnits="userSpaceOnUse"
       gradientTransform="matrix(1,0,0,0.5,0,20)"
       cx="23.857143"
       cy="40"
       fx="23.857143"
       fy="40"
       r="17.142857" />
    <linearGradient
       inkscape:collect="always"
       id="linearGradient4126-4">
      <stop
         style="stop-color:#000000;stop-opacity:1;"
         offset="0"
         id="stop4128-0" />
      <stop
         style="stop-color:#000000;stop-opacity:0;"
         offset="1"
         id="stop4130-9" />
    </linearGradient>
    <linearGradient
       id="aigrd1"
       gradientUnits="userSpaceOnUse"
       x1="4.1914001"
       y1="11.1133"
       x2="47.319698"
       y2="56.052299">
      <stop
         offset="0"
         style="stop-color:#D4D4D4"
         id="stop6490" />
      <stop
         offset="0.3982"
         style="stop-color:#E2E2E2"
         id="stop6492" />
      <stop
         offset="1"
         style="stop-color:#FFFFFF"
         id="stop6494" />
    </linearGradient>
  </defs>
  <sodipodi:namedview
     id="base"
     pagecolor="#ffffff"
     bordercolor="#666666"
     borderopacity="1.0"
     inkscape:pageopacity="0.0"
     inkscape:pageshadow="2"
     inkscape:zoom="8"
     inkscape:cx="32"
     inkscape:cy="32.403189"
     inkscape:current-layer="g3813"
     showgrid="true"
     inkscape:document-units="px"
     inkscape:grid-bbox="true"
     inkscape:window-width="1680"
     inkscape:window-height="989"
     inkscape:window-x="1671"
     inkscape:window-y="-9"
     inkscape:window-maximized="1" />
  <metadata
     id="metadata3145">
    <rdf:RDF>
      <cc:Work
         rdf:about="">
        <dc:format>image/svg+xml</dc:format>
        <dc:type
           rdf:resource="http://purl.org/dc/dcmitype/StillImage" />
        <dc:title></dc:title>
      </cc:Work>
    </rdf:RDF>
  </metadata>
  <g
     id="layer1"
     inkscape:label="Layer 1"
     inkscape:groupmode="layer">
    <g
       id="g3813"
       transform="matrix(0.8506406,0,0,0.8506406,187.82699,-0.1960013)">
      <path
         sodipodi:nodetypes="ccccccccccc"
         id="rect3663"
         d="M -216.13659,7.270763 L -216.13659,62.770763 L -203.76159,62.770763 L -203.76159,41.052013 L -195.01159,41.052013 L -195.01159,32.489513 L -203.76159,32.489513 L -203.76159,23.247634 L -182.20645,23.247634 L -182.20645,7.302013 L -216.13659,7.270763 z"
         style="opacity:1;fill:url(#radialGradient3817);fill-opacity:1;fill-rule:evenodd;stroke:#370700;stroke-width:1.91000152;stroke-linecap:butt;stroke-linejoin:miter;marker:none;marker-start:none;marker-mid:none;marker-end:none;stroke-miterlimit:4;stroke-dasharray:none;stroke-dashoffset:0;stroke-opacity:1;visibility:visible;display:inline;overflow:visible;enable-background:accumulate" />
      <path
         id="path3659"
         d="M -161.05088,23.811562 L -168.24914,27.941451 L -171.42783,26.838359 L -174.46057,19.087636 L -179.23123,19.338335 L -181.40725,27.353068 L -184.45272,28.811478 L -192.04863,25.488663 L -195.25694,29.05385 L -191.12704,36.252107 L -192.25562,39.421483 L -200.00635,42.454224 L -199.73017,47.234186 L -191.71543,49.410207 L -190.25702,52.455668 L -193.60531,60.042283 L -190.04013,63.250589 L -182.84188,59.120698 L -179.64701,60.258581 L -176.63975,68 L -171.83431,67.733117 L -169.68377,59.709083 L -166.6383,58.250671 L -159.02622,61.608278 L -155.81791,58.043091 L -159.9478,50.844835 L -158.83541,47.640667 L -151.09399,44.633407 L -151.33537,39.83727 L -159.35941,37.686734 L -160.81783,34.641273 L -157.48571,27.019867 L -161.05088,23.811562 z M -171.83168,35.615821 L -170.35403,36.473178 L -169.07381,37.633913 L -168.04887,39.019136 L -167.31158,40.559263 L -166.87809,42.219505 L -166.80627,43.920968 L -167.05202,45.621989 L -167.61286,47.236819 L -168.50501,48.730653 L -169.63095,49.99469 L -171.01618,51.019623 L -172.55631,51.756914 L -174.21654,52.190397 L -175.92731,52.287705 L -177.62834,52.041972 L -179.24316,51.48112 L -180.73699,50.588971 L -181.99174,49.43754 L -183.02596,48.077805 L -183.76327,46.537679 L -184.18744,44.851952 L -184.28475,43.141183 L -184.03902,41.440158 L -183.47816,39.825332 L -182.59532,38.356981 L -181.46006,37.067461 L -180.07484,36.042527 L -178.53472,35.305233 L -176.849,34.881059 L -175.14753,34.809236 L -173.44651,35.054967 L -171.83168,35.615821 z"
         style="opacity:1;fill:url(#radialGradient3661);fill-opacity:1;fill-rule:evenodd;stroke:#000137;stroke-width:1.91000152;stroke-linecap:butt;stroke-linejoin:miter;marker:none;marker-start:none;marker-mid:none;marker-end:none;stroke-miterlimit:4;stroke-dasharray:none;stroke-dashoffset:0;stroke-opacity:1;visibility:visible;display:inline;overflow:visible;enable-background:accumulate" />
      <g
         transform="matrix(1.0004973,0,0,1.0004973,-198.33089,22.731258)"
         inkscape:label="Layer 1"
         id="layer1-8">
        <g
           id="g7435"
           transform="matrix(1.566667,0,0,1.566667,-8.925566,-23.94764)">
          <g
             transform="matrix(0.625,0,0,0.625,6.011173,14.00913)"
             id="Layer_x0020_2"
             style="fill-rule:nonzero;stroke:#000000;stroke-width:1.17499983;stroke-miterlimit:4">
            <path
               inkscape:connector-curvature="0"
               style="fill:none;stroke:none"
               d="M 48,48 0,48 0,0 48,0 48,48 z"
               id="path6480" />
          </g>
          <path
             inkscape:connector-curvature="0"
             id="path6485"
             d="M 33.282781,38.644744 22.407791,18.394765 c -0.312499,-0.562499 -0.874999,-0.874998 -1.499998,-0.874998 -0.625,0 -1.187499,0.374998 -1.499998,0.937498 L 8.7828048,38.707245 c -0.25,0.499999 -0.25,1.187499 0.0625,1.687498 0.312499,0.5 0.812499,0.749999 1.4374992,0.749999 l 21.499978,0 c 0.624999,0 1.187498,-0.312499 1.437499,-0.812499 0.312499,-0.5 0.312499,-1.124999 0.0625,-1.687499 z"
             style="fill:#cc0000;fill-rule:nonzero;stroke:#9f0000;stroke-width:0.75000012;stroke-miterlimit:4;stroke-opacity:1;stroke-dasharray:none" />
          <g
             id="g6487"
             transform="matrix(0.625,0,0,0.634254,5.907817,14.48395)"
             style="fill-rule:nonzero;stroke:#000000;stroke-width:1.17499983;stroke-miterlimit:4">
            <linearGradient
               y2="56.052299"
               x2="47.319698"
               y1="11.1133"
               x1="4.1914001"
               gradientUnits="userSpaceOnUse"
               id="linearGradient6525">
              <stop
                 id="stop6529"
                 style="stop-color:#ffffff;stop-opacity:1;"
                 offset="0" />
              <stop
                 id="stop6531"
                 style="stop-color:#ffffff;stop-opacity:0.34020618;"
                 offset="1" />
            </linearGradient>
            <path
               inkscape:connector-curvature="0"
               id="path6496"
               d="m 9.5,37.6 c -0.3,0.5 0,0.9 0.5,0.9 l 28.2,0 c 0.5,0 0.8,-0.4 0.5,-0.9 L 24.4,11 c -0.3,-0.5 -0.7,-0.5 -0.9,0 l -14,26.6 z"
               style="fill:#ffffff;fill-opacity:1;stroke:none" />
          </g>
          <g
             id="g6498"
             transform="matrix(0.554873,0,0,0.554873,7.583837,16.5318)"
             style="fill-rule:nonzero;stroke:#000000;stroke-width:1.17499983;stroke-miterlimit:4">
            <path
               inkscape:connector-curvature="0"
               id="path6500"
               d="m 23.9,36.5 c -1.3,0 -2.3,-1 -2.3,-2.3 0,-1.4 0.9,-2.3 2.3,-2.3 1.4,0 2.2,0.9 2.3,2.3 0,1.3 -0.9,2.3 -2.3,2.3 l 0,0 z m -1.4,-5.9 -0.6,-11.5 4,0 -0.6,11.5 -2.9,0 0.1,0 z"
               style="fill:#000000;fill-opacity:1;stroke:none" />
          </g>
          <path
             inkscape:connector-curvature="0"
             sodipodi:nodetypes="ccsccscccc"
             id="path1325"
             d="M 32.323106,38.183905 22.150271,19.265666 c -0.433291,-0.814976 -0.588573,-1.076453 -1.241865,-1.076453 -0.561881,0 -0.854279,0.380807 -1.257101,1.150078 L 9.7489285,38.242296 c -0.5751636,1.061292 -0.6361047,1.337932 -0.3551641,1.805049 0.280939,0.467117 0.6390326,0.441675 1.9626766,0.472146 l 19.618152,0 c 1.232232,0.01523 1.509395,-0.07865 1.734147,-0.545771 0.280941,-0.467118 0.159059,-0.83772 -0.385634,-1.789815 z"
             style="opacity:0.5;fill:none;stroke:url(#linearGradient5250);stroke-width:0.7500003;stroke-miterlimit:4;stroke-opacity:1;stroke-dasharray:none" />
        </g>
      </g>
    </g>
  </g>
</svg>
