<?xml version="1.0" encoding="UTF-8" standalone="no"?>
<svg
   xmlns:dc="http://purl.org/dc/elements/1.1/"
   xmlns:cc="http://creativecommons.org/ns#"
   xmlns:rdf="http://www.w3.org/1999/02/22-rdf-syntax-ns#"
   xmlns:svg="http://www.w3.org/2000/svg"
   xmlns="http://www.w3.org/2000/svg"
   xmlns:sodipodi="http://sodipodi.sourceforge.net/DTD/sodipodi-0.dtd"
   xmlns:inkscape="http://www.inkscape.org/namespaces/inkscape"
   version="1.1"
   viewBox="0 0 64 64"
   xml:space="preserve"
   id="svg5"
   sodipodi:docname="mooc-player.svg"
   width="64"
   height="64"
   inkscape:version="0.92.3 (2405546, 2018-03-11)"><metadata
     id="metadata11"><rdf:RDF><cc:Work
         rdf:about=""><dc:format>image/svg+xml</dc:format><dc:type
           rdf:resource="http://purl.org/dc/dcmitype/StillImage" /><dc:title /></cc:Work></rdf:RDF></metadata><defs
     id="defs9" /><sodipodi:namedview
     pagecolor="#ffffff"
     bordercolor="#666666"
     borderopacity="1"
     objecttolerance="10"
     gridtolerance="10"
     guidetolerance="10"
     inkscape:pageopacity="0"
     inkscape:pageshadow="2"
     inkscape:window-width="1920"
     inkscape:window-height="1054"
     id="namedview7"
     showgrid="false"
     inkscape:zoom="6.9532167"
     inkscape:cx="2.3084862"
     inkscape:cy="25.802943"
     inkscape:window-x="0"
     inkscape:window-y="0"
     inkscape:window-maximized="1"
     inkscape:current-layer="svg5" /><g
     id="info"
     transform="translate(0,40)" /><path
     style="stroke-width:2.92118692;fill:#000000;fill-opacity:1"
     d="M 53.333333,6.2e-7 H 10.666667 C 4.8,6.2e-7 0,5.7600013 0,12.8 V 51.2 C 0,58.24 4.8,64 10.666667,64 H 53.333333 C 59.200001,64 64,58.24 64,51.2 V 12.8 C 64,5.7600013 59.200001,6.2e-7 53.333333,6.2e-7 Z"
     id="path818" /><path
     style="stroke-width:2.92118692;fill:#ffffff;fill-opacity:1"
     d="m 44.650848,34.559999 -15.633898,10.24 C 27.416949,46.4 24,44.799999 24,42.239999 v -20.48 c 0,-2.56 3.416949,-4.159999 5.01695,-2.56 l 15.633898,10.24 c 1.866666,0.96 1.866666,4.16 0,5.12 z"
     id="video" /></svg>