<?xml version="1.0" encoding="UTF-8" standalone="no"?>
<svg
   xmlns:dc="http://purl.org/dc/elements/1.1/"
   xmlns:cc="http://creativecommons.org/ns#"
   xmlns:rdf="http://www.w3.org/1999/02/22-rdf-syntax-ns#"
   xmlns:svg="http://www.w3.org/2000/svg"
   xmlns="http://www.w3.org/2000/svg"
   xmlns:sodipodi="http://sodipodi.sourceforge.net/DTD/sodipodi-0.dtd"
   xmlns:inkscape="http://www.inkscape.org/namespaces/inkscape"
   version="1.1"
   viewBox="0 0 64 64"
   xml:space="preserve"
   id="svg5"
   sodipodi:docname="grader.svg"
   width="64"
   height="64"
   inkscape:version="0.92.3 (2405546, 2018-03-11)"><metadata
     id="metadata11"><rdf:RDF><cc:Work
         rdf:about=""><dc:format>image/svg+xml</dc:format><dc:type
           rdf:resource="http://purl.org/dc/dcmitype/StillImage" /><dc:title></dc:title></cc:Work></rdf:RDF></metadata><defs
     id="defs9" /><sodipodi:namedview
     pagecolor="#ffffff"
     bordercolor="#666666"
     borderopacity="1"
     objecttolerance="10"
     gridtolerance="10"
     guidetolerance="10"
     inkscape:pageopacity="0"
     inkscape:pageshadow="2"
     inkscape:window-width="1920"
     inkscape:window-height="1052"
     id="namedview7"
     showgrid="false"
     inkscape:zoom="4.9166667"
     inkscape:cx="52.600579"
     inkscape:cy="9.5280791"
     inkscape:window-x="0"
     inkscape:window-y="0"
     inkscape:window-maximized="1"
     inkscape:current-layer="svg5" /><rect
     ry="10"
     y="0"
     x="0"
     height="64"
     width="64"
     id="rect274"
     style="fill:#000000;stroke:none;stroke-width:0;stroke-linejoin:round;stroke-miterlimit:6.80000019;stroke-dasharray:none;stroke-opacity:1" /><g
     id="info"
     transform="translate(0,40)" /><g
     id="icons"
     transform="matrix(2.6736072,0,0,2.6736072,0.57336868,0.1642713)"
     style="fill:#ffffff;fill-opacity:1;stroke:#000000;stroke-width:0.1;stroke-miterlimit:4;stroke-dasharray:none;stroke-opacity:1"><path
       d="M 10,18 C 9.5,18 9,17.8 8.6,17.4 l -4,-4 c -0.8,-0.8 -0.8,-2 0,-2.8 0.8,-0.8 2.1,-0.8 2.8,0 l 2.6,2.6 6.6,-6.6 c 0.8,-0.8 2,-0.8 2.8,0 0.8,0.8 0.8,2 0,2.8 l -8,8 C 11,17.8 10.5,18 10,18 Z"
       id="check"
       inkscape:connector-curvature="0"
       style="fill:#ffffff;fill-opacity:1;stroke:#000000;stroke-width:0.1;stroke-miterlimit:4;stroke-dasharray:none;stroke-opacity:1" /></g></svg>