<?xml version="1.0" encoding="UTF-8"?><svg id="Layer_1" xmlns="http://www.w3.org/2000/svg" viewBox="0 0 1000 1000"><defs><style>.cls-1{fill:#ff4a1f;}</style></defs><path class="cls-1" d="m516.58.27C227.8-9.12-9.12,227.81.27,516.59c8.52,262,221.15,474.62,483.15,483.14,288.78,9.39,525.7-227.54,516.31-516.32C991.21,221.42,778.58,8.79,516.58.27ZM88.19,500c0-165.95,98.68-309.26,240.43-374.4,8.75-4.02,19.09-2.2,25.9,4.61l67.05,67.05c8.95,8.95,8.95,23.47,0,32.42l-254.11,254.11c-8.95,8.95-8.95,23.47,0,32.42l254.11,254.11c8.95,8.95,8.95,23.47,0,32.42l-67.05,67.05c-6.81,6.81-17.15,8.63-25.9,4.61-141.75-65.14-240.43-208.45-240.43-374.4Zm523.82,112.01h0c-61.86,61.87-162.17,61.87-224.03,0h0c-61.86-61.86-61.86-162.16,0-224.03h0c61.86-61.86,162.17-61.86,224.03,0h0c61.86,61.86,61.86,162.16,0,224.03Zm-112.02,299.79c-15.12,0-30.05-.84-44.74-2.44-5.66-.62-8.11-7.48-4.09-11.51l381.65-381.65c8.95-8.95,8.95-23.47,0-32.42L451.17,102.14c-4.02-4.02-1.57-10.89,4.09-11.51,14.7-1.6,29.62-2.44,44.74-2.44,227.07,0,411.81,184.74,411.81,411.81s-184.74,411.81-411.81,411.81Z"/></svg>