<?xml version="1.0" encoding="UTF-8" standalone="no"?>
<!-- Generator: Adobe Illustrator 18.0.0, SVG Export Plug-In . SVG Version: 6.00 Build 0)  -->

<svg
   xmlns:dc="http://purl.org/dc/elements/1.1/"
   xmlns:cc="http://creativecommons.org/ns#"
   xmlns:rdf="http://www.w3.org/1999/02/22-rdf-syntax-ns#"
   xmlns:svg="http://www.w3.org/2000/svg"
   xmlns="http://www.w3.org/2000/svg"
   xmlns:xlink="http://www.w3.org/1999/xlink"
   xmlns:sodipodi="http://sodipodi.sourceforge.net/DTD/sodipodi-0.dtd"
   xmlns:inkscape="http://www.inkscape.org/namespaces/inkscape"
   version="1.1"
   x="0px"
   y="0px"
   viewBox="0 0 64 64"
   enable-background="new 0 0 64 64"
   xml:space="preserve"
   id="svg6171"
   inkscape:version="0.48.2 r9819"
   width="100%"
   height="100%"
   sodipodi:docname="OSE freecad 3d printer frame v1-5a-02.svg"><metadata
   id="metadata6275"><rdf:RDF><cc:Work
       rdf:about=""><dc:format>image/svg+xml</dc:format><dc:type
         rdf:resource="http://purl.org/dc/dcmitype/StillImage" /></cc:Work></rdf:RDF></metadata><defs
   id="defs6273"><linearGradient
     id="SVGID_1_"
     gradientUnits="userSpaceOnUse"
     x1="56.906101"
     y1="46.162701"
     x2="32.093899"
     y2="31.837299"
     gradientTransform="matrix(-1,0,0,-1,64,64)"><stop
       offset="0"
       style="stop-color:#C79E42"
       id="stop6180" /><stop
       offset="1"
       style="stop-color:#F2D556"
       id="stop6182" /></linearGradient><linearGradient
     id="SVGID_2_"
     gradientUnits="userSpaceOnUse"
     x1="56.906101"
     y1="46.162701"
     x2="32.093899"
     y2="31.837299"><stop
       offset="0"
       style="stop-color:#C79E42"
       id="stop6197" /><stop
       offset="1"
       style="stop-color:#F2D556"
       id="stop6199" /></linearGradient><linearGradient
     inkscape:collect="always"
     xlink:href="#SVGID_1_"
     id="linearGradient6510"
     gradientUnits="userSpaceOnUse"
     gradientTransform="matrix(-1,0,0,-1,64,64)"
     x1="56.906101"
     y1="46.162701"
     x2="32.093899"
     y2="31.837299" /><linearGradient
     inkscape:collect="always"
     xlink:href="#SVGID_2_"
     id="linearGradient6512"
     gradientUnits="userSpaceOnUse"
     x1="56.906101"
     y1="46.162701"
     x2="32.093899"
     y2="31.837299" /></defs><sodipodi:namedview
   pagecolor="#ffffff"
   bordercolor="#666666"
   borderopacity="1"
   objecttolerance="10"
   gridtolerance="10"
   guidetolerance="10"
   inkscape:pageopacity="0"
   inkscape:pageshadow="2"
   inkscape:window-width="1536"
   inkscape:window-height="801"
   id="namedview6271"
   showgrid="false"
   inkscape:zoom="3.6875"
   inkscape:cx="0.81355932"
   inkscape:cy="32"
   inkscape:window-x="-8"
   inkscape:window-y="-8"
   inkscape:window-maximized="1"
   inkscape:current-layer="layer5" />


<g
   inkscape:groupmode="layer"
   id="layer5"
   inkscape:label="solids"><g
     id="solids"><g
       id="frame_1_"><g
         id="g6175"><path
           style="fill:#f2d556"
           inkscape:connector-curvature="0"
           d="M 32,61 57,47 V 18 L 32,3 7,18 v 29 l 25,14 z m 5,-49 15,9 V 38 L 37,29 V 12 z m 9,35 -14,8 -14,-8 14,-8 14,8 z M 12,21 27,12 V 29 L 12,38 V 21 z"
           id="path6177" /><linearGradient
           id="linearGradient6410"
           gradientUnits="userSpaceOnUse"
           x1="56.906101"
           y1="46.162701"
           x2="32.093899"
           y2="31.837299"
           gradientTransform="matrix(-1,0,0,-1,64,64)"><stop
             offset="0"
             style="stop-color:#C79E42"
             id="stop6412" /><stop
             offset="1"
             style="stop-color:#F2D556"
             id="stop6414" /></linearGradient><path
           style="fill:url(#linearGradient6510)"
           inkscape:connector-curvature="0"
           d="M 32,3 7,18 V 47 L 32,32 V 3 z M 27,29 12,38 V 21 l 15,-9 v 17 z"
           id="path6184" /><path
           style="fill:#ffea73"
           inkscape:connector-curvature="0"
           d="M 32,61 56,47.6 32,33 8,47.6 32,61 z M 46,47 32,55 18,47 32,39 46,47 z"
           id="path6186" /><polygon
           style="fill:none;stroke:#ffea73;stroke-width:1.39999998;stroke-miterlimit:10"
           stroke-miterlimit="10"
           points="55.6,44.7 33.4,31.3 33.4,5.5 55.6,18.8 "
           id="polygon6188" /><polygon
           style="fill:none;stroke:#f2d556;stroke-width:1.39999998;stroke-miterlimit:10"
           stroke-miterlimit="10"
           points="8.4,44.7 8.4,18.8 30.6,5.5 30.6,31.3 "
           id="polygon6190" /></g><g
         id="g6192"><path
           style="fill:#f2d556"
           inkscape:connector-curvature="0"
           d="M 32,3 7,17 V 46 L 32,61 57,46 V 17 L 32,3 z M 27,52 12,43 V 26 l 15,9 V 52 z M 18,17 32,9 46,17 32,25 18,17 z M 52,43 37,52 V 35 l 15,-9 v 17 z"
           id="path6194" /><linearGradient
           id="linearGradient6422"
           gradientUnits="userSpaceOnUse"
           x1="56.906101"
           y1="46.162701"
           x2="32.093899"
           y2="31.837299"><stop
             offset="0"
             style="stop-color:#C79E42"
             id="stop6424" /><stop
             offset="1"
             style="stop-color:#F2D556"
             id="stop6426" /></linearGradient><path
           style="fill:url(#linearGradient6512)"
           inkscape:connector-curvature="0"
           d="M 32,61 57,46 V 17 L 32,32 V 61 z M 37,35 52,26 V 43 L 37,52 V 35 z"
           id="path6201" /><path
           style="fill:#ffea73"
           inkscape:connector-curvature="0"
           d="M 32,3 8,16.4 32,31 56,16.4 32,3 z M 18,17 32,9 46,17 32,25 18,17 z"
           id="path6203" /><polygon
           style="fill:none;stroke:#ffea73;stroke-width:1.39999998;stroke-miterlimit:10"
           stroke-miterlimit="10"
           points="8.4,19.3 30.6,32.7 30.6,58.5 8.4,45.2 "
           id="polygon6205" /><polygon
           style="fill:none;stroke:#f2d556;stroke-width:1.39999998;stroke-miterlimit:10"
           stroke-miterlimit="10"
           points="55.6,19.3 55.6,45.2 33.4,58.5 33.4,32.7 "
           id="polygon6207" /></g></g><g
       id="axis_1_" /><g
       id="controller_1_" /><g
       id="power_supply_1_" /><g
       id="wiring_1_" /><g
       id="spool_holder_1_" /><g
       id="extruder_1_" /><g
       id="heat_bed_1_" /></g></g><g
   inkscape:groupmode="layer"
   id="layer6"
   inkscape:label="outlines"
   style="display:inline"><g
     id="outlines"><g
       id="frame"><g
         id="g6218"><polyline
           style="fill:none;stroke:#231f20;stroke-width:1.39999998;stroke-linecap:round;stroke-linejoin:round;stroke-miterlimit:10"
           stroke-miterlimit="10"
           points="     7,17 32,3 57,17    "
           id="polyline6220" /><polygon
           style="fill:none;stroke:#231f20;stroke-width:1.39999998;stroke-linecap:round;stroke-linejoin:round;stroke-miterlimit:10"
           stroke-miterlimit="10"
           points="32,9 46,17 32,25 18,17 "
           id="polygon6222" /><polygon
           style="fill:none;stroke:#231f20;stroke-width:1.39999998;stroke-linecap:round;stroke-linejoin:round;stroke-miterlimit:10"
           stroke-miterlimit="10"
           points="52,43 37,52 37,35 52,26 "
           id="polygon6224" /><polygon
           style="fill:none;stroke:#231f20;stroke-width:1.39999998;stroke-linecap:round;stroke-linejoin:round;stroke-miterlimit:10"
           stroke-miterlimit="10"
           points="12,43 27,52 27,35 12,26 "
           id="polygon6226" /><polyline
           style="fill:none;stroke:#231f20;stroke-width:1.39999998;stroke-linecap:round;stroke-linejoin:round;stroke-miterlimit:10"
           stroke-miterlimit="10"
           points="     57,17 57,46 32,61    "
           id="polyline6228" /><polyline
           style="fill:none;stroke:#231f20;stroke-width:1.39999998;stroke-linecap:round;stroke-linejoin:round;stroke-miterlimit:10"
           stroke-miterlimit="10"
           points="     7,17 7,46 32,61    "
           id="polyline6230" /><line
           style="fill:none;stroke:#231f20;stroke-width:1.39999998;stroke-linecap:round;stroke-linejoin:round;stroke-miterlimit:10"
           stroke-miterlimit="10"
           x1="32"
           y1="32"
           x2="32"
           y2="61"
           id="line6232" /><line
           style="fill:none;stroke:#231f20;stroke-width:1.39999998;stroke-linecap:round;stroke-linejoin:round;stroke-miterlimit:10"
           stroke-miterlimit="10"
           x1="57"
           y1="17.200001"
           x2="32"
           y2="32"
           id="line6234" /><line
           style="fill:none;stroke:#231f20;stroke-width:1.39999998;stroke-linecap:round;stroke-linejoin:round;stroke-miterlimit:10"
           stroke-miterlimit="10"
           x1="7"
           y1="17.200001"
           x2="32"
           y2="32"
           id="line6236" /><polyline
           style="fill:none;stroke:#231f20;stroke-width:1.39999998;stroke-linecap:round;stroke-linejoin:round;stroke-miterlimit:10"
           stroke-miterlimit="10"
           points="     57,17.2 32,32 7,17.2    "
           id="polyline6238" /></g><g
         id="g6240"><line
           style="fill:none;stroke:#231f20;stroke-width:1.39999998;stroke-linecap:round;stroke-linejoin:round;stroke-miterlimit:10"
           stroke-miterlimit="10"
           x1="37.299999"
           y1="42.099998"
           x2="45.099998"
           y2="46.5"
           id="line6242" /><line
           style="fill:none;stroke:#231f20;stroke-width:1.39999998;stroke-linecap:round;stroke-linejoin:round;stroke-miterlimit:10"
           stroke-miterlimit="10"
           x1="18.9"
           y1="46.5"
           x2="26.799999"
           y2="42"
           id="line6244" /><line
           style="fill:none;stroke:#231f20;stroke-width:1.39999998;stroke-linecap:round;stroke-linejoin:round;stroke-miterlimit:10"
           stroke-miterlimit="10"
           x1="21.6"
           y1="32.200001"
           x2="12"
           y2="38"
           id="line6246" /><line
           style="fill:none;stroke:#231f20;stroke-width:1.39999998;stroke-linecap:round;stroke-linejoin:round;stroke-miterlimit:10"
           stroke-miterlimit="10"
           x1="27"
           y1="12"
           x2="27"
           y2="21.4"
           id="line6248" /><line
           style="fill:none;stroke:#231f20;stroke-width:1.39999998;stroke-linecap:round;stroke-linejoin:round;stroke-miterlimit:10"
           stroke-miterlimit="10"
           x1="42.099998"
           y1="32.099998"
           x2="52"
           y2="38"
           id="line6250" /><line
           style="fill:none;stroke:#231f20;stroke-width:1.39999998;stroke-linecap:round;stroke-linejoin:round;stroke-miterlimit:10"
           stroke-miterlimit="10"
           x1="37"
           y1="12"
           x2="37"
           y2="21.9"
           id="line6252" /><line
           style="fill:none;stroke:#231f20;stroke-width:1.39999998;stroke-linecap:round;stroke-linejoin:round;stroke-miterlimit:10"
           stroke-miterlimit="10"
           x1="32"
           y1="32"
           x2="32"
           y2="61"
           id="line6254" /><polyline
           style="fill:none;stroke:#231f20;stroke-width:1.39999998;stroke-linecap:round;stroke-linejoin:round;stroke-miterlimit:10"
           stroke-miterlimit="10"
           points="     57,17.2 32,32 7,17.2    "
           id="polyline6256" /><line
           style="fill:none;stroke:#231f20;stroke-width:1.39999998;stroke-linecap:round;stroke-linejoin:round;stroke-miterlimit:10"
           stroke-miterlimit="10"
           x1="32"
           y1="24.299999"
           x2="32"
           y2="9.5"
           id="line6258" /><line
           style="fill:none;stroke:#231f20;stroke-width:1.39999998;stroke-linecap:round;stroke-linejoin:round;stroke-miterlimit:10"
           stroke-miterlimit="10"
           x1="37.599998"
           y1="35.299999"
           x2="50.900002"
           y2="43.200001"
           id="line6260" /><line
           style="fill:none;stroke:#231f20;stroke-width:1.39999998;stroke-linecap:round;stroke-linejoin:round;stroke-miterlimit:10"
           stroke-miterlimit="10"
           x1="13.1"
           y1="43.200001"
           x2="26.4"
           y2="35.299999"
           id="line6262" /></g></g><g
       id="heat_bed" /><g
       id="axis" /><g
       id="controller" /><g
       id="spool_holder" /><g
       id="wiring" /><g
       id="power_supply" /><g
       id="extruder" /></g></g></svg>