<?xml version="1.0" encoding="UTF-8" standalone="no"?>
<svg
   xmlns:dc="http://purl.org/dc/elements/1.1/"
   xmlns:cc="http://creativecommons.org/ns#"
   xmlns:rdf="http://www.w3.org/1999/02/22-rdf-syntax-ns#"
   xmlns:svg="http://www.w3.org/2000/svg"
   xmlns="http://www.w3.org/2000/svg"
   id="svg8"
   version="1.1"
   viewBox="0 0 16.933333 16.933334"
   height="64"
   width="64">
  <defs
     id="defs2" />
  <metadata
     id="metadata5">
    <rdf:RDF>
      <cc:Work
         rdf:about="">
        <dc:format>image/svg+xml</dc:format>
        <dc:type
           rdf:resource="http://purl.org/dc/dcmitype/StillImage" />
        <dc:title></dc:title>
      </cc:Work>
    </rdf:RDF>
  </metadata>
  <path
     id="rect882"
     d="m 5.0270834,0.52916667 c -0.4397376,0 -0.7937501,0.35401248 -0.7937501,0.79375003 V 3.1104045 L 2.9693277,1.846399 c -0.3109412,-0.3109415 -0.8119875,-0.3109415 -1.1229287,0 -0.3109415,0.3109414 -0.3109415,0.8119875 0,1.1229289 L 3.1104043,4.2333334 H 1.3229166 c -0.43973751,0 -0.79375002,0.3540125 -0.79375002,0.79375 0,0.4397376 0.35401251,0.7937501 0.79375002,0.7937501 H 3.1104043 L 1.846399,7.0848391 c -0.3109415,0.3109413 -0.3109415,0.8119875 0,1.1229287 0.3109412,0.3109416 0.8119875,0.3109416 1.1229287,0 L 4.2333333,6.9437625 v 1.7874877 c 0,0.4397375 0.3540125,0.79375 0.7937501,0.79375 0.4397375,0 0.79375,-0.3540125 0.79375,-0.79375 V 6.9437625 L 7.084839,8.2077678 c 0.3109413,0.3109416 0.8119875,0.3109416 1.1229289,0 0.3109413,-0.3109412 0.3109413,-0.8119874 0,-1.1229287 L 6.9437623,5.8208335 h 1.7874878 c 0.4397376,0 0.79375,-0.3540125 0.79375,-0.7937501 0,-0.4397375 -0.3540124,-0.79375 -0.79375,-0.79375 H 6.9437623 L 8.2077679,2.9693279 c 0.3109413,-0.3109414 0.3109413,-0.8119875 0,-1.1229289 -0.3109414,-0.3109415 -0.8119876,-0.3109415 -1.1229289,0 L 5.8208334,3.1104045 V 1.3229167 c 0,-0.43973755 -0.3540125,-0.79375003 -0.79375,-0.79375003 z m 0,0.52916663 c 0.1465791,0 0.2645833,0.1180042 0.2645833,0.2645834 V 3.6395711 L 5.0270834,3.9041544 4.7625,3.6395711 V 1.3229167 c 0,-0.1465792 0.1180042,-0.2645834 0.2645834,-0.2645834 z M 2.4076048,2.1430217 c 0.067633,0 0.1352453,0.025691 0.1870689,0.077515 L 4.2333333,3.8591962 V 4.2333334 H 3.8591961 L 2.2205362,2.5946737 c -0.1036471,-0.1036471 -0.1036471,-0.2704903 0,-0.3741374 0.051824,-0.051824 0.1194361,-0.077515 0.1870686,-0.077515 z m 5.238957,0 c 0.067633,0 0.1352451,0.025691 0.1870687,0.077515 0.1036471,0.1036473 0.1036471,0.2704902 0,0.3741374 L 6.1949708,4.2333334 H 5.8208334 V 3.8591962 L 7.4594931,2.2205363 c 0.051823,-0.051823 0.1194361,-0.077515 0.1870687,-0.077515 z M 1.3229166,4.7625001 H 3.639571 L 3.9041544,5.0270834 3.639571,5.2916668 H 1.3229166 c -0.1465792,0 -0.2645833,-0.1180042 -0.2645833,-0.2645834 0,-0.1465791 0.1180041,-0.2645833 0.2645833,-0.2645833 z m 3.5946129,0 H 5.1366373 L 5.2916667,4.9175295 V 5.1366374 L 5.1366373,5.2916668 H 4.9175295 L 4.7625,5.1366374 V 4.9175295 Z m 1.4970661,0 h 2.3166545 c 0.1465792,0 0.2645834,0.1180042 0.2645834,0.2645833 0,0.1465792 -0.1180042,0.2645834 -0.2645834,0.2645834 H 6.4145956 L 6.1500123,5.0270834 Z M 3.8591961,5.8208335 H 4.2333333 V 6.1949707 L 2.5946737,7.8336306 c -0.1036471,0.1036471 -0.2704904,0.1036471 -0.3741375,0 -0.1036471,-0.1036471 -0.1036471,-0.2704904 0,-0.3741375 z m 1.9616373,0 h 0.3741374 l 1.6386597,1.6386596 c 0.1036471,0.1036471 0.1036471,0.2704904 0,0.3741375 -0.1036472,0.1036471 -0.2704903,0.1036471 -0.3741374,0 L 5.8208334,6.1949707 Z m -0.79375,0.329179 0.2645833,0.2645833 v 2.3166544 c 0,0.1465792 -0.1180042,0.2645834 -0.2645833,0.2645834 C 4.8805042,8.9958336 4.7625,8.8778294 4.7625,8.7312502 V 6.4145958 Z"
     style="opacity:1;fill:#302b00;fill-opacity:1;stroke:none;stroke-width:0.5291667;stroke-linecap:round;stroke-linejoin:miter;stroke-miterlimit:4;stroke-dasharray:none;stroke-dashoffset:0;stroke-opacity:1" />
  <path
     id="rect879"
     d="M 5.0270834,1.0583333 C 4.8805042,1.0583333 4.7625,1.1763375 4.7625,1.3229167 V 4.3883629 L 2.5946737,2.2205363 c -0.1036471,-0.103647 -0.2704904,-0.103647 -0.3741375,0 -0.1036471,0.1036471 -0.1036471,0.2704902 0,0.3741374 L 4.3883628,4.7625001 H 1.3229166 c -0.1465792,0 -0.2645833,0.1180042 -0.2645833,0.2645833 0,0.1465792 0.1180041,0.2645834 0.2645833,0.2645834 H 4.3883628 L 2.2205362,7.4594931 c -0.1036471,0.1036471 -0.1036471,0.2704904 0,0.3741375 0.1036471,0.1036471 0.2704902,0.1036471 0.3741375,0 L 4.7625,5.665804 v 3.0654462 c 0,0.1465792 0.1180042,0.2645834 0.2645834,0.2645834 0.1465791,0 0.2645833,-0.1180042 0.2645833,-0.2645834 V 5.665804 l 2.1678264,2.1678266 c 0.1036471,0.1036471 0.2704902,0.1036471 0.3741374,0 0.103647,-0.1036471 0.1036471,-0.2704904 0,-0.3741375 L 5.6658041,5.2916668 h 3.065446 c 0.1465792,0 0.2645834,-0.1180042 0.2645834,-0.2645834 0,-0.1465791 -0.1180042,-0.2645833 -0.2645834,-0.2645833 H 5.6658041 L 7.8336305,2.5946737 c 0.1036471,-0.1036471 0.1036471,-0.2704903 0,-0.3741374 -0.1036471,-0.103647 -0.2704903,-0.1036472 -0.3741374,0 L 5.2916667,4.3883629 V 1.3229167 c 0,-0.1465792 -0.1180042,-0.2645834 -0.2645833,-0.2645834 z"
     style="opacity:1;fill:#edd400;fill-opacity:1;stroke:none;stroke-width:0.5291667;stroke-linecap:round;stroke-linejoin:miter;stroke-miterlimit:4;stroke-dasharray:none;stroke-dashoffset:0;stroke-opacity:1" />
  <path
     transform="scale(0.26458334)"
     id="rect986"
     d="M 19 15.996094 C 18.233143 15.996094 17.466512 16.289347 16.878906 16.876953 C 15.703695 18.052165 15.703695 19.943929 16.878906 21.119141 L 57.050781 61.291016 C 58.225994 62.466228 60.117757 62.466227 61.292969 61.291016 C 62.46818 60.115804 62.468182 58.224041 61.292969 57.048828 L 21.121094 16.876953 C 20.533488 16.289347 19.766857 15.996094 19 15.996094 z M 19 17.998047 C 19.255619 17.998047 19.511163 18.095147 19.707031 18.291016 L 59.878906 58.462891 C 60.270643 58.854627 60.270643 59.485216 59.878906 59.876953 C 59.48717 60.26869 58.85658 60.26869 58.464844 59.876953 L 18.292969 19.705078 C 17.901231 19.313341 17.901232 18.682752 18.292969 18.291016 C 18.488837 18.095147 18.744381 17.998047 19 17.998047 z "
     style="opacity:1;fill:#302b00;fill-opacity:1;stroke:none;stroke-width:2;stroke-linecap:round;stroke-linejoin:miter;stroke-miterlimit:4;stroke-dasharray:none;stroke-dashoffset:0;stroke-opacity:1" />
  <path
     style="opacity:1;fill:#edd400;fill-opacity:1;stroke:none;stroke-width:0.5291667;stroke-linecap:round;stroke-linejoin:miter;stroke-miterlimit:4;stroke-dasharray:none;stroke-dashoffset:0;stroke-opacity:1"
     d="M 5.2141714,4.8395983 15.8429,15.468327 c 0.103647,0.103647 0.103648,0.27053 10e-7,0.374177 -0.103647,0.103647 -0.270532,0.103647 -0.374179,0 L 4.8399939,5.2137759 c -0.1036472,-0.1036471 -0.1036466,-0.2705308 4e-7,-0.3741778 0.103647,-0.103647 0.27053,-0.1036469 0.3741771,2e-7 z"
     id="path988" />
  <path
     style="opacity:1;fill:#302b00;fill-opacity:1;stroke:none;stroke-width:0.5291667;stroke-linecap:round;stroke-linejoin:miter;stroke-miterlimit:4;stroke-dasharray:none;stroke-dashoffset:0;stroke-opacity:1"
     d="M 5.2325211,4.2603794 C 4.8077678,4.1465671 4.3741921,4.3968921 4.2603798,4.8216454 4.1465672,5.2463997 4.3968925,5.6799744 4.8216458,5.7937867 L 15.158668,8.5635835 C 15.583422,8.6773959 16.016996,8.4270718 16.130809,8.0023175 16.244621,7.5775642 15.994297,7.1439887 15.569543,7.0301762 Z M 5.0955627,4.7715152 15.432585,7.541312 c 0.141584,0.037938 0.225026,0.1824627 0.187088,0.3240471 -0.03794,0.1415843 -0.182462,0.2250261 -0.324047,0.1870886 L 4.9586042,5.2826509 C 4.8170199,5.2447135 4.7335782,5.1001882 4.7715156,4.9586038 4.809453,4.8170195 4.9539783,4.7335778 5.0955627,4.7715152 Z"
     id="path1017" />
  <path
     style="opacity:1;fill:#edd400;fill-opacity:1;stroke:none;stroke-width:0.5291667;stroke-linecap:round;stroke-linejoin:miter;stroke-miterlimit:4;stroke-dasharray:none;stroke-dashoffset:0;stroke-opacity:1"
     d="M 5.0955635,4.7715147 15.432345,7.5412468 c 0.141584,0.037937 0.225025,0.1824633 0.187088,0.3240477 -0.03794,0.1415845 -0.182462,0.2250259 -0.324047,0.1870884 L 4.958605,5.2826507 C 4.8170205,5.2447133 4.7335781,5.1001883 4.7715156,4.9586038 4.809453,4.8170194 4.953979,4.7335772 5.0955635,4.7715147 Z"
     id="path1019" />
  <path
     id="path1023"
     d="M 5.7937864,4.8216452 C 5.6799741,4.3968919 5.2463985,4.1465669 4.8216452,4.2603792 4.3968909,4.3741918 4.1465669,4.8077672 4.2603792,5.2325205 L 7.030176,15.569542 c 0.1138124,0.424754 0.5473869,0.675079 0.9721412,0.561266 0.4247533,-0.113812 0.6750785,-0.547387 0.561266,-0.972141 z M 5.2826507,4.9586036 8.0524475,15.295626 c 0.037937,0.141584 -0.045504,0.286109 -0.1870887,0.324047 -0.1415843,0.03794 -0.2861096,-0.0455 -0.3240471,-0.187089 L 4.7715149,5.095562 C 4.7335775,4.9539777 4.8170193,4.8094524 4.9586036,4.7715149 5.1001879,4.7335775 5.2447133,4.8170193 5.2826507,4.9586036 Z"
     style="opacity:1;fill:#302b00;fill-opacity:1;stroke:none;stroke-width:0.5291667;stroke-linecap:round;stroke-linejoin:miter;stroke-miterlimit:4;stroke-dasharray:none;stroke-dashoffset:0;stroke-opacity:1" />
  <path
     id="path1025"
     d="M 5.2826521,4.9586041 8.0523842,15.295385 c 0.037937,0.141585 -0.045505,0.28611 -0.1870893,0.324047 -0.1415844,0.03794 -0.2861093,-0.0455 -0.3240468,-0.187088 L 4.771516,5.0955626 C 4.7335786,4.9539782 4.8170197,4.8094524 4.9586042,4.771515 5.1001886,4.7335775 5.2447146,4.8170197 5.2826521,4.9586041 Z"
     style="opacity:1;fill:#edd400;fill-opacity:1;stroke:none;stroke-width:0.5291667;stroke-linecap:round;stroke-linejoin:miter;stroke-miterlimit:4;stroke-dasharray:none;stroke-dashoffset:0;stroke-opacity:1" />
</svg>
