<?xml version="1.0" encoding="UTF-8" standalone="no"?>
<svg
   xmlns:dc="http://purl.org/dc/elements/1.1/"
   xmlns:cc="http://creativecommons.org/ns#"
   xmlns:rdf="http://www.w3.org/1999/02/22-rdf-syntax-ns#"
   xmlns:svg="http://www.w3.org/2000/svg"
   xmlns="http://www.w3.org/2000/svg"
   width="64"
   height="64"
   viewBox="0 0 16.933332 16.933332"
   version="1.1"
   id="svg8">
  <defs
     id="defs2" />
  <metadata
     id="metadata5">
    <rdf:RDF>
      <cc:Work
         rdf:about="">
        <dc:format>image/svg+xml</dc:format>
        <dc:type
           rdf:resource="http://purl.org/dc/dcmitype/StillImage" />
        <dc:title></dc:title>
      </cc:Work>
    </rdf:RDF>
  </metadata>
  <path
     id="rect1132"
     d="m 2.9104164,0.52916662 c -0.3574002,0 -0.6548887,0.2354751 -0.7549927,0.55913898 C 1.8557709,0.93020991 1.4795252,0.97407155 1.2267984,1.2267984 0.97407162,1.4795252 0.93020979,1.855771 1.0883055,2.1554238 0.76464176,2.2555278 0.52916658,2.5530161 0.52916658,2.9104164 c 0,0.3574003 0.23547518,0.6548887 0.55913892,0.7549926 -0.15809571,0.2996529 -0.11423388,0.6758987 0.1384929,0.9286254 0.2527268,0.2527269 0.6289725,0.2965885 0.9286253,0.1384929 0.100104,0.3236638 0.3975922,0.5591389 0.7549927,0.5591389 0.3574002,0 0.6548886,-0.2354751 0.7549927,-0.5591389 C 3.9650618,4.8906229 4.3413075,4.8467613 4.5940343,4.5940344 4.8467611,4.3413077 4.8906229,3.9650619 4.7325273,3.665409 5.056191,3.565305 5.2916662,3.2678167 5.2916662,2.9104164 5.2916662,2.5530161 5.056191,2.2555278 4.7325273,2.1554238 4.8906229,1.855771 4.8467611,1.4795252 4.5940343,1.2267984 4.3413075,0.97407163 3.9650618,0.93020999 3.6654091,1.0883056 3.565305,0.76464174 3.2678168,0.52916662 2.9104164,0.52916662 Z m 0,0.52916658 c 0.1465794,0 0.2645833,0.1180039 0.2645833,0.2645833 V 1.5234211 L 2.9104164,1.7880044 2.6458331,1.5234211 V 1.3229165 c 0,-0.1465794 0.1180039,-0.2645833 0.2645833,-0.2645833 z M 1.7880042,1.5229043 c 0.067632,0 0.1352452,0.026208 0.1870689,0.078031 L 2.1166664,1.7425291 V 2.1166665 H 1.7425292 L 1.6009356,1.9750731 c -0.1036473,-0.1036474 -0.1036473,-0.2704901 0,-0.3741374 0.051824,-0.051824 0.1194364,-0.078031 0.1870686,-0.078031 z m 2.2448243,0 c 0.067632,0 0.1352449,0.026208 0.1870686,0.078031 0.1036471,0.1036474 0.1036474,0.27049 0,0.3741374 L 4.0783035,2.1166665 H 3.7041663 V 1.7425291 L 3.8457596,1.6009357 C 3.8975833,1.5491121 3.965196,1.5229043 4.0328285,1.5229043 Z M 1.3229165,2.6458331 H 1.5234209 L 1.7880042,2.9104164 1.5234209,3.1749997 H 1.3229165 c -0.1465794,0 -0.2645833,-0.1180039 -0.2645833,-0.2645833 0,-0.1465794 0.1180039,-0.2645833 0.2645833,-0.2645833 z m 1.477946,0 h 0.2191078 l 0.1550294,0.1550293 v 0.219108 L 3.0199703,3.1749997 H 2.8008625 L 2.6458331,3.0199704 v -0.219108 z m 1.4965493,0 h 0.2005044 c 0.1465794,0 0.2645833,0.1180039 0.2645833,0.2645833 0,0.1465794 -0.1180039,0.2645833 -0.2645833,0.2645833 H 4.2974118 L 4.0328285,2.9104164 Z M 1.7425292,3.7041663 H 2.1166664 V 4.0783037 L 1.9750731,4.2198971 c -0.1036473,0.1036474 -0.2704901,0.1036473 -0.3741375,0 -0.1036473,-0.1036472 -0.1036473,-0.2704899 0,-0.3741374 z m 1.9616371,0 h 0.3741372 l 0.1415936,0.1415934 c 0.1036474,0.1036475 0.1036474,0.2704901 0,0.3741374 -0.1036473,0.1036472 -0.2704901,0.1036473 -0.3741375,0 L 3.7041663,4.0783037 Z M 2.9104164,4.0328284 3.1749997,4.2974117 v 0.2005046 c 0,0.1465795 -0.1180039,0.2645833 -0.2645833,0.2645833 -0.1465794,0 -0.2645833,-0.1180038 -0.2645833,-0.2645833 V 4.2974117 Z"
     style="opacity:1;fill:#302b00;fill-opacity:1;stroke:none;stroke-width:0.52916664;stroke-linecap:round;stroke-linejoin:miter;stroke-miterlimit:4;stroke-dasharray:none;stroke-dashoffset:0;stroke-opacity:1" />
  <path
     id="rect1129"
     d="m 2.9104164,1.0583332 c -0.1465794,0 -0.2645833,0.1180039 -0.2645833,0.2645833 v 0.9487793 l -0.67076,-0.6707601 c -0.1036473,-0.1036473 -0.2704901,-0.1036474 -0.3741375,0 -0.1036473,0.1036474 -0.1036473,0.27049 0,0.3741374 l 0.6707603,0.67076 H 1.3229165 c -0.1465794,0 -0.2645833,0.1180038 -0.2645833,0.2645833 0,0.1465795 0.1180039,0.2645833 0.2645833,0.2645833 h 0.9487794 l -0.6707603,0.67076 c -0.1036473,0.1036475 -0.1036473,0.27049 0,0.3741374 0.1036474,0.1036474 0.2704902,0.1036474 0.3741375,0 l 0.67076,-0.67076 v 0.9487792 c 0,0.1465795 0.1180039,0.2645833 0.2645833,0.2645833 0.1465794,0 0.2645833,-0.1180038 0.2645833,-0.2645833 V 3.5491371 l 0.6707599,0.67076 c 0.1036474,0.1036474 0.2704902,0.1036474 0.3741375,0 0.1036474,-0.1036474 0.1036474,-0.2704901 0,-0.3741374 l -0.6707602,-0.67076 h 0.9487793 c 0.1465794,0 0.2645833,-0.1180038 0.2645833,-0.2645833 0,-0.1465795 -0.1180039,-0.2645833 -0.2645833,-0.2645833 H 3.5491369 l 0.6707602,-0.67076 c 0.1036474,-0.1036474 0.1036474,-0.2704901 0,-0.3741374 -0.1036473,-0.1036474 -0.2704901,-0.1036474 -0.3741375,0 L 3.1749997,2.2716958 V 1.3229165 c 0,-0.1465794 -0.1180039,-0.2645833 -0.2645833,-0.2645833 z"
     style="opacity:1;fill:#edd400;fill-opacity:1;stroke:none;stroke-width:0.52916664;stroke-linecap:round;stroke-linejoin:miter;stroke-miterlimit:4;stroke-dasharray:none;stroke-dashoffset:0;stroke-opacity:1" />
  <path
     style="opacity:1;fill:#302b00;fill-opacity:1;stroke:none;stroke-width:0.52916664;stroke-linecap:round;stroke-linejoin:miter;stroke-miterlimit:4;stroke-dasharray:none;stroke-dashoffset:0;stroke-opacity:1"
     d="m 14.022916,0.52916662 c -0.3574,0 -0.654889,0.2354751 -0.754993,0.55913898 -0.299653,-0.15809569 -0.675898,-0.11423405 -0.928625,0.1384928 -0.252727,0.2527268 -0.296589,0.6289726 -0.138493,0.9286254 -0.323664,0.100104 -0.559139,0.3975923 -0.559139,0.7549926 0,0.3574003 0.235475,0.6548887 0.559139,0.7549926 -0.158096,0.2996529 -0.114234,0.6758987 0.138493,0.9286254 0.252727,0.2527269 0.628972,0.2965885 0.928625,0.1384929 0.100104,0.3236638 0.397592,0.5591389 0.754993,0.5591389 0.3574,0 0.654889,-0.2354751 0.754993,-0.5591389 0.299652,0.1580956 0.675898,0.114234 0.928625,-0.1384929 0.252727,-0.2527267 0.296588,-0.6289725 0.138493,-0.9286254 0.323663,-0.100104 0.559139,-0.3975923 0.559139,-0.7549926 0,-0.3574003 -0.235476,-0.6548886 -0.559139,-0.7549926 C 16.003122,1.855771 15.959261,1.4795252 15.706534,1.2267984 15.453807,0.97407163 15.077561,0.93020999 14.777909,1.0883056 14.677805,0.76464174 14.380316,0.52916662 14.022916,0.52916662 Z m 0,0.52916658 c 0.146579,0 0.264583,0.1180039 0.264583,0.2645833 V 1.5234211 L 14.022916,1.7880044 13.758333,1.5234211 V 1.3229165 c 0,-0.1465794 0.118003,-0.2645833 0.264583,-0.2645833 z m -1.122412,0.4645711 c 0.06763,0 0.135245,0.026208 0.187069,0.078031 l 0.141593,0.1415934 V 2.1166665 H 12.855029 L 12.713435,1.9750731 c -0.103647,-0.1036474 -0.103647,-0.2704901 0,-0.3741374 0.05182,-0.051824 0.119436,-0.078031 0.187069,-0.078031 z m 2.244824,0 c 0.06763,0 0.135245,0.026208 0.187069,0.078031 0.103647,0.1036474 0.103647,0.27049 0,0.3741374 L 15.190803,2.1166665 H 14.816666 V 1.7425291 l 0.141593,-0.1415934 c 0.05182,-0.051824 0.119436,-0.078031 0.187069,-0.078031 z m -2.709912,1.1229288 h 0.200504 l 0.264584,0.2645833 -0.264584,0.2645833 h -0.200504 c -0.146579,0 -0.264583,-0.1180039 -0.264583,-0.2645833 0,-0.1465794 0.118004,-0.2645833 0.264583,-0.2645833 z m 1.477946,0 h 0.219108 l 0.155029,0.1550293 v 0.219108 L 14.13247,3.1749997 H 13.913362 L 13.758333,3.0199704 v -0.219108 z m 1.496549,0 h 0.200505 c 0.146579,0 0.264583,0.1180039 0.264583,0.2645833 0,0.1465794 -0.118004,0.2645833 -0.264583,0.2645833 H 15.409911 L 15.145328,2.9104164 Z m -2.554882,1.0583332 h 0.374137 v 0.3741374 l -0.141593,0.1415934 c -0.103648,0.1036474 -0.270491,0.1036473 -0.374138,0 -0.103647,-0.1036472 -0.103647,-0.2704899 0,-0.3741374 z m 1.961637,0 h 0.374137 l 0.141594,0.1415934 c 0.103647,0.1036475 0.103647,0.2704901 0,0.3741374 -0.103648,0.1036472 -0.270491,0.1036473 -0.374138,0 L 14.816666,4.0783037 Z m -0.79375,0.3286621 0.264583,0.2645833 v 0.2005046 c 0,0.1465795 -0.118004,0.2645833 -0.264583,0.2645833 -0.14658,0 -0.264583,-0.1180038 -0.264583,-0.2645833 V 4.2974117 Z"
     id="path1197" />
  <path
     style="opacity:1;fill:#edd400;fill-opacity:1;stroke:none;stroke-width:0.52916664;stroke-linecap:round;stroke-linejoin:miter;stroke-miterlimit:4;stroke-dasharray:none;stroke-dashoffset:0;stroke-opacity:1"
     d="m 14.022916,1.0583332 c -0.14658,0 -0.264583,0.1180039 -0.264583,0.2645833 v 0.9487793 l -0.67076,-0.6707601 c -0.103648,-0.1036473 -0.270491,-0.1036474 -0.374138,0 -0.103647,0.1036474 -0.103647,0.27049 0,0.3741374 l 0.67076,0.67076 h -0.948779 c -0.146579,0 -0.264583,0.1180038 -0.264583,0.2645833 0,0.1465795 0.118004,0.2645833 0.264583,0.2645833 h 0.948779 l -0.67076,0.67076 c -0.103647,0.1036475 -0.103647,0.27049 0,0.3741374 0.103647,0.1036474 0.27049,0.1036474 0.374138,0 l 0.67076,-0.67076 v 0.9487792 c 0,0.1465795 0.118003,0.2645833 0.264583,0.2645833 0.146579,0 0.264583,-0.1180038 0.264583,-0.2645833 V 3.5491371 l 0.67076,0.67076 c 0.103647,0.1036474 0.27049,0.1036474 0.374138,0 0.103647,-0.1036474 0.103647,-0.2704901 0,-0.3741374 l -0.670761,-0.67076 h 0.94878 c 0.146579,0 0.264583,-0.1180038 0.264583,-0.2645833 0,-0.1465795 -0.118004,-0.2645833 -0.264583,-0.2645833 h -0.94878 l 0.670761,-0.67076 c 0.103647,-0.1036474 0.103647,-0.2704901 0,-0.3741374 -0.103648,-0.1036474 -0.270491,-0.1036474 -0.374138,0 l -0.67076,0.6707601 V 1.3229165 c 0,-0.1465794 -0.118004,-0.2645833 -0.264583,-0.2645833 z"
     id="path1199" />
  <path
     id="path1203"
     d="m 8.4666659,0.52916662 c -0.3574002,0 -0.6548887,0.2354751 -0.7549927,0.55913898 C 7.4120204,0.93020991 7.0357747,0.97407155 6.7830479,1.2267984 6.5303211,1.4795252 6.4864593,1.855771 6.644555,2.1554238 6.3208913,2.2555278 6.0854161,2.5530161 6.0854161,2.9104164 c 0,0.3574003 0.2354752,0.6548887 0.5591389,0.7549926 -0.1580957,0.2996529 -0.1142339,0.6758987 0.1384929,0.9286254 0.2527268,0.2527269 0.6289725,0.2965885 0.9286253,0.1384929 0.100104,0.3236638 0.3975922,0.5591389 0.7549927,0.5591389 0.3574002,0 0.6548886,-0.2354751 0.7549927,-0.5591389 0.2996527,0.1580956 0.6758984,0.114234 0.9286254,-0.1384929 0.252727,-0.2527267 0.296588,-0.6289725 0.138493,-0.9286254 0.323663,-0.100104 0.559139,-0.3975923 0.559139,-0.7549926 0,-0.3574003 -0.235476,-0.6548886 -0.559139,-0.7549926 C 10.446872,1.855771 10.403011,1.4795252 10.150284,1.2267984 9.897557,0.97407163 9.5213113,0.93020999 9.2216586,1.0883056 9.1215545,0.76464174 8.8240663,0.52916662 8.4666659,0.52916662 Z m 0,0.52916658 c 0.1465794,0 0.2645833,0.1180039 0.2645833,0.2645833 V 1.5234211 L 8.4666659,1.7880044 8.2020826,1.5234211 V 1.3229165 c 0,-0.1465794 0.1180039,-0.2645833 0.2645833,-0.2645833 z M 7.3442537,1.5229043 c 0.067632,0 0.1352452,0.026208 0.1870689,0.078031 L 7.6729159,1.7425291 V 2.1166665 H 7.2987787 L 7.1571851,1.9750731 c -0.1036473,-0.1036474 -0.1036473,-0.2704901 0,-0.3741374 0.051824,-0.051824 0.1194364,-0.078031 0.1870686,-0.078031 z m 2.2448243,0 c 0.067632,0 0.1352449,0.026208 0.1870686,0.078031 0.1036471,0.1036474 0.1036474,0.27049 0,0.3741374 L 9.634553,2.1166665 H 9.2604158 V 1.7425291 L 9.4020091,1.6009357 C 9.4538328,1.5491121 9.5214455,1.5229043 9.589078,1.5229043 Z M 6.879166,2.6458331 H 7.0796704 L 7.3442537,2.9104164 7.0796704,3.1749997 H 6.879166 c -0.1465794,0 -0.2645833,-0.1180039 -0.2645833,-0.2645833 0,-0.1465794 0.1180039,-0.2645833 0.2645833,-0.2645833 z m 1.477946,0 h 0.2191078 l 0.1550294,0.1550293 v 0.219108 L 8.5762198,3.1749997 H 8.357112 L 8.2020826,3.0199704 v -0.219108 z m 1.4965493,0 h 0.2005047 c 0.146579,0 0.264583,0.1180039 0.264583,0.2645833 0,0.1465794 -0.118004,0.2645833 -0.264583,0.2645833 H 9.8536613 L 9.589078,2.9104164 Z M 7.2987787,3.7041663 H 7.6729159 V 4.0783037 L 7.5313226,4.2198971 c -0.1036473,0.1036474 -0.2704901,0.1036473 -0.3741375,0 -0.1036473,-0.1036472 -0.1036473,-0.2704899 0,-0.3741374 z m 1.9616371,0 H 9.634553 l 0.1415936,0.1415934 c 0.1036474,0.1036475 0.1036474,0.2704901 0,0.3741374 -0.1036473,0.1036472 -0.2704901,0.1036473 -0.3741375,0 L 9.2604158,4.0783037 Z M 8.4666659,4.0328284 8.7312492,4.2974117 v 0.2005046 c 0,0.1465795 -0.1180039,0.2645833 -0.2645833,0.2645833 -0.1465794,0 -0.2645833,-0.1180038 -0.2645833,-0.2645833 V 4.2974117 Z"
     style="opacity:1;fill:#302b00;fill-opacity:1;stroke:none;stroke-width:0.52916664;stroke-linecap:round;stroke-linejoin:miter;stroke-miterlimit:4;stroke-dasharray:none;stroke-dashoffset:0;stroke-opacity:1" />
  <path
     id="path1205"
     d="m 8.4666659,1.0583332 c -0.1465794,0 -0.2645833,0.1180039 -0.2645833,0.2645833 v 0.9487793 l -0.67076,-0.6707601 c -0.1036473,-0.1036473 -0.2704901,-0.1036474 -0.3741375,0 -0.1036473,0.1036474 -0.1036473,0.27049 0,0.3741374 l 0.6707603,0.67076 H 6.879166 c -0.1465794,0 -0.2645833,0.1180038 -0.2645833,0.2645833 0,0.1465795 0.1180039,0.2645833 0.2645833,0.2645833 h 0.9487794 l -0.6707603,0.67076 c -0.1036473,0.1036475 -0.1036473,0.27049 0,0.3741374 0.1036474,0.1036474 0.2704902,0.1036474 0.3741375,0 l 0.67076,-0.67076 v 0.9487792 c 0,0.1465795 0.1180039,0.2645833 0.2645833,0.2645833 0.1465794,0 0.2645833,-0.1180038 0.2645833,-0.2645833 V 3.5491371 l 0.6707599,0.67076 c 0.1036474,0.1036474 0.2704902,0.1036474 0.3741375,0 0.1036474,-0.1036474 0.1036474,-0.2704901 0,-0.3741374 l -0.6707602,-0.67076 h 0.9487796 c 0.146579,0 0.264583,-0.1180038 0.264583,-0.2645833 0,-0.1465795 -0.118004,-0.2645833 -0.264583,-0.2645833 H 9.1053864 l 0.6707602,-0.67076 c 0.1036474,-0.1036474 0.1036474,-0.2704901 0,-0.3741374 -0.1036473,-0.1036474 -0.2704901,-0.1036474 -0.3741375,0 L 8.7312492,2.2716958 V 1.3229165 c 0,-0.1465794 -0.1180039,-0.2645833 -0.2645833,-0.2645833 z"
     style="opacity:1;fill:#edd400;fill-opacity:1;stroke:none;stroke-width:0.52916664;stroke-linecap:round;stroke-linejoin:miter;stroke-miterlimit:4;stroke-dasharray:none;stroke-dashoffset:0;stroke-opacity:1" />
  <path
     style="opacity:1;fill:#302b00;fill-opacity:1;stroke:none;stroke-width:0.52916664;stroke-linecap:round;stroke-linejoin:miter;stroke-miterlimit:4;stroke-dasharray:none;stroke-dashoffset:0;stroke-opacity:1"
     d="m 2.9104161,11.641666 c -0.3574002,0 -0.6548887,0.235475 -0.7549927,0.559138 -0.2996528,-0.158095 -0.6758985,-0.114234 -0.9286253,0.138493 -0.25272678,0.252727 -0.29658861,0.628973 -0.1384929,0.928626 -0.32366374,0.100104 -0.55913892,0.397592 -0.55913892,0.754992 0,0.357401 0.23547518,0.654889 0.55913892,0.754993 -0.15809571,0.299653 -0.11423388,0.675899 0.1384929,0.928625 0.2527268,0.252727 0.6289725,0.296589 0.9286253,0.138493 0.100104,0.323664 0.3975922,0.559139 0.7549927,0.559139 0.3574002,0 0.6548886,-0.235475 0.7549927,-0.559139 0.2996527,0.158096 0.6758984,0.114234 0.9286252,-0.138493 0.2527268,-0.252726 0.2965886,-0.628972 0.138493,-0.928625 0.3236637,-0.100104 0.5591389,-0.397592 0.5591389,-0.754993 0,-0.3574 -0.2354752,-0.654888 -0.5591389,-0.754992 C 4.8906226,12.96827 4.8467608,12.592024 4.594034,12.339297 4.3413072,12.086571 3.9650615,12.042709 3.6654088,12.200804 3.5653047,11.877141 3.2678165,11.641666 2.9104161,11.641666 Z m 0,0.529166 c 0.1465794,0 0.2645833,0.118004 0.2645833,0.264583 V 12.63592 L 2.9104161,12.900503 2.6458328,12.63592 v -0.200505 c 0,-0.146579 0.1180039,-0.264583 0.2645833,-0.264583 z m -1.1224122,0.464571 c 0.067632,0 0.1352452,0.02621 0.1870689,0.07803 l 0.1415933,0.141593 v 0.374137 H 1.7425289 L 1.6009353,13.087572 c -0.1036473,-0.103647 -0.1036473,-0.27049 0,-0.374137 0.051824,-0.05182 0.1194364,-0.07803 0.1870686,-0.07803 z m 2.2448243,0 c 0.067632,0 0.1352449,0.02621 0.1870686,0.07803 0.1036471,0.103647 0.1036474,0.27049 0,0.374137 L 4.0783032,13.229165 H 3.704166 v -0.374137 l 0.1415933,-0.141593 c 0.051824,-0.05182 0.1194364,-0.07803 0.1870689,-0.07803 z m -2.709912,1.122929 h 0.2005044 l 0.2645833,0.264583 -0.2645833,0.264584 H 1.3229162 c -0.1465794,0 -0.2645833,-0.118004 -0.2645833,-0.264584 0,-0.146579 0.1180039,-0.264583 0.2645833,-0.264583 z m 1.477946,0 H 3.01997 l 0.1550294,0.155029 v 0.219108 L 3.01997,14.287499 H 2.8008622 l -0.1550294,-0.15503 v -0.219108 z m 1.4965493,0 h 0.2005044 c 0.1465794,0 0.2645833,0.118004 0.2645833,0.264583 0,0.14658 -0.1180039,0.264584 -0.2645833,0.264584 H 4.2974115 L 4.0328282,14.022915 Z m -2.5548826,1.058333 h 0.3741372 v 0.374138 l -0.1415933,0.141593 c -0.1036473,0.103647 -0.2704901,0.103647 -0.3741375,0 -0.1036473,-0.103647 -0.1036473,-0.27049 0,-0.374137 z m 1.9616371,0 h 0.3741372 l 0.1415936,0.141594 c 0.1036474,0.103647 0.1036474,0.27049 0,0.374137 -0.1036473,0.103647 -0.2704901,0.103647 -0.3741375,0 L 3.704166,15.190803 Z m -0.7937499,0.328662 0.2645833,0.264584 v 0.200504 c 0,0.14658 -0.1180039,0.264583 -0.2645833,0.264583 -0.1465794,0 -0.2645833,-0.118003 -0.2645833,-0.264583 v -0.200504 z"
     id="path1220" />
  <path
     style="opacity:1;fill:#edd400;fill-opacity:1;stroke:none;stroke-width:0.52916664;stroke-linecap:round;stroke-linejoin:miter;stroke-miterlimit:4;stroke-dasharray:none;stroke-dashoffset:0;stroke-opacity:1"
     d="m 2.9104161,12.170832 c -0.1465794,0 -0.2645833,0.118004 -0.2645833,0.264583 v 0.94878 l -0.67076,-0.67076 c -0.1036473,-0.103648 -0.2704901,-0.103648 -0.3741375,0 -0.1036473,0.103647 -0.1036473,0.27049 0,0.374137 l 0.6707603,0.67076 H 1.3229162 c -0.1465794,0 -0.2645833,0.118004 -0.2645833,0.264583 0,0.14658 0.1180039,0.264584 0.2645833,0.264584 h 0.9487794 l -0.6707603,0.67076 c -0.1036473,0.103647 -0.1036473,0.27049 0,0.374137 0.1036474,0.103647 0.2704902,0.103647 0.3741375,0 l 0.67076,-0.67076 v 0.948779 c 0,0.14658 0.1180039,0.264583 0.2645833,0.264583 0.1465794,0 0.2645833,-0.118003 0.2645833,-0.264583 v -0.948779 l 0.6707599,0.67076 c 0.1036474,0.103647 0.2704902,0.103647 0.3741375,0 0.1036474,-0.103647 0.1036474,-0.27049 0,-0.374137 l -0.6707602,-0.67076 h 0.9487793 c 0.1465794,0 0.2645833,-0.118004 0.2645833,-0.264584 0,-0.146579 -0.1180039,-0.264583 -0.2645833,-0.264583 H 3.5491366 l 0.6707602,-0.67076 c 0.1036474,-0.103647 0.1036474,-0.27049 0,-0.374137 -0.1036473,-0.103648 -0.2704901,-0.103648 -0.3741375,0 l -0.6707599,0.67076 v -0.94878 c 0,-0.146579 -0.1180039,-0.264583 -0.2645833,-0.264583 z"
     id="path1222" />
  <path
     id="path1226"
     d="m 14.022916,11.641666 c -0.3574,0 -0.654889,0.235475 -0.754993,0.559138 -0.299653,-0.158095 -0.675898,-0.114234 -0.928625,0.138493 -0.252727,0.252727 -0.296589,0.628973 -0.138493,0.928626 -0.323664,0.100104 -0.559139,0.397592 -0.559139,0.754992 0,0.357401 0.235475,0.654889 0.559139,0.754993 -0.158096,0.299653 -0.114234,0.675899 0.138493,0.928625 0.252727,0.252727 0.628972,0.296589 0.928625,0.138493 0.100104,0.323664 0.397592,0.559139 0.754993,0.559139 0.3574,0 0.654889,-0.235475 0.754993,-0.559139 0.299652,0.158096 0.675898,0.114234 0.928625,-0.138493 0.252727,-0.252726 0.296588,-0.628972 0.138493,-0.928625 0.323663,-0.100104 0.559139,-0.397592 0.559139,-0.754993 0,-0.3574 -0.235476,-0.654888 -0.559139,-0.754992 0.158095,-0.299653 0.114234,-0.675899 -0.138493,-0.928626 -0.252727,-0.252726 -0.628973,-0.296588 -0.928625,-0.138493 -0.100104,-0.323663 -0.397593,-0.559138 -0.754993,-0.559138 z m 0,0.529166 c 0.146579,0 0.264583,0.118004 0.264583,0.264583 v 0.200505 l -0.264583,0.264583 -0.264583,-0.264583 v -0.200505 c 0,-0.146579 0.118003,-0.264583 0.264583,-0.264583 z m -1.122412,0.464571 c 0.06763,0 0.135245,0.02621 0.187069,0.07803 l 0.141593,0.141593 v 0.374137 H 12.855029 L 12.713435,13.08757 c -0.103647,-0.103647 -0.103647,-0.27049 0,-0.374137 0.05182,-0.05182 0.119436,-0.07803 0.187069,-0.07803 z m 2.244824,0 c 0.06763,0 0.135245,0.02621 0.187069,0.07803 0.103647,0.103647 0.103647,0.27049 0,0.374137 l -0.141594,0.141593 h -0.374137 v -0.374137 l 0.141593,-0.141593 c 0.05182,-0.05182 0.119436,-0.07803 0.187069,-0.07803 z m -2.709912,1.122929 h 0.200504 l 0.264584,0.264583 -0.264584,0.264584 h -0.200504 c -0.146579,0 -0.264583,-0.118004 -0.264583,-0.264584 0,-0.146579 0.118004,-0.264583 0.264583,-0.264583 z m 1.477946,0 h 0.219108 l 0.155029,0.155029 v 0.219108 l -0.155029,0.15503 h -0.219108 l -0.155029,-0.15503 v -0.219108 z m 1.496549,0 h 0.200505 c 0.146579,0 0.264583,0.118004 0.264583,0.264583 0,0.14658 -0.118004,0.264584 -0.264583,0.264584 h -0.200505 l -0.264583,-0.264584 z m -2.554882,1.058333 h 0.374137 v 0.374138 l -0.141593,0.141593 c -0.103648,0.103647 -0.270491,0.103647 -0.374138,0 -0.103647,-0.103647 -0.103647,-0.27049 0,-0.374137 z m 1.961637,0 h 0.374137 l 0.141594,0.141594 c 0.103647,0.103647 0.103647,0.27049 0,0.374137 -0.103648,0.103647 -0.270491,0.103647 -0.374138,0 l -0.141593,-0.141593 z m -0.79375,0.328662 0.264583,0.264584 v 0.200504 c 0,0.14658 -0.118004,0.264583 -0.264583,0.264583 -0.14658,0 -0.264583,-0.118003 -0.264583,-0.264583 v -0.200504 z"
     style="opacity:1;fill:#302b00;fill-opacity:1;stroke:none;stroke-width:0.52916664;stroke-linecap:round;stroke-linejoin:miter;stroke-miterlimit:4;stroke-dasharray:none;stroke-dashoffset:0;stroke-opacity:1" />
  <path
     id="path1228"
     d="m 14.022916,12.170832 c -0.14658,0 -0.264583,0.118004 -0.264583,0.264583 v 0.94878 l -0.67076,-0.67076 c -0.103648,-0.103648 -0.270491,-0.103648 -0.374138,0 -0.103647,0.103647 -0.103647,0.27049 0,0.374137 l 0.67076,0.67076 h -0.948779 c -0.146579,0 -0.264583,0.118004 -0.264583,0.264583 0,0.14658 0.118004,0.264584 0.264583,0.264584 h 0.948779 l -0.67076,0.67076 c -0.103647,0.103647 -0.103647,0.27049 0,0.374137 0.103647,0.103647 0.27049,0.103647 0.374138,0 l 0.67076,-0.67076 v 0.948779 c 0,0.14658 0.118003,0.264583 0.264583,0.264583 0.146579,0 0.264583,-0.118003 0.264583,-0.264583 v -0.948779 l 0.67076,0.67076 c 0.103647,0.103647 0.27049,0.103647 0.374138,0 0.103647,-0.103647 0.103647,-0.27049 0,-0.374137 l -0.670761,-0.67076 h 0.94878 c 0.146579,0 0.264583,-0.118004 0.264583,-0.264584 0,-0.146579 -0.118004,-0.264583 -0.264583,-0.264583 h -0.94878 l 0.670761,-0.67076 c 0.103647,-0.103647 0.103647,-0.27049 0,-0.374137 -0.103648,-0.103648 -0.270491,-0.103648 -0.374138,0 l -0.67076,0.67076 v -0.94878 c 0,-0.146579 -0.118004,-0.264583 -0.264583,-0.264583 z"
     style="opacity:1;fill:#edd400;fill-opacity:1;stroke:none;stroke-width:0.52916664;stroke-linecap:round;stroke-linejoin:miter;stroke-miterlimit:4;stroke-dasharray:none;stroke-dashoffset:0;stroke-opacity:1" />
  <path
     style="opacity:1;fill:#302b00;fill-opacity:1;stroke:none;stroke-width:0.52916664;stroke-linecap:round;stroke-linejoin:miter;stroke-miterlimit:4;stroke-dasharray:none;stroke-dashoffset:0;stroke-opacity:1"
     d="m 8.4666659,11.641666 c -0.3574002,0 -0.6548887,0.235475 -0.7549927,0.559138 C 7.4120204,12.042709 7.0357747,12.08657 6.7830479,12.339297 6.5303211,12.592024 6.4864593,12.96827 6.644555,13.267923 c -0.3236637,0.100104 -0.5591389,0.397592 -0.5591389,0.754992 0,0.357401 0.2354752,0.654889 0.5591389,0.754993 -0.1580957,0.299653 -0.1142339,0.675899 0.1384929,0.928625 0.2527268,0.252727 0.6289725,0.296589 0.9286253,0.138493 0.100104,0.323664 0.3975922,0.559139 0.7549927,0.559139 0.3574002,0 0.6548886,-0.235475 0.7549927,-0.559139 0.2996527,0.158096 0.6758984,0.114234 0.9286254,-0.138493 0.252727,-0.252726 0.296588,-0.628972 0.138493,-0.928625 0.323663,-0.100104 0.559139,-0.397592 0.559139,-0.754993 0,-0.3574 -0.235476,-0.654888 -0.559139,-0.754992 0.158095,-0.299653 0.114234,-0.675899 -0.138493,-0.928626 C 9.897557,12.086571 9.5213113,12.042709 9.2216586,12.200804 9.1215545,11.877141 8.8240663,11.641666 8.4666659,11.641666 Z m 0,0.529166 c 0.1465794,0 0.2645833,0.118004 0.2645833,0.264583 V 12.63592 L 8.4666659,12.900503 8.2020826,12.63592 v -0.200505 c 0,-0.146579 0.1180039,-0.264583 0.2645833,-0.264583 z m -1.1224122,0.464571 c 0.067632,0 0.1352452,0.02621 0.1870689,0.07803 l 0.1415933,0.141593 v 0.374137 H 7.2987787 L 7.1571851,13.087572 c -0.1036473,-0.103647 -0.1036473,-0.27049 0,-0.374137 0.051824,-0.05182 0.1194364,-0.07803 0.1870686,-0.07803 z m 2.2448243,0 c 0.067632,0 0.1352449,0.02621 0.1870686,0.07803 0.1036471,0.103647 0.1036474,0.27049 0,0.374137 L 9.634553,13.229165 H 9.2604158 v -0.374137 l 0.1415933,-0.141593 c 0.051824,-0.05182 0.1194364,-0.07803 0.1870689,-0.07803 z m -2.709912,1.122929 h 0.2005044 l 0.2645833,0.264583 -0.2645833,0.264584 H 6.879166 c -0.1465794,0 -0.2645833,-0.118004 -0.2645833,-0.264584 0,-0.146579 0.1180039,-0.264583 0.2645833,-0.264583 z m 1.477946,0 h 0.2191078 l 0.1550294,0.155029 v 0.219108 l -0.1550294,0.15503 H 8.357112 l -0.1550294,-0.15503 v -0.219108 z m 1.4965493,0 h 0.2005047 c 0.146579,0 0.264583,0.118004 0.264583,0.264583 0,0.14658 -0.118004,0.264584 -0.264583,0.264584 H 9.8536613 L 9.589078,14.022915 Z m -2.5548826,1.058333 h 0.3741372 v 0.374138 l -0.1415933,0.141593 c -0.1036473,0.103647 -0.2704901,0.103647 -0.3741375,0 -0.1036473,-0.103647 -0.1036473,-0.27049 0,-0.374137 z m 1.9616371,0 H 9.634553 l 0.1415936,0.141594 c 0.1036474,0.103647 0.1036474,0.27049 0,0.374137 -0.1036473,0.103647 -0.2704901,0.103647 -0.3741375,0 L 9.2604158,15.190803 Z m -0.7937499,0.328662 0.2645833,0.264584 v 0.200504 c 0,0.14658 -0.1180039,0.264583 -0.2645833,0.264583 -0.1465794,0 -0.2645833,-0.118003 -0.2645833,-0.264583 v -0.200504 z"
     id="path1232" />
  <path
     style="opacity:1;fill:#edd400;fill-opacity:1;stroke:none;stroke-width:0.52916664;stroke-linecap:round;stroke-linejoin:miter;stroke-miterlimit:4;stroke-dasharray:none;stroke-dashoffset:0;stroke-opacity:1"
     d="m 8.4666659,12.170832 c -0.1465794,0 -0.2645833,0.118004 -0.2645833,0.264583 v 0.94878 l -0.67076,-0.67076 c -0.1036473,-0.103648 -0.2704901,-0.103648 -0.3741375,0 -0.1036473,0.103647 -0.1036473,0.27049 0,0.374137 l 0.6707603,0.67076 H 6.879166 c -0.1465794,0 -0.2645833,0.118004 -0.2645833,0.264583 0,0.14658 0.1180039,0.264584 0.2645833,0.264584 h 0.9487794 l -0.6707603,0.67076 c -0.1036473,0.103647 -0.1036473,0.27049 0,0.374137 0.1036474,0.103647 0.2704902,0.103647 0.3741375,0 l 0.67076,-0.67076 v 0.948779 c 0,0.14658 0.1180039,0.264583 0.2645833,0.264583 0.1465794,0 0.2645833,-0.118003 0.2645833,-0.264583 v -0.948779 l 0.6707599,0.67076 c 0.1036474,0.103647 0.2704902,0.103647 0.3741375,0 0.1036474,-0.103647 0.1036474,-0.27049 0,-0.374137 l -0.6707602,-0.67076 h 0.9487796 c 0.146579,0 0.264583,-0.118004 0.264583,-0.264584 0,-0.146579 -0.118004,-0.264583 -0.264583,-0.264583 H 9.1053864 l 0.6707602,-0.67076 c 0.1036474,-0.103647 0.1036474,-0.27049 0,-0.374137 -0.1036473,-0.103648 -0.2704901,-0.103648 -0.3741375,0 l -0.6707599,0.67076 v -0.94878 c 0,-0.146579 -0.1180039,-0.264583 -0.2645833,-0.264583 z"
     id="path1234" />
  <path
     id="path1240"
     d="m 2.9104161,6.0854162 c -0.3574002,0 -0.6548887,0.2354751 -0.7549927,0.559139 C 1.8557706,6.4864595 1.4795249,6.5303212 1.2267981,6.783048 0.97407132,7.0357748 0.93020949,7.4120206 1.0883052,7.7116734 0.76464146,7.8117774 0.52916628,8.1092657 0.52916628,8.466666 c 0,0.3574003 0.23547518,0.6548887 0.55913892,0.7549926 -0.15809571,0.2996529 -0.11423388,0.6758987 0.1384929,0.9286254 0.2527268,0.252727 0.6289725,0.296588 0.9286253,0.138493 0.100104,0.323664 0.3975922,0.559139 0.7549927,0.559139 0.3574002,0 0.6548886,-0.235475 0.7549927,-0.559139 0.2996527,0.158096 0.6758984,0.114234 0.9286252,-0.138493 C 4.8467608,9.8975573 4.8906226,9.5213115 4.732527,9.2216586 5.0561907,9.1215546 5.2916659,8.8240663 5.2916659,8.466666 5.2916659,8.1092657 5.0561907,7.8117774 4.732527,7.7116734 4.8906226,7.4120206 4.8467608,7.0357748 4.594034,6.783048 4.3413072,6.5303212 3.9650615,6.4864596 3.6654088,6.6445552 3.5653047,6.3208913 3.2678165,6.0854162 2.9104161,6.0854162 Z m 0,0.5291666 c 0.1465794,0 0.2645833,0.1180039 0.2645833,0.2645833 V 7.0796707 L 2.9104161,7.344254 2.6458328,7.0796707 V 6.8791661 c 0,-0.1465794 0.1180039,-0.2645833 0.2645833,-0.2645833 z M 1.7880039,7.0791539 c 0.067632,0 0.1352452,0.026208 0.1870689,0.078031 L 2.1166661,7.2987787 V 7.6729161 H 1.7425289 L 1.6009353,7.5313227 c -0.1036473,-0.1036474 -0.1036473,-0.2704901 0,-0.3741374 0.051824,-0.051824 0.1194364,-0.078031 0.1870686,-0.078031 z m 2.2448243,0 c 0.067632,0 0.1352449,0.026208 0.1870686,0.078031 0.1036471,0.1036474 0.1036474,0.27049 0,0.3741374 L 4.0783032,7.6729161 H 3.704166 V 7.2987787 L 3.8457593,7.1571853 C 3.897583,7.1053617 3.9651957,7.0791539 4.0328282,7.0791539 Z M 1.3229162,8.2020827 H 1.5234206 L 1.7880039,8.466666 1.5234206,8.7312493 H 1.3229162 c -0.1465794,0 -0.2645833,-0.1180039 -0.2645833,-0.2645833 0,-0.1465794 0.1180039,-0.2645833 0.2645833,-0.2645833 z m 1.477946,0 H 3.01997 L 3.1749994,8.357112 V 8.57622 L 3.01997,8.7312493 H 2.8008622 L 2.6458328,8.57622 V 8.357112 Z m 1.4965493,0 h 0.2005044 c 0.1465794,0 0.2645833,0.1180039 0.2645833,0.2645833 0,0.1465794 -0.1180039,0.2645833 -0.2645833,0.2645833 H 4.2974115 L 4.0328282,8.466666 Z M 1.7425289,9.2604159 H 2.1166661 V 9.6345533 L 1.9750728,9.7761467 c -0.1036473,0.1036474 -0.2704901,0.1036473 -0.3741375,0 -0.1036473,-0.1036472 -0.1036473,-0.2704899 0,-0.3741374 z m 1.9616371,0 h 0.3741372 l 0.1415936,0.1415934 c 0.1036474,0.1036475 0.1036474,0.2704901 0,0.3741374 -0.1036473,0.1036472 -0.2704901,0.1036473 -0.3741375,0 L 3.704166,9.6345533 Z M 2.9104161,9.589078 3.1749994,9.8536613 v 0.2005047 c 0,0.146579 -0.1180039,0.264583 -0.2645833,0.264583 -0.1465794,0 -0.2645833,-0.118004 -0.2645833,-0.264583 V 9.8536613 Z"
     style="opacity:1;fill:#302b00;fill-opacity:1;stroke:none;stroke-width:0.52916664;stroke-linecap:round;stroke-linejoin:miter;stroke-miterlimit:4;stroke-dasharray:none;stroke-dashoffset:0;stroke-opacity:1" />
  <path
     id="path1242"
     d="m 2.9104161,6.6145828 c -0.1465794,0 -0.2645833,0.1180039 -0.2645833,0.2645833 v 0.9487793 l -0.67076,-0.6707601 c -0.1036473,-0.1036473 -0.2704901,-0.1036474 -0.3741375,0 -0.1036473,0.1036474 -0.1036473,0.27049 0,0.3741374 l 0.6707603,0.67076 H 1.3229162 c -0.1465794,0 -0.2645833,0.1180038 -0.2645833,0.2645833 0,0.1465795 0.1180039,0.2645833 0.2645833,0.2645833 h 0.9487794 l -0.6707603,0.67076 c -0.1036473,0.1036475 -0.1036473,0.27049 0,0.3741374 0.1036474,0.1036474 0.2704902,0.1036474 0.3741375,0 l 0.67076,-0.67076 v 0.9487793 c 0,0.146579 0.1180039,0.264583 0.2645833,0.264583 0.1465794,0 0.2645833,-0.118004 0.2645833,-0.264583 V 9.1053867 l 0.6707599,0.67076 c 0.1036474,0.1036474 0.2704902,0.1036474 0.3741375,0 0.1036474,-0.1036474 0.1036474,-0.2704901 0,-0.3741374 l -0.6707602,-0.67076 h 0.9487793 c 0.1465794,0 0.2645833,-0.1180038 0.2645833,-0.2645833 0,-0.1465795 -0.1180039,-0.2645833 -0.2645833,-0.2645833 H 3.5491366 l 0.6707602,-0.67076 c 0.1036474,-0.1036474 0.1036474,-0.2704901 0,-0.3741374 -0.1036473,-0.1036474 -0.2704901,-0.1036474 -0.3741375,0 L 3.1749994,7.8279454 V 6.8791661 c 0,-0.1465794 -0.1180039,-0.2645833 -0.2645833,-0.2645833 z"
     style="opacity:1;fill:#edd400;fill-opacity:1;stroke:none;stroke-width:0.52916664;stroke-linecap:round;stroke-linejoin:miter;stroke-miterlimit:4;stroke-dasharray:none;stroke-dashoffset:0;stroke-opacity:1" />
  <path
     style="opacity:1;fill:#302b00;fill-opacity:1;stroke:none;stroke-width:0.52916664;stroke-linecap:round;stroke-linejoin:miter;stroke-miterlimit:4;stroke-dasharray:none;stroke-dashoffset:0;stroke-opacity:1"
     d="m 14.022916,6.0854162 c -0.3574,0 -0.654889,0.2354751 -0.754993,0.559139 -0.299653,-0.1580957 -0.675898,-0.114234 -0.928625,0.1384928 -0.252727,0.2527268 -0.296589,0.6289726 -0.138493,0.9286254 -0.323664,0.100104 -0.559139,0.3975923 -0.559139,0.7549926 0,0.3574003 0.235475,0.6548887 0.559139,0.7549926 -0.158096,0.2996529 -0.114234,0.6758987 0.138493,0.9286254 0.252727,0.252727 0.628972,0.296588 0.928625,0.138493 0.100104,0.323664 0.397592,0.559139 0.754993,0.559139 0.3574,0 0.654889,-0.235475 0.754993,-0.559139 0.299652,0.158096 0.675898,0.114234 0.928625,-0.138493 0.252727,-0.2527267 0.296588,-0.6289725 0.138493,-0.9286254 0.323663,-0.100104 0.559139,-0.3975923 0.559139,-0.7549926 0,-0.3574003 -0.235476,-0.6548886 -0.559139,-0.7549926 C 16.003122,7.4120206 15.959261,7.0357748 15.706534,6.783048 15.453807,6.5303212 15.077561,6.4864596 14.777909,6.6445552 14.677805,6.3208913 14.380316,6.0854162 14.022916,6.0854162 Z m 0,0.5291666 c 0.146579,0 0.264583,0.1180039 0.264583,0.2645833 V 7.0796707 L 14.022916,7.344254 13.758333,7.0796707 V 6.8791661 c 0,-0.1465794 0.118003,-0.2645833 0.264583,-0.2645833 z m -1.122412,0.4645711 c 0.06763,0 0.135245,0.026208 0.187069,0.078031 l 0.141593,0.1415934 V 7.6729161 H 12.855029 L 12.713435,7.5313227 c -0.103647,-0.1036474 -0.103647,-0.2704901 0,-0.3741374 0.05182,-0.051824 0.119436,-0.078031 0.187069,-0.078031 z m 2.244824,0 c 0.06763,0 0.135245,0.026208 0.187069,0.078031 0.103647,0.1036474 0.103647,0.27049 0,0.3741374 L 15.190803,7.6729161 H 14.816666 V 7.2987787 l 0.141593,-0.1415934 c 0.05182,-0.051824 0.119436,-0.078031 0.187069,-0.078031 z M 12.435416,8.2020827 H 12.63592 L 12.900504,8.466666 12.63592,8.7312493 h -0.200504 c -0.146579,0 -0.264583,-0.1180039 -0.264583,-0.2645833 0,-0.1465794 0.118004,-0.2645833 0.264583,-0.2645833 z m 1.477946,0 H 14.13247 L 14.287499,8.357112 V 8.57622 L 14.13247,8.7312493 H 13.913362 L 13.758333,8.57622 V 8.357112 Z m 1.496549,0 h 0.200505 c 0.146579,0 0.264583,0.1180039 0.264583,0.2645833 0,0.1465794 -0.118004,0.2645833 -0.264583,0.2645833 H 15.409911 L 15.145328,8.466666 Z m -2.554882,1.0583332 h 0.374137 v 0.3741374 l -0.141593,0.1415934 c -0.103648,0.1036474 -0.270491,0.1036473 -0.374138,0 -0.103647,-0.1036472 -0.103647,-0.2704899 0,-0.3741374 z m 1.961637,0 h 0.374137 l 0.141594,0.1415934 c 0.103647,0.1036475 0.103647,0.2704901 0,0.3741374 -0.103648,0.1036472 -0.270491,0.1036473 -0.374138,0 L 14.816666,9.6345533 Z m -0.79375,0.3286621 0.264583,0.2645833 v 0.2005047 c 0,0.146579 -0.118004,0.264583 -0.264583,0.264583 -0.14658,0 -0.264583,-0.118004 -0.264583,-0.264583 V 9.8536613 Z"
     id="path1246" />
  <path
     style="opacity:1;fill:#edd400;fill-opacity:1;stroke:none;stroke-width:0.52916664;stroke-linecap:round;stroke-linejoin:miter;stroke-miterlimit:4;stroke-dasharray:none;stroke-dashoffset:0;stroke-opacity:1"
     d="m 14.022916,6.6145828 c -0.14658,0 -0.264583,0.1180039 -0.264583,0.2645833 v 0.9487793 l -0.67076,-0.6707601 c -0.103648,-0.1036473 -0.270491,-0.1036474 -0.374138,0 -0.103647,0.1036474 -0.103647,0.27049 0,0.3741374 l 0.67076,0.67076 h -0.948779 c -0.146579,0 -0.264583,0.1180038 -0.264583,0.2645833 0,0.1465795 0.118004,0.2645833 0.264583,0.2645833 h 0.948779 l -0.67076,0.67076 c -0.103647,0.1036475 -0.103647,0.27049 0,0.3741374 0.103647,0.1036474 0.27049,0.1036474 0.374138,0 l 0.67076,-0.67076 v 0.9487793 c 0,0.146579 0.118003,0.264583 0.264583,0.264583 0.146579,0 0.264583,-0.118004 0.264583,-0.264583 V 9.1053867 l 0.67076,0.67076 c 0.103647,0.1036474 0.27049,0.1036474 0.374138,0 0.103647,-0.1036474 0.103647,-0.2704901 0,-0.3741374 l -0.670761,-0.67076 h 0.94878 c 0.146579,0 0.264583,-0.1180038 0.264583,-0.2645833 0,-0.1465795 -0.118004,-0.2645833 -0.264583,-0.2645833 h -0.94878 l 0.670761,-0.67076 c 0.103647,-0.1036474 0.103647,-0.2704901 0,-0.3741374 -0.103648,-0.1036474 -0.270491,-0.1036474 -0.374138,0 l -0.67076,0.6707601 V 6.8791661 c 0,-0.1465794 -0.118004,-0.2645833 -0.264583,-0.2645833 z"
     id="path1248" />
  <path
     id="path1252"
     d="m 8.4666659,6.0854162 c -0.3574002,0 -0.6548887,0.2354751 -0.7549927,0.559139 C 7.4120204,6.4864595 7.0357747,6.5303212 6.7830479,6.783048 6.5303211,7.0357748 6.4864593,7.4120206 6.644555,7.7116734 6.3208913,7.8117774 6.0854161,8.1092657 6.0854161,8.466666 c 0,0.3574003 0.2354752,0.6548887 0.5591389,0.7549926 -0.1580957,0.2996529 -0.1142339,0.6758987 0.1384929,0.9286254 0.2527268,0.252727 0.6289725,0.296588 0.9286253,0.138493 0.100104,0.323664 0.3975922,0.559139 0.7549927,0.559139 0.3574002,0 0.6548886,-0.235475 0.7549927,-0.559139 0.2996527,0.158096 0.6758984,0.114234 0.9286254,-0.138493 0.252727,-0.2527267 0.296588,-0.6289725 0.138493,-0.9286254 0.323663,-0.100104 0.559139,-0.3975923 0.559139,-0.7549926 0,-0.3574003 -0.235476,-0.6548886 -0.559139,-0.7549926 C 10.446872,7.4120206 10.403011,7.0357748 10.150284,6.783048 9.897557,6.5303212 9.5213113,6.4864596 9.2216586,6.6445552 9.1215545,6.3208913 8.8240663,6.0854162 8.4666659,6.0854162 Z m 0,0.5291666 c 0.1465794,0 0.2645833,0.1180039 0.2645833,0.2645833 V 7.0796707 L 8.4666659,7.344254 8.2020826,7.0796707 V 6.8791661 c 0,-0.1465794 0.1180039,-0.2645833 0.2645833,-0.2645833 z M 7.3442537,7.0791539 c 0.067632,0 0.1352452,0.026208 0.1870689,0.078031 L 7.6729159,7.2987787 V 7.6729161 H 7.2987787 L 7.1571851,7.5313227 c -0.1036473,-0.1036474 -0.1036473,-0.2704901 0,-0.3741374 0.051824,-0.051824 0.1194364,-0.078031 0.1870686,-0.078031 z m 2.2448243,0 c 0.067632,0 0.1352449,0.026208 0.1870686,0.078031 0.1036471,0.1036474 0.1036474,0.27049 0,0.3741374 L 9.634553,7.6729161 H 9.2604158 V 7.2987787 L 9.4020091,7.1571853 C 9.4538328,7.1053617 9.5214455,7.0791539 9.589078,7.0791539 Z M 6.879166,8.2020827 H 7.0796704 L 7.3442537,8.466666 7.0796704,8.7312493 H 6.879166 c -0.1465794,0 -0.2645833,-0.1180039 -0.2645833,-0.2645833 0,-0.1465794 0.1180039,-0.2645833 0.2645833,-0.2645833 z m 1.477946,0 H 8.5762198 L 8.7312492,8.357112 V 8.57622 L 8.5762198,8.7312493 H 8.357112 L 8.2020826,8.57622 V 8.357112 Z m 1.4965493,0 h 0.2005047 c 0.146579,0 0.264583,0.1180039 0.264583,0.2645833 0,0.1465794 -0.118004,0.2645833 -0.264583,0.2645833 H 9.8536613 L 9.589078,8.466666 Z M 7.2987787,9.2604159 H 7.6729159 V 9.6345533 L 7.5313226,9.7761467 c -0.1036473,0.1036474 -0.2704901,0.1036473 -0.3741375,0 -0.1036473,-0.1036472 -0.1036473,-0.2704899 0,-0.3741374 z m 1.9616371,0 H 9.634553 l 0.1415936,0.1415934 c 0.1036474,0.1036475 0.1036474,0.2704901 0,0.3741374 -0.1036473,0.1036472 -0.2704901,0.1036473 -0.3741375,0 L 9.2604158,9.6345533 Z M 8.4666659,9.589078 8.7312492,9.8536613 v 0.2005047 c 0,0.146579 -0.1180039,0.264583 -0.2645833,0.264583 -0.1465794,0 -0.2645833,-0.118004 -0.2645833,-0.264583 V 9.8536613 Z"
     style="opacity:1;fill:#302b00;fill-opacity:1;stroke:none;stroke-width:0.52916664;stroke-linecap:round;stroke-linejoin:miter;stroke-miterlimit:4;stroke-dasharray:none;stroke-dashoffset:0;stroke-opacity:1" />
  <path
     id="path1254"
     d="m 8.4666659,6.6145828 c -0.1465794,0 -0.2645833,0.1180039 -0.2645833,0.2645833 v 0.9487793 l -0.67076,-0.6707601 c -0.1036473,-0.1036473 -0.2704901,-0.1036474 -0.3741375,0 -0.1036473,0.1036474 -0.1036473,0.27049 0,0.3741374 l 0.6707603,0.67076 H 6.879166 c -0.1465794,0 -0.2645833,0.1180038 -0.2645833,0.2645833 0,0.1465795 0.1180039,0.2645833 0.2645833,0.2645833 h 0.9487794 l -0.6707603,0.67076 c -0.1036473,0.1036475 -0.1036473,0.27049 0,0.3741374 0.1036474,0.1036474 0.2704902,0.1036474 0.3741375,0 l 0.67076,-0.67076 v 0.9487793 c 0,0.146579 0.1180039,0.264583 0.2645833,0.264583 0.1465794,0 0.2645833,-0.118004 0.2645833,-0.264583 V 9.1053867 l 0.6707599,0.67076 c 0.1036474,0.1036474 0.2704902,0.1036474 0.3741375,0 0.1036474,-0.1036474 0.1036474,-0.2704901 0,-0.3741374 l -0.6707602,-0.67076 h 0.9487796 c 0.146579,0 0.264583,-0.1180038 0.264583,-0.2645833 0,-0.1465795 -0.118004,-0.2645833 -0.264583,-0.2645833 H 9.1053864 l 0.6707602,-0.67076 c 0.1036474,-0.1036474 0.1036474,-0.2704901 0,-0.3741374 -0.1036473,-0.1036474 -0.2704901,-0.1036474 -0.3741375,0 L 8.7312492,7.8279454 V 6.8791661 c 0,-0.1465794 -0.1180039,-0.2645833 -0.2645833,-0.2645833 z"
     style="opacity:1;fill:#edd400;fill-opacity:1;stroke:none;stroke-width:0.52916664;stroke-linecap:round;stroke-linejoin:miter;stroke-miterlimit:4;stroke-dasharray:none;stroke-dashoffset:0;stroke-opacity:1" />
</svg>
