<?xml version="1.0" encoding="UTF-8" standalone="no"?>
<svg
   xmlns:dc="http://purl.org/dc/elements/1.1/"
   xmlns:cc="http://creativecommons.org/ns#"
   xmlns:rdf="http://www.w3.org/1999/02/22-rdf-syntax-ns#"
   xmlns:svg="http://www.w3.org/2000/svg"
   xmlns="http://www.w3.org/2000/svg"
   id="svg8"
   version="1.1"
   viewBox="0 0 16.933333 16.933334"
   height="64"
   width="64">
  <defs
     id="defs2" />
  <metadata
     id="metadata5">
    <rdf:RDF>
      <cc:Work
         rdf:about="">
        <dc:format>image/svg+xml</dc:format>
        <dc:type
           rdf:resource="http://purl.org/dc/dcmitype/StillImage" />
        <dc:title></dc:title>
      </cc:Work>
    </rdf:RDF>
  </metadata>
  <g
     transform="translate(0,-280.06665)"
     id="layer1">
    <path
       transform="matrix(0.26458334,0,0,0.26458334,0,280.06665)"
       id="rect820"
       d="M 32 2 C 29.784025 2 28 3.7839874 28 6 L 28 22.34375 L 16.443359 10.787109 C 14.876402 9.2201551 12.354067 9.2201551 10.787109 10.787109 C 9.2201785 12.354026 9.2201517 14.876405 10.787109 16.443359 L 22.34375 28 L 6 28 C 3.7839999 28 2 29.784025 2 32 C 2 34.216013 3.7839999 36 6 36 L 22.34375 36 L 10.787109 47.556641 C 9.2201607 49.123595 9.2201785 51.645974 10.787109 53.212891 C 12.354067 54.779845 14.876411 54.779845 16.443359 53.212891 L 28 41.65625 L 28 58 C 28 60.216013 29.784025 62 32 62 C 34.216013 62 36 60.216013 36 58 L 36 41.65625 L 47.556641 53.212891 C 49.123599 54.779845 51.645963 54.779807 53.212891 53.212891 C 54.779849 51.645936 54.779849 49.123595 53.212891 47.556641 L 41.65625 36 L 58 36 C 60.216001 36 62 34.216013 62 32 C 62 29.784025 60.216001 28 58 28 L 41.65625 28 L 53.212891 16.443359 C 54.779841 14.876405 54.779849 12.354064 53.212891 10.787109 C 51.645963 9.2201929 49.123591 9.2201551 47.556641 10.787109 L 36 22.34375 L 36 6 C 36 3.7839874 34.216013 2 32 2 z M 32 4 C 33.108006 4 34 4.8919937 34 6 L 34 24.34375 L 32 26.34375 L 30 24.34375 L 30 6 C 30 4.8919937 30.891994 4 32 4 z M 13.615234 11.613281 C 14.126472 11.613281 14.637558 11.809424 15.029297 12.201172 L 28 25.171875 L 28 28 L 25.171875 28 L 12.201172 15.029297 C 11.417693 14.245839 11.417694 12.98463 12.201172 12.201172 C 12.592911 11.809424 13.103997 11.613281 13.615234 11.613281 z M 50.384766 11.613281 C 50.896003 11.613281 51.40709 11.809424 51.798828 12.201172 C 52.582309 12.98463 52.582302 14.245839 51.798828 15.029297 L 38.828125 28 L 36 28 L 36 25.171875 L 48.970703 12.201172 C 49.362442 11.809424 49.873528 11.613281 50.384766 11.613281 z M 30 27.171875 L 30.585938 27.757812 L 30.34375 28 L 30 28 L 30 27.171875 z M 34 27.171875 L 34 28 L 33.65625 28 L 33.414062 27.757812 L 34 27.171875 z M 6 30 L 24.34375 30 L 26.34375 32 L 24.34375 34 L 6 34 C 4.8919998 34 4 33.108006 4 32 C 4 30.891994 4.8919998 30 6 30 z M 27.171875 30 L 28 30 L 28 30.34375 L 27.757812 30.585938 L 27.171875 30 z M 31.171875 30 L 32.828125 30 L 34 31.171875 L 34 32.828125 L 32.828125 34 L 31.171875 34 L 30 32.828125 L 30 31.171875 L 31.171875 30 z M 36 30 L 36.828125 30 L 36.242188 30.585938 L 36 30.34375 L 36 30 z M 39.65625 30 L 58 30 C 59.107999 30 60 30.891994 60 32 C 60 33.108006 59.107999 34 58 34 L 39.65625 34 L 37.65625 32 L 39.65625 30 z M 27.757812 33.414062 L 28 33.65625 L 28 34 L 27.171875 34 L 27.757812 33.414062 z M 36.242188 33.414062 L 36.828125 34 L 36 34 L 36 33.65625 L 36.242188 33.414062 z M 25.171875 36 L 28 36 L 28 38.828125 L 15.029297 51.798828 C 14.245822 52.582324 12.984651 52.582324 12.201172 51.798828 C 11.417694 51.01537 11.417697 49.754161 12.201172 48.970703 L 25.171875 36 z M 30 36 L 30.34375 36 L 30.585938 36.242188 L 30 36.828125 L 30 36 z M 33.65625 36 L 34 36 L 34 36.828125 L 33.414062 36.242188 L 33.65625 36 z M 36 36 L 38.828125 36 L 51.798828 48.970703 C 52.582309 49.754161 52.582309 51.01537 51.798828 51.798828 C 51.015351 52.582324 49.754184 52.582324 48.970703 51.798828 L 36 38.828125 L 36 36 z M 32 37.65625 L 34 39.65625 L 34 58 C 34 59.108006 33.108006 60 32 60 C 30.891994 60 30 59.108006 30 58 L 30 39.65625 L 32 37.65625 z "
       style="opacity:1;fill:#302b00;fill-opacity:1;stroke:none;stroke-width:2;stroke-linecap:round;stroke-linejoin:miter;stroke-miterlimit:4;stroke-dasharray:none;stroke-dashoffset:0;stroke-opacity:1" />
    <path
       transform="matrix(0.26458334,0,0,0.26458334,0,280.06665)"
       id="rect817"
       d="M 32 4 C 30.891994 4 30 4.8919937 30 6 L 30 27.171875 L 15.029297 12.201172 C 14.245818 11.417676 12.984651 11.417676 12.201172 12.201172 C 11.417694 12.98463 11.417693 14.245839 12.201172 15.029297 L 27.171875 30 L 6 30 C 4.8919998 30 4 30.891994 4 32 C 4 33.108006 4.8919998 34 6 34 L 27.171875 34 L 12.201172 48.970703 C 11.417697 49.754161 11.417694 51.01537 12.201172 51.798828 C 12.984651 52.582324 14.245822 52.582324 15.029297 51.798828 L 30 36.828125 L 30 58 C 30 59.108006 30.891994 60 32 60 C 33.108006 60 34 59.108006 34 58 L 34 36.828125 L 48.970703 51.798828 C 49.754184 52.582324 51.015351 52.582324 51.798828 51.798828 C 52.582309 51.01537 52.582309 49.754161 51.798828 48.970703 L 36.828125 34 L 58 34 C 59.107999 34 60 33.108006 60 32 C 60 30.891994 59.107999 30 58 30 L 36.828125 30 L 51.798828 15.029297 C 52.582302 14.245839 52.582309 12.98463 51.798828 12.201172 C 51.015351 11.417676 49.75418 11.417676 48.970703 12.201172 L 34 27.171875 L 34 6 C 34 4.8919937 33.108006 4 32 4 z "
       style="opacity:1;fill:#edd400;fill-opacity:1;stroke:none;stroke-width:2;stroke-linecap:round;stroke-linejoin:miter;stroke-miterlimit:4;stroke-dasharray:none;stroke-dashoffset:0;stroke-opacity:1" />
  </g>
</svg>
