<?xml version="1.0" encoding="UTF-8" standalone="no"?>
<!-- Created with Inkscape (http://www.inkscape.org/) -->

<svg
   xmlns:dc="http://purl.org/dc/elements/1.1/"
   xmlns:cc="http://creativecommons.org/ns#"
   xmlns:rdf="http://www.w3.org/1999/02/22-rdf-syntax-ns#"
   xmlns:svg="http://www.w3.org/2000/svg"
   xmlns="http://www.w3.org/2000/svg"
   xmlns:sodipodi="http://sodipodi.sourceforge.net/DTD/sodipodi-0.dtd"
   xmlns:inkscape="http://www.inkscape.org/namespaces/inkscape"
   width="64"
   height="64"
   id="svg2"
   version="1.1"
   inkscape:version="0.48.3.1 r9886"
   sodipodi:docname="python_small.svg">
  <defs
     id="defs4" />
  <sodipodi:namedview
     id="base"
     pagecolor="#ffffff"
     bordercolor="#666666"
     borderopacity="1.0"
     inkscape:pageopacity="0.0"
     inkscape:pageshadow="2"
     inkscape:zoom="7.7059811"
     inkscape:cx="38.233375"
     inkscape:cy="41.996592"
     inkscape:document-units="px"
     inkscape:current-layer="layer1"
     showgrid="false"
     inkscape:window-width="1280"
     inkscape:window-height="964"
     inkscape:window-x="-2"
     inkscape:window-y="-3"
     inkscape:window-maximized="1" />
  <metadata
     id="metadata7">
    <rdf:RDF>
      <cc:Work
         rdf:about="">
        <dc:format>image/svg+xml</dc:format>
        <dc:type
           rdf:resource="http://purl.org/dc/dcmitype/StillImage" />
        <dc:title />
      </cc:Work>
    </rdf:RDF>
  </metadata>
  <g
     inkscape:label="Layer 1"
     inkscape:groupmode="layer"
     id="layer1"
     transform="translate(0,-988.36218)">
    <path
       style="fill:#47e611;fill-opacity:1;stroke:none"
       d="m 53.938381,1027.8215 c 0.879047,-1.1584 0.95615,-2.486 3.885155,-1.9761 13.495639,6.1217 -16.525734,15.7942 -25.739182,21.6265 l -6.084914,5.0511 c -4.353141,0.082 -4.018008,0.1215 -9.942849,0.067 5.107127,-7.6736 18.832674,-13.0295 25.578781,-15.657 3.757824,-1.837 12.090858,-5.4337 12.303009,-9.1117 z"
       id="path3755"
       inkscape:connector-curvature="0"
       sodipodi:nodetypes="ccccccc" />
    <path
       style="fill:#909d32;fill-opacity:1;stroke:none"
       d="m 53.866911,1011.9234 c 12.518424,-1.979 10.032791,5.8168 10.204476,7.2952 0.155951,4.4074 -0.379076,12.8069 -0.328777,19.6079 -7.227245,3.8544 -18.024614,8.6307 -22.328838,10.8067 -1.868744,1.3733 -0.243189,2.512 1.42697,2.9464 -7.908873,0.014 -9.45903,0.044 -17.184005,0.083 1.940701,-2.1978 5.210068,-5.0206 6.751385,-5.8492 8.515895,-5.4146 31.940628,-14.7615 26.062952,-20.419 -0.23085,-3.2983 -5.007783,-6.4451 -5.415193,-10.931 z"
       id="path3753"
       inkscape:connector-curvature="0"
       sodipodi:nodetypes="cccccccccc" />
    <path
       style="fill:#909d32;fill-opacity:1;stroke:#909d32;stroke-width:1.50491095;stroke-linecap:round;stroke-linejoin:miter;stroke-miterlimit:4;stroke-opacity:1;stroke-dasharray:none"
       d="m 52.579988,1032.5185 2.125031,-0.063"
       id="path3761"
       inkscape:connector-curvature="0"
       sodipodi:nodetypes="cc" />
    <path
       style="fill:#909d32;fill-opacity:1;stroke:#909d32;stroke-width:1.50491095;stroke-linecap:round;stroke-linejoin:miter;stroke-miterlimit:4;stroke-opacity:1;stroke-dasharray:none"
       d="m 42.517878,1038.0618 3.559772,0"
       id="path3765"
       inkscape:connector-curvature="0"
       sodipodi:nodetypes="cc" />
    <path
       style="fill:#909d32;fill-opacity:1;stroke:#909d32;stroke-width:1.50491095;stroke-linecap:round;stroke-linejoin:miter;stroke-miterlimit:4;stroke-opacity:1;stroke-dasharray:none"
       d="m 33.055643,1042.8612 3.723277,-0.1098"
       id="path3767"
       inkscape:connector-curvature="0"
       sodipodi:nodetypes="cc" />
    <path
       style="fill:#909d32;fill-opacity:1;stroke:#909d32;stroke-width:1.50491095;stroke-linecap:round;stroke-linejoin:miter;stroke-miterlimit:4;stroke-opacity:1;stroke-dasharray:none"
       d="m 22.51418,1048.899 3.885159,0"
       id="path3769"
       inkscape:connector-curvature="0"
       sodipodi:nodetypes="cc" />
    <path
       style="fill:#47e611;fill-opacity:1;stroke:none"
       d="m 53.938381,1024.6378 c 7.873605,-6.2088 4.381406,-10.8024 -5.503981,-9.7704 -9.598914,1.6275 -15.216961,7.5676 -20.720853,7.1357 -5.773779,0.7651 -11.635009,-1.0196 -16.835696,-0.1098 -1.6368165,0.7686 -2.8764996,3.4033 -0.647524,4.1717 5.922721,0.8709 11.991868,1.4699 17.48322,0.8782 6.901364,-0.7281 12.294166,-4.9341 17.806989,-7.5748 2.600278,-0.7914 5.374401,-0.2627 4.208925,1.3173 -2.64149,2.3962 -11.422075,7.1171 -22.177795,9.2216 -4.377314,1.2273 -10.247763,-0.79 -16.350051,-0.4391 -1.145333,1.0998 -2.7022827,3.5319 -0.485643,4.0618 5.348593,1.0109 11.193338,1.0315 17.483222,0.6586 7.324495,-1.0839 21.406292,-4.9211 25.739187,-9.5508 z"
       id="path3798"
       inkscape:connector-curvature="0"
       sodipodi:nodetypes="ccccccccccccc" />
    <path
       style="fill:#909d32;fill-opacity:1;stroke:none"
       d="m 53.938381,1015.3065 c 1.59078,-2.9209 2.454883,-4.2508 0.161884,-5.7085 -1.387374,-0.068 -1.934763,0.3501 -3.399521,-0.6586 3.459964,-3.3468 3.615601,-8.4688 1.295061,-12.51498 -2.887529,-3.03123 -7.798381,-4.28443 -11.979248,-3.84229 -1.66435,0.97429 -3.740985,1.59866 -4.69457,1.75647 -1.141725,-0.29841 -2.089743,-0.48239 -3.561397,-1.53692 -2.125458,-0.3497 -3.809304,-0.48949 -5.989624,-0.10976 -1.107202,0.61308 -1.024739,1.74815 0.485648,2.41513 1.746649,-1.29132 5.216414,-0.29864 6.313384,0.76846 1.6052,0.87792 2.302857,1.92872 2.91387,2.30539 1.082964,-0.15654 1.291311,-1.89271 2.266345,-2.19561 3.489369,-0.84704 8.22277,-0.64468 9.551017,1.42717 2.694279,3.57244 2.908551,8.10614 -1.29505,10.86824 -5.729739,1.1952 -7.132388,1.3184 -9.551023,0.5488 l -2.428224,-2.1955 -1.456935,1.5369 c -3.714942,0.8446 -2.814422,0.9843 -6.960914,-0.2196 -0.541098,2.1499 -3.429603,3.8463 -15.54064,4.501 -1.980861,0.1995 -3.4361786,5.644 0.485646,9.441 l 8.094083,0.4391 c 11.084179,1.661 14.675283,-0.935 17.806984,-2.964 3.299942,-1.865 10.671879,-4.202 17.483224,-4.0619 z"
       id="path3800"
       inkscape:connector-curvature="0"
       sodipodi:nodetypes="ccccccccccccccccccccccc" />
    <path
       sodipodi:type="arc"
       style="fill:#ffffff;fill-opacity:1;fill-rule:nonzero;stroke:none"
       id="path3806"
       sodipodi:cx="190.00984"
       sodipodi:cy="346.13681"
       sodipodi:rx="25.246063"
       sodipodi:ry="21.924212"
       d="m 215.25591,346.13681 a 25.246063,21.924212 0 1 1 -50.49213,0 25.246063,21.924212 0 1 1 50.49213,0 z"
       transform="matrix(0.102531,0,0,0.06028973,-5.8536624,995.7598)" />
    <path
       transform="matrix(0.102531,0,0,0.06028973,2.7292741,996.08023)"
       d="m 215.25591,346.13681 a 25.246063,21.924212 0 1 1 -50.49213,0 25.246063,21.924212 0 1 1 50.49213,0 z"
       sodipodi:ry="21.924212"
       sodipodi:rx="25.246063"
       sodipodi:cy="346.13681"
       sodipodi:cx="190.00984"
       id="path3808"
       style="fill:#ffffff;fill-opacity:1;fill-rule:nonzero;stroke:none"
       sodipodi:type="arc" />
    <path
       sodipodi:type="arc"
       style="fill:#faf468;fill-opacity:1;fill-rule:nonzero;stroke:none"
       id="path3810"
       sodipodi:cx="252.46062"
       sodipodi:cy="153.46948"
       sodipodi:rx="32.176353"
       sodipodi:ry="65.772636"
       d="m 284.63697,153.46948 a 32.176353,65.772636 0 1 1 -64.35271,0 32.176353,65.772636 0 1 1 64.35271,0 z"
       transform="matrix(0.16350998,0,0,0.08261925,0.2746032,989.72786)" />
    <path
       sodipodi:type="arc"
       style="fill:#faf468;fill-opacity:1;fill-rule:nonzero;stroke:none"
       id="path3812"
       sodipodi:cx="138.18898"
       sodipodi:cy="142.1752"
       sodipodi:rx="43.848423"
       sodipodi:ry="66.437004"
       d="m 182.0374,142.1752 a 43.848423,66.437004 0 1 1 -87.696843,0 43.848423,66.437004 0 1 1 87.696843,0 z"
       transform="matrix(0.12183097,0,0,0.08261925,12.172906,990.05719)" />
    <path
       sodipodi:type="arc"
       style="fill:#0208ff;fill-opacity:1;fill-rule:nonzero;stroke:none"
       id="path3814"
       sodipodi:cx="142.83957"
       sodipodi:cy="142.83957"
       sodipodi:rx="25.910433"
       sodipodi:ry="40.526573"
       d="m 168.75,142.83957 a 25.910433,40.526573 0 1 1 -51.82086,0 25.910433,40.526573 0 1 1 51.82086,0 z"
       transform="matrix(0.12183097,0,0,0.08261925,11.849143,989.94743)" />
    <path
       sodipodi:type="arc"
       style="fill:#0208ff;fill-opacity:1;fill-rule:nonzero;stroke:none"
       id="path3816"
       sodipodi:cx="245.81693"
       sodipodi:cy="148.81889"
       sodipodi:rx="25.246063"
       sodipodi:ry="39.862206"
       d="m 271.06299,148.81889 a 25.246063,39.862206 0 1 1 -50.49213,0 25.246063,39.862206 0 1 1 50.49213,0 z"
       transform="matrix(0.12183097,0,0,0.08261925,11.52538,989.61808)" />
    <path
       sodipodi:type="arc"
       style="fill:#909d32;fill-opacity:1;fill-rule:nonzero;stroke:#909d32;stroke-opacity:1"
       id="path3836"
       sodipodi:cx="57.800194"
       sodipodi:cy="409.91632"
       sodipodi:rx="7.3080707"
       sodipodi:ry="12.623032"
       d="m 65.108264,409.91632 a 7.3080707,12.623032 0 1 1 -14.616141,0 7.3080707,12.623032 0 1 1 14.616141,0 z"
       transform="matrix(0.12183097,0,0,0.08261925,5.859521,989.72786)" />
    <path
       sodipodi:type="arc"
       style="fill:#909d32;fill-opacity:1;fill-rule:nonzero;stroke:#909d32;stroke-opacity:1"
       id="path3836-9"
       sodipodi:cx="57.800194"
       sodipodi:cy="409.91632"
       sodipodi:rx="7.3080707"
       sodipodi:ry="12.623032"
       d="m 65.108264,409.91632 a 7.3080707,12.623032 0 1 1 -14.616141,0 7.3080707,12.623032 0 1 1 14.616141,0 z"
       transform="matrix(0.12183097,0,0,0.08261925,17.757824,990.88056)" />
    <path
       sodipodi:type="arc"
       style="fill:#909d32;fill-opacity:1;fill-rule:nonzero;stroke:#909d32;stroke-opacity:1"
       id="path3836-98"
       sodipodi:cx="57.800194"
       sodipodi:cy="409.91632"
       sodipodi:rx="7.3080707"
       sodipodi:ry="12.623032"
       d="m 65.108264,409.91632 a 7.3080707,12.623032 0 1 1 -14.616141,0 7.3080707,12.623032 0 1 1 14.616141,0 z"
       transform="matrix(0.12183097,0,0,0.08261925,11.282558,990.66098)" />
    <path
       sodipodi:type="arc"
       style="fill:#909d32;fill-opacity:1;fill-rule:nonzero;stroke:#909d32;stroke-opacity:1"
       id="path3836-5"
       sodipodi:cx="57.800194"
       sodipodi:cy="409.91632"
       sodipodi:rx="7.3080707"
       sodipodi:ry="12.623032"
       d="m 65.108264,409.91632 a 7.3080707,12.623032 0 1 1 -14.616141,0 7.3080707,12.623032 0 1 1 14.616141,0 z"
       transform="matrix(0.12183097,0,0,0.08261925,24.556853,989.56319)" />
    <path
       sodipodi:type="arc"
       style="fill:#909d32;fill-opacity:1;fill-rule:nonzero;stroke:#909d32;stroke-opacity:1"
       id="path3836-0"
       sodipodi:cx="57.800194"
       sodipodi:cy="409.91632"
       sodipodi:rx="7.3080707"
       sodipodi:ry="12.623032"
       d="m 65.108264,409.91632 a 7.3080707,12.623032 0 1 1 -14.616141,0 7.3080707,12.623032 0 1 1 14.616141,0 z"
       transform="matrix(0.12183097,0,0,0.08261925,31.679648,986.16003)" />
    <path
       sodipodi:type="arc"
       style="fill:#909d32;fill-opacity:1;fill-rule:nonzero;stroke:#909d32;stroke-opacity:1"
       id="path3836-8"
       sodipodi:cx="57.800194"
       sodipodi:cy="409.91632"
       sodipodi:rx="7.3080707"
       sodipodi:ry="12.623032"
       d="m 65.108264,409.91632 a 7.3080707,12.623032 0 1 1 -14.616141,0 7.3080707,12.623032 0 1 1 14.616141,0 z"
       transform="matrix(0.12183097,0,0,0.08261925,37.669272,983.96444)" />
    <path
       sodipodi:type="arc"
       style="fill:#909d32;fill-opacity:1;fill-rule:nonzero;stroke:#909d32;stroke-opacity:1"
       id="path3836-2"
       sodipodi:cx="57.800194"
       sodipodi:cy="409.91632"
       sodipodi:rx="7.3080707"
       sodipodi:ry="12.623032"
       d="m 65.108264,409.91632 a 7.3080707,12.623032 0 1 1 -14.616141,0 7.3080707,12.623032 0 1 1 14.616141,0 z"
       transform="matrix(0.12183097,0,0,0.08261925,42.687607,990.33165)" />
    <path
       sodipodi:type="arc"
       style="fill:#909d32;fill-opacity:1;fill-rule:nonzero;stroke:#909d32;stroke-opacity:1"
       id="path3836-09"
       sodipodi:cx="57.800194"
       sodipodi:cy="409.91632"
       sodipodi:rx="7.3080707"
       sodipodi:ry="12.623032"
       d="m 65.108264,409.91632 a 7.3080707,12.623032 0 1 1 -14.616141,0 7.3080707,12.623032 0 1 1 14.616141,0 z"
       transform="matrix(0.12183097,0,0,0.08261925,36.212336,993.18591)" />
    <path
       sodipodi:type="arc"
       style="fill:#909d32;fill-opacity:1;fill-rule:nonzero;stroke:#909d32;stroke-opacity:1"
       id="path3836-1"
       sodipodi:cx="57.800194"
       sodipodi:cy="409.91632"
       sodipodi:rx="7.3080707"
       sodipodi:ry="12.623032"
       d="m 65.108264,409.91632 a 7.3080707,12.623032 0 1 1 -14.616141,0 7.3080707,12.623032 0 1 1 14.616141,0 z"
       transform="matrix(0.12183097,0,0,0.08261925,29.089541,995.71084)" />
    <path
       sodipodi:type="arc"
       style="fill:#909d32;fill-opacity:1;fill-rule:nonzero;stroke:#909d32;stroke-opacity:1"
       id="path3836-54"
       sodipodi:cx="57.800194"
       sodipodi:cy="409.91632"
       sodipodi:rx="7.3080707"
       sodipodi:ry="12.623032"
       d="m 65.108264,409.91632 a 7.3080707,12.623032 0 1 1 -14.616141,0 7.3080707,12.623032 0 1 1 14.616141,0 z"
       transform="matrix(0.12183097,0,0,0.08261925,20.995459,998.01619)" />
    <path
       sodipodi:type="arc"
       style="fill:#909d32;fill-opacity:1;fill-rule:nonzero;stroke:#909d32;stroke-opacity:1"
       id="path3836-51"
       sodipodi:cx="57.800194"
       sodipodi:cy="409.91632"
       sodipodi:rx="7.3080707"
       sodipodi:ry="12.623032"
       d="m 65.108264,409.91632 a 7.3080707,12.623032 0 1 1 -14.616141,0 7.3080707,12.623032 0 1 1 14.616141,0 z"
       transform="matrix(0.15666099,0,0,0.08261925,6.7719265,997.90639)" />
    <path
       style="fill:#fd1019;fill-opacity:1;stroke:none"
       d="m 25.285323,1027.0529 c 1.911058,0.212 7.432231,-1.8979 10.198545,-1.976 -3.401239,2.8177 -9.887249,4.7572 -11.169834,8.3432 -0.504316,2.2059 0.405448,3.993 1.456932,4.8304 -0.735865,0.4889 -1.747192,1.6695 -3.723277,1.3174 -1.185128,-0.8431 -2.624193,-2.7214 -2.104462,-4.7206 -2.335032,1.4804 -3.654452,5.4722 -4.694571,5.4891 -1.301841,-0.4237 -4.255265,-2.5993 -2.590104,-3.4032 0.437769,-0.9061 3.629309,-3.1707 4.694568,-4.6109 3.064263,-2.8393 4.963036,-3.7785 7.932203,-5.2694 z"
       id="path3802"
       inkscape:connector-curvature="0"
       sodipodi:nodetypes="cccccccccc" />
  </g>
</svg>
