<?xml version="1.0" encoding="UTF-8" standalone="no"?>

<svg
   xmlns:svg="http://www.w3.org/2000/svg"
   xmlns="http://www.w3.org/2000/svg"
   width="48mm"
   height="48mm"
   viewBox="0 0 48 48">
  <g id="Parts"
    style="fill:#0080a0;fill-rule:evenodd;stroke:#000000;stroke-width:1.8;stroke-linejoin:round">
    <path
       d="m 2,22 3.1884492,0 12.0788386,0 c 5.060228,0 9.233025,-4.1728 9.233025,-9.2331 l 0,-7.4754 0,-3.1884 -6.376834,0 0,3.1884 0,7.4754 c 0,1.6373 -1.218985,2.8562 -2.856191,2.8562 l -12.0788386,0 -3.1884492,0 0,6.3769 z"/>
    <path
       d="m 26,12 -5.402351,0"/>
    <path
       d="m 17,22 0,-5.4"/>
    <rect
       width="34" height="6.5" x="2" y="37"/>
    <path
       d="m 17,43 0,-5.4"/>
    <path
       d="m 23,43 0,-5.4"/>
  </g>
  <g id="Arrows"
    style="fill:#00f000;fill-rule:evenodd;stroke:#00a000;stroke-width:1.8;stroke-linejoin:round">
    <path
       d="m 35,7.5 0,4.4375 -5.006472,0 7.341336,7.2822 7.341336,-7.2822 -5.006472,0 0,-4.4375 z"/>
    <path
       d="m 35,22 0,4.4375 -5.006472,0 7.341336,7.2822 7.341336,-7.2822 -5.006472,0 0,-4.4375 z"/>
  </g>
</svg>
