<?xml version="1.0" encoding="UTF-8" standalone="no"?>
<!-- Created with Inkscape (http://www.inkscape.org/) -->

<svg version="1.1" id="svg2" xml:space="preserve" width="426.03745" height="347.16611" viewBox="0 0 426.03745 347.16611" xmlns="http://www.w3.org/2000/svg" xmlns:svg="http://www.w3.org/2000/svg"><defs id="defs6" /><g id="g8" transform="matrix(1.3333333,0,0,1.3333333,0,1.1345819e-5)"><g id="g10"><g id="g12"><path d="M 222.133,26.199 L 222.867,97.75" style="fill:none;stroke:black;stroke-width:1.41732;stroke-linecap:butt;stroke-linejoin:miter;stroke-miterlimit:4;stroke-dasharray:none;stroke-opacity:1" id="path14" /></g><g id="g16" transform="matrix(-0.010272,-1,1,-0.010272,0,0)"><path d="M -85.857,221.841 L -80.189,216.172 L -100.029,221.84 L -80.189,227.508 Z" style="fill:black;fill-opacity:1;fill-rule:evenodd;stroke:black;stroke-width:1.51173;stroke-linecap:butt;stroke-linejoin:miter;stroke-miterlimit:4;stroke-dasharray:none;stroke-opacity:1" id="path18" /></g><g id="g20"><path d="M 203.621,182.125 L 121.621,153.602" style="fill:none;stroke:black;stroke-width:1.41732;stroke-linecap:butt;stroke-linejoin:miter;stroke-miterlimit:4;stroke-dasharray:none;stroke-opacity:1" id="path22" /></g><g id="g24" transform="matrix(1,0.347861,-0.347861,1,0,0)"><path d="M 169.544,99.28 L 174.899,93.925 L 156.157,99.281 L 174.899,104.636 Z" style="fill:black;fill-opacity:1;fill-rule:evenodd;stroke:black;stroke-width:1.42788;stroke-linecap:butt;stroke-linejoin:miter;stroke-miterlimit:4;stroke-dasharray:none;stroke-opacity:1" id="path26" /></g><g id="g28"><path d="M 190.91,198.262 L 108.531,170.844" style="fill:none;stroke:black;stroke-width:1.41732;stroke-linecap:butt;stroke-linejoin:miter;stroke-miterlimit:4;stroke-dasharray:none;stroke-opacity:1" id="path30" /></g><g id="g32" transform="matrix(1,0.332838,-0.332838,1,0,0)"><path d="M 162.349,121.284 L 167.726,115.905 L 148.899,121.284 L 167.728,126.662 Z" style="fill:black;fill-opacity:1;fill-rule:evenodd;stroke:black;stroke-width:1.43444;stroke-linecap:butt;stroke-linejoin:miter;stroke-miterlimit:4;stroke-dasharray:none;stroke-opacity:1" id="path34" /></g><g id="g36"><path d="M 182.484,219.309 L 218.961,171.133 L 254.062,142.914" style="fill:none;stroke:blue;stroke-width:2.83465;stroke-linecap:butt;stroke-linejoin:miter;stroke-miterlimit:4;stroke-dasharray:none;stroke-opacity:1" id="path38" /></g><g id="g40"><path d="M 187.891,26.199 L 188.625,97.75" style="fill:none;stroke:black;stroke-width:1.41732;stroke-linecap:butt;stroke-linejoin:miter;stroke-miterlimit:4;stroke-dasharray:none;stroke-opacity:1" id="path42" /></g><g id="g44" transform="matrix(-0.010272,-1,1,-0.010272,0,0)"><path d="M -85.505,187.602 L -79.838,181.93 L -99.677,187.601 L -79.837,193.27 Z" style="fill:black;fill-opacity:1;fill-rule:evenodd;stroke:black;stroke-width:1.51173;stroke-linecap:butt;stroke-linejoin:miter;stroke-miterlimit:4;stroke-dasharray:none;stroke-opacity:1" id="path46" /></g><g id="g48"><path d="M 225.578,160.848 L 149.66,118.723" style="fill:none;stroke:black;stroke-width:1.41732;stroke-linecap:butt;stroke-linejoin:miter;stroke-miterlimit:4;stroke-dasharray:none;stroke-opacity:1" id="path50" /></g><g id="g52" transform="matrix(1,0.554874,-0.554874,1,0,0)"><path d="M 177.193,27.282 L 182.149,22.325 L 164.798,27.281 L 182.15,32.238 Z" style="fill:black;fill-opacity:1;fill-rule:evenodd;stroke:black;stroke-width:1.32194;stroke-linecap:butt;stroke-linejoin:miter;stroke-miterlimit:4;stroke-dasharray:none;stroke-opacity:1" id="path54" /></g><g id="g56"><path d="M 242.375,145.598 L 166.461,103.473" style="fill:none;stroke:black;stroke-width:1.41732;stroke-linecap:butt;stroke-linejoin:miter;stroke-miterlimit:4;stroke-dasharray:none;stroke-opacity:1" id="path58" /></g><g id="g60" transform="matrix(1,0.554874,-0.554874,1,0,0)"><path d="M 183.569,8.494 L 188.525,3.537 L 171.173,8.493 L 188.526,13.451 Z" style="fill:black;fill-opacity:1;fill-rule:evenodd;stroke:black;stroke-width:1.32194;stroke-linecap:butt;stroke-linejoin:miter;stroke-miterlimit:4;stroke-dasharray:none;stroke-opacity:1" id="path62" /></g><path d="M 173.922,164.023 C 163.273,161.895 153.836,155.035 152.848,148.707 C 151.855,142.375 159.688,138.973 170.336,141.102 C 180.988,143.234 190.426,150.094 191.414,156.422 C 192.406,162.75 184.578,166.156 173.93,164.027 L 172.133,152.566 Z" style="fill:#ef2929;fill-opacity:1;fill-rule:nonzero;stroke:none" id="path64" /><text style="font-variant:normal;font-weight:normal;font-size:20px;font-family:'DejaVu Sans';-inkscape-font-specification:DejaVuSans;writing-mode:lr-tb;fill:black;fill-opacity:1;fill-rule:nonzero;stroke:none" id="text68" x="162.48106" y="16.695332"><tspan x="162.48106 172.88109 185.54109 198.20111 203.74112 209.28113 221.96115 234.62115" y="16.695332" id="tspan66">sunlight</tspan></text><text transform="translate(-0.993164,107.12657)" style="font-variant:normal;font-weight:normal;font-size:18px;font-family:'DejaVu Sans';-inkscape-font-specification:DejaVuSans;writing-mode:lr-tb;fill:black;fill-opacity:1;fill-rule:nonzero;stroke:none" id="text74"><tspan x="0 10.026 15.012 26.424 37.818001 44.874001 50.580002 57.636002 68.634003 74.339996 85.410004 96.047997 107.118" y="0" id="tspan70">Light to eye </tspan><tspan x="0 10.998 17.334 23.040001 32.922001 44.316002 53.675999 60.731998 71.730003 89.262001 100.332" y="20.000034" id="tspan72">of customer</tspan></text><g id="g76"><path d="M 245.578,244.879 L 204.742,203.16" style="fill:none;stroke:blue;stroke-width:1.41732;stroke-linecap:butt;stroke-linejoin:miter;stroke-miterlimit:4;stroke-dasharray:none;stroke-opacity:1" id="path78" /></g><g id="g80" transform="matrix(0.978801,1,-1,0.978801,0,0)"><path d="M 216.233,-3.007 L 220.285,-7.06 L 206.104,-3.007 L 220.283,1.043 Z" style="fill:blue;fill-opacity:1;fill-rule:evenodd;stroke:blue;stroke-width:1.0804;stroke-linecap:butt;stroke-linejoin:miter;stroke-miterlimit:4;stroke-dasharray:none;stroke-opacity:1" id="path82" /></g><text transform="translate(186.48804,260.11968)" style="font-variant:normal;font-weight:normal;font-size:18px;font-family:'DejaVu Sans';-inkscape-font-specification:DejaVuSans;writing-mode:lr-tb;fill:black;fill-opacity:1;fill-rule:nonzero;stroke:none" id="text86"><tspan x="0 9.3599997 20.43 31.823999 43.236 54.306 61.703999 67.410004 76.769997 88.164001 95.561996 101.898 112.914 122.796" y="0" id="tspan84">Fender surface</tspan></text></g></g></svg>
