<?xml version="1.0" encoding="UTF-8" standalone="no"?>
<!DOCTYPE svg PUBLIC "-//W3C//DTD SVG 1.1//EN"
 "http://www.w3.org/Graphics/SVG/1.1/DTD/svg11.dtd">
<!-- Generated by graphviz version 2.38.0 (20140413.2041)
 -->
<!-- Title: %3 Pages: 1 -->
<svg width="398pt" height="515pt"
 viewBox="0.00 0.00 398.00 515.00" xmlns="http://www.w3.org/2000/svg" xmlns:xlink="http://www.w3.org/1999/xlink">
<g id="graph0" class="graph" transform="scale(1 1) rotate(0) translate(4 511)">
<title>%3</title>
<polygon fill="white" stroke="none" points="-4,4 -4,-511 394,-511 394,4 -4,4"/>
<g id="clust1" class="cluster"><title>clusterBody</title>
<path fill="#1eacd8" fill-opacity="0.313725" stroke="black" d="M20,-8C20,-8 212,-8 212,-8 218,-8 224,-14 224,-20 224,-20 224,-487 224,-487 224,-493 218,-499 212,-499 212,-499 20,-499 20,-499 14,-499 8,-493 8,-487 8,-487 8,-20 8,-20 8,-14 14,-8 20,-8"/>
<text text-anchor="middle" x="116" y="-483.8" font-family="Times New Roman,serif" font-size="14.00">Body</text>
</g>
<g id="clust2" class="cluster"><title>clusterOrigin</title>
<path fill="none" stroke="black" d="M28,-16C28,-16 204,-16 204,-16 210,-16 216,-22 216,-28 216,-28 216,-228 216,-228 216,-234 210,-240 204,-240 204,-240 28,-240 28,-240 22,-240 16,-234 16,-228 16,-228 16,-28 16,-28 16,-22 22,-16 28,-16"/>
<text text-anchor="middle" x="116" y="-224.8" font-family="Times New Roman,serif" font-size="14.00">Origin</text>
</g>
<!-- 6 -->
<!-- 10 -->
<g id="node3" class="node"><title>10</title>
<path fill="lightgrey" stroke="black" d="M148,-98.5C148,-98.5 196,-98.5 196,-98.5 202,-98.5 208,-104.5 208,-110.5 208,-110.5 208,-122.5 208,-122.5 208,-128.5 202,-134.5 196,-134.5 196,-134.5 148,-134.5 148,-134.5 142,-134.5 136,-128.5 136,-122.5 136,-122.5 136,-110.5 136,-110.5 136,-104.5 142,-98.5 148,-98.5"/>
<text text-anchor="middle" x="172" y="-112.8" font-family="Times New Roman,serif" font-size="14.00">XZ_Plane</text>
</g>
<!-- 6&#45;&gt;10 -->
<!-- 9 -->
<g id="node2" class="node"><title>9</title>
<path fill="lightgrey" stroke="black" d="M126,-172.5C126,-172.5 176,-172.5 176,-172.5 182,-172.5 188,-178.5 188,-184.5 188,-184.5 188,-196.5 188,-196.5 188,-202.5 182,-208.5 176,-208.5 176,-208.5 126,-208.5 126,-208.5 120,-208.5 114,-202.5 114,-196.5 114,-196.5 114,-184.5 114,-184.5 114,-178.5 120,-172.5 126,-172.5"/>
<text text-anchor="middle" x="151" y="-186.8" font-family="Times New Roman,serif" font-size="14.00">XY_Plane</text>
</g>
<!-- 11 -->
<g id="node4" class="node"><title>11</title>
<path fill="lightgrey" stroke="black" d="M154.5,-24.5C154.5,-24.5 189.5,-24.5 189.5,-24.5 195.5,-24.5 201.5,-30.5 201.5,-36.5 201.5,-36.5 201.5,-48.5 201.5,-48.5 201.5,-54.5 195.5,-60.5 189.5,-60.5 189.5,-60.5 154.5,-60.5 154.5,-60.5 148.5,-60.5 142.5,-54.5 142.5,-48.5 142.5,-48.5 142.5,-36.5 142.5,-36.5 142.5,-30.5 148.5,-24.5 154.5,-24.5"/>
<text text-anchor="middle" x="172" y="-38.8" font-family="Times New Roman,serif" font-size="14.00">X_Axis</text>
</g>
<!-- 10&#45;&gt;11 -->
<!-- 12 -->
<g id="node5" class="node"><title>12</title>
<path fill="lightgrey" stroke="black" d="M36,-172.5C36,-172.5 84,-172.5 84,-172.5 90,-172.5 96,-178.5 96,-184.5 96,-184.5 96,-196.5 96,-196.5 96,-202.5 90,-208.5 84,-208.5 84,-208.5 36,-208.5 36,-208.5 30,-208.5 24,-202.5 24,-196.5 24,-196.5 24,-184.5 24,-184.5 24,-178.5 30,-172.5 36,-172.5"/>
<text text-anchor="middle" x="60" y="-186.8" font-family="Times New Roman,serif" font-size="14.00">YZ_Plane</text>
</g>
<!-- 13 -->
<g id="node6" class="node"><title>13</title>
<path fill="lightgrey" stroke="black" d="M42.5,-98.5C42.5,-98.5 77.5,-98.5 77.5,-98.5 83.5,-98.5 89.5,-104.5 89.5,-110.5 89.5,-110.5 89.5,-122.5 89.5,-122.5 89.5,-128.5 83.5,-134.5 77.5,-134.5 77.5,-134.5 42.5,-134.5 42.5,-134.5 36.5,-134.5 30.5,-128.5 30.5,-122.5 30.5,-122.5 30.5,-110.5 30.5,-110.5 30.5,-104.5 36.5,-98.5 42.5,-98.5"/>
<text text-anchor="middle" x="60" y="-112.8" font-family="Times New Roman,serif" font-size="14.00">Y_Axis</text>
</g>
<!-- 12&#45;&gt;13 -->
<!-- 14 -->
<g id="node7" class="node"><title>14</title>
<path fill="lightgrey" stroke="black" d="M43,-24.5C43,-24.5 77,-24.5 77,-24.5 83,-24.5 89,-30.5 89,-36.5 89,-36.5 89,-48.5 89,-48.5 89,-54.5 83,-60.5 77,-60.5 77,-60.5 43,-60.5 43,-60.5 37,-60.5 31,-54.5 31,-48.5 31,-48.5 31,-36.5 31,-36.5 31,-30.5 37,-24.5 43,-24.5"/>
<text text-anchor="middle" x="60" y="-38.8" font-family="Times New Roman,serif" font-size="14.00">Z_Axis</text>
</g>
<!-- 13&#45;&gt;14 -->
<!-- 0 -->
<!-- 3 -->
<g id="node9" class="node"><title>3</title>
<path fill="lightgrey" stroke="black" d="M136,-431.5C136,-431.5 166,-431.5 166,-431.5 172,-431.5 178,-437.5 178,-443.5 178,-443.5 178,-455.5 178,-455.5 178,-461.5 172,-467.5 166,-467.5 166,-467.5 136,-467.5 136,-467.5 130,-467.5 124,-461.5 124,-455.5 124,-455.5 124,-443.5 124,-443.5 124,-437.5 130,-431.5 136,-431.5"/>
<text text-anchor="middle" x="151" y="-445.8" font-family="Times New Roman,serif" font-size="14.00">Fillet</text>
</g>
<!-- 7 -->
<g id="node10" class="node"><title>7</title>
<path fill="lightgrey" stroke="black" d="M136,-343.5C136,-343.5 166,-343.5 166,-343.5 172,-343.5 178,-349.5 178,-355.5 178,-355.5 178,-367.5 178,-367.5 178,-373.5 172,-379.5 166,-379.5 166,-379.5 136,-379.5 136,-379.5 130,-379.5 124,-373.5 124,-367.5 124,-367.5 124,-355.5 124,-355.5 124,-349.5 130,-343.5 136,-343.5"/>
<text text-anchor="middle" x="151" y="-357.8" font-family="Times New Roman,serif" font-size="14.00">Pad</text>
</g>
<!-- 3&#45;&gt;7 -->
<g id="edge1" class="edge"><title>3&#45;&gt;7</title>
<path fill="none" stroke="black" d="M151,-431.097C151,-419.246 151,-403.317 151,-389.792"/>
<polygon fill="black" stroke="black" points="154.5,-389.584 151,-379.584 147.5,-389.584 154.5,-389.584"/>
<text text-anchor="middle" x="160" y="-401.8" font-family="Times New Roman,serif" font-size="14.00"> 2x</text>
</g>
<!-- 8 -->
<g id="node11" class="node"><title>8</title>
<path fill="lightgrey" stroke="black" d="M135.5,-268.5C135.5,-268.5 166.5,-268.5 166.5,-268.5 172.5,-268.5 178.5,-274.5 178.5,-280.5 178.5,-280.5 178.5,-292.5 178.5,-292.5 178.5,-298.5 172.5,-304.5 166.5,-304.5 166.5,-304.5 135.5,-304.5 135.5,-304.5 129.5,-304.5 123.5,-298.5 123.5,-292.5 123.5,-292.5 123.5,-280.5 123.5,-280.5 123.5,-274.5 129.5,-268.5 135.5,-268.5"/>
<text text-anchor="middle" x="151" y="-282.8" font-family="Times New Roman,serif" font-size="14.00">Sketch</text>
</g>
<!-- 7&#45;&gt;8 -->
<g id="edge2" class="edge"><title>7&#45;&gt;8</title>
<path fill="none" stroke="black" d="M151,-343.2C151,-334.745 151,-324.369 151,-314.873"/>
<polygon fill="black" stroke="black" points="154.5,-314.676 151,-304.676 147.5,-314.676 154.5,-314.676"/>
</g>
<!-- 8&#45;&gt;9 -->
<g id="edge3" class="edge"><title>8&#45;&gt;9</title>
<path fill="none" stroke="black" d="M151,-268.259C151,-254.478 151,-234.9 151,-218.965"/>
<polygon fill="black" stroke="black" points="154.5,-218.632 151,-208.632 147.5,-218.632 154.5,-218.632"/>
</g>
<!-- 1 -->
<g id="node12" class="node"><title>1</title>
<path fill="lightgrey" stroke="black" d="M264,-267.5C264,-267.5 296,-267.5 296,-267.5 302,-267.5 308,-273.5 308,-279.5 308,-279.5 308,-293.5 308,-293.5 308,-299.5 302,-305.5 296,-305.5 296,-305.5 264,-305.5 264,-305.5 258,-305.5 252,-299.5 252,-293.5 252,-293.5 252,-279.5 252,-279.5 252,-273.5 258,-267.5 264,-267.5"/>
<text text-anchor="middle" x="280" y="-290.3" font-family="Times New Roman,serif" font-size="14.00">Box</text>
<text text-anchor="middle" x="280" y="-275.3" font-family="Times New Roman,serif" font-size="14.00">(Cube)</text>
</g>
<!-- 2 -->
<g id="node13" class="node"><title>2</title>
<path fill="lightgrey" stroke="black" d="M338,-268.5C338,-268.5 378,-268.5 378,-268.5 384,-268.5 390,-274.5 390,-280.5 390,-280.5 390,-292.5 390,-292.5 390,-298.5 384,-304.5 378,-304.5 378,-304.5 338,-304.5 338,-304.5 332,-304.5 326,-298.5 326,-292.5 326,-292.5 326,-280.5 326,-280.5 326,-274.5 332,-268.5 338,-268.5"/>
<text text-anchor="middle" x="358" y="-282.8" font-family="Times New Roman,serif" font-size="14.00">Cylinder</text>
</g>
<!-- 4 -->
<g id="node14" class="node"><title>4</title>
<path fill="lightgrey" stroke="black" d="M281,-431.5C281,-431.5 321,-431.5 321,-431.5 327,-431.5 333,-437.5 333,-443.5 333,-443.5 333,-455.5 333,-455.5 333,-461.5 327,-467.5 321,-467.5 321,-467.5 281,-467.5 281,-467.5 275,-467.5 269,-461.5 269,-455.5 269,-455.5 269,-443.5 269,-443.5 269,-437.5 275,-431.5 281,-431.5"/>
<text text-anchor="middle" x="301" y="-445.8" font-family="Times New Roman,serif" font-size="14.00">Fillet001</text>
</g>
<!-- 5 -->
<g id="node15" class="node"><title>5</title>
<path fill="lightgrey" stroke="black" d="M285.5,-343.5C285.5,-343.5 316.5,-343.5 316.5,-343.5 322.5,-343.5 328.5,-349.5 328.5,-355.5 328.5,-355.5 328.5,-367.5 328.5,-367.5 328.5,-373.5 322.5,-379.5 316.5,-379.5 316.5,-379.5 285.5,-379.5 285.5,-379.5 279.5,-379.5 273.5,-373.5 273.5,-367.5 273.5,-367.5 273.5,-355.5 273.5,-355.5 273.5,-349.5 279.5,-343.5 285.5,-343.5"/>
<text text-anchor="middle" x="301" y="-357.8" font-family="Times New Roman,serif" font-size="14.00">Fusion</text>
</g>
<!-- 4&#45;&gt;5 -->
<g id="edge8" class="edge"><title>4&#45;&gt;5</title>
<path fill="none" stroke="black" d="M301,-431.097C301,-419.246 301,-403.317 301,-389.792"/>
<polygon fill="black" stroke="black" points="304.5,-389.584 301,-379.584 297.5,-389.584 304.5,-389.584"/>
</g>
<!-- 5&#45;&gt;1 -->
<g id="edge9" class="edge"><title>5&#45;&gt;1</title>
<path fill="none" stroke="black" d="M296.023,-343.2C293.636,-334.902 290.717,-324.753 288.027,-315.402"/>
<polygon fill="black" stroke="black" points="291.362,-314.337 285.234,-305.694 284.635,-316.272 291.362,-314.337"/>
</g>
<!-- 5&#45;&gt;2 -->
<g id="edge10" class="edge"><title>5&#45;&gt;2</title>
<path fill="none" stroke="black" d="M314.508,-343.2C321.607,-334.109 330.44,-322.796 338.288,-312.745"/>
<polygon fill="black" stroke="black" points="341.193,-314.712 344.589,-304.676 335.676,-310.404 341.193,-314.712"/>
</g>
</g>
</svg>
