<?xml version="1.0" encoding="UTF-8" standalone="no"?>
<!-- Created with Inkscape (http://www.inkscape.org/) -->

<svg
   xmlns:dc="http://purl.org/dc/elements/1.1/"
   xmlns:cc="http://creativecommons.org/ns#"
   xmlns:rdf="http://www.w3.org/1999/02/22-rdf-syntax-ns#"
   xmlns:svg="http://www.w3.org/2000/svg"
   xmlns="http://www.w3.org/2000/svg"
   xmlns:sodipodi="http://sodipodi.sourceforge.net/DTD/sodipodi-0.dtd"
   xmlns:inkscape="http://www.inkscape.org/namespaces/inkscape"
   width="85mm"
   height="54mm"
   id="svg3018"
   version="1.1"
   inkscape:version="0.48.4 r9939"
   sodipodi:docname="Nouveau document 2">
  <defs
     id="defs3" />
  <sodipodi:namedview
     id="base"
     pagecolor="#ffffff"
     bordercolor="#666666"
     borderopacity="1.0"
     inkscape:pageopacity="0.0"
     inkscape:pageshadow="2"
     inkscape:zoom="1.2"
     inkscape:cx="160"
     inkscape:cy="90"
     inkscape:document-units="mm"
     inkscape:current-layer="layer1"
     showgrid="false"
     inkscape:window-width="604"
     inkscape:window-height="442"
     inkscape:window-x="1792"
     inkscape:window-y="112"
     inkscape:window-maximized="0" />
  <metadata
     id="metadata3022">
    <rdf:RDF>
      <cc:Work
         rdf:about="">
        <dc:format>image/svg+xml</dc:format>
        <dc:type
           rdf:resource="http://purl.org/dc/dcmitype/StillImage" />
        <dc:title></dc:title>
      </cc:Work>
    </rdf:RDF>
  </metadata>
  <g
     inkscape:label="Layer 1"
     inkscape:groupmode="layer"
     id="layer1">
    <g
       transform="matrix(3.543307,0,0,3.543307,-744.01835,-854.92557)"
       style="fill:none;stroke:#000000;stroke-width:0.34999999;stroke-linecap:butt;stroke-linejoin:miter;display:inline"
       id="g3268_US"
       inkscape:label="#g3268">
      <circle
         d="M 259.5,263.5 C 259.5,264.60457 258.60457,265.5 257.5,265.5 256.39543,265.5 255.5,264.60457 255.5,263.5 255.5,262.39543 256.39543,261.5 257.5,261.5 258.60457,261.5 259.5,262.39543 259.5,263.5 z"
         cx="257.5"
         cy="263.5"
         r="2"
         id="circle146-7"
         sodipodi:cx="257.5"
         sodipodi:cy="263.5"
         sodipodi:rx="2"
         sodipodi:ry="2"
         transform="translate(-9.8777771,0)" />
      <circle
         d="M 261.5,263.5 C 261.5,265.70914 259.70914,267.5 257.5,267.5 255.29086,267.5 253.5,265.70914 253.5,263.5 253.5,261.29086 255.29086,259.5 257.5,259.5 259.70914,259.5 261.5,261.29086 261.5,263.5 z"
         cx="257.5"
         cy="263.5"
         r="4"
         id="circle148-4"
         sodipodi:cx="257.5"
         sodipodi:cy="263.5"
         sodipodi:rx="4"
         sodipodi:ry="4"
         transform="translate(-9.8777771,0)" />
      <path
         inkscape:connector-curvature="0"
         id="path134-1-0"
         d="M 242,263.56444 263,263.56444" />
      <path
         inkscape:connector-curvature="0"
         id="path136-7-9"
         d="M 247.56444,269.029 247.56444,258.029" />
      <path
         inkscape:connector-curvature="0"
         id="path138-4-4"
         d="M 253,265.56444 253,261.56444" />
      <path
         inkscape:connector-curvature="0"
         id="path140-0-8"
         d="M 253,261.56444 261,259.56444" />
      <path
         inkscape:connector-curvature="0"
         id="path142-9-8"
         d="M 261,259.56444 261,267.56444" />
      <path
         inkscape:connector-curvature="0"
         id="path144-4-2"
         d="M 261,267.56444 253,265.56444" />
    </g>
  </g>
</svg>
