<?xml version="1.0" encoding="UTF-8" standalone="no"?>
<svg
   xmlns:dc="http://purl.org/dc/elements/1.1/"
   xmlns:cc="http://creativecommons.org/ns#"
   xmlns:rdf="http://www.w3.org/1999/02/22-rdf-syntax-ns#"
   xmlns:svg="http://www.w3.org/2000/svg"
   xmlns="http://www.w3.org/2000/svg"
   xmlns:sodipodi="http://sodipodi.sourceforge.net/DTD/sodipodi-0.dtd"
   xmlns:inkscape="http://www.inkscape.org/namespaces/inkscape"
   id="svg2"
   height="323.90131"
   width="692.60718"
   version="1.1"
   sodipodi:docname="Windows_darkblue_2012.svg"
   style="fill:#0078d6"
   inkscape:version="0.92.4 (5da689c313, 2019-01-14)">
  <defs
     id="defs18" />
  <sodipodi:namedview
     pagecolor="#ffffff"
     bordercolor="#666666"
     borderopacity="1"
     objecttolerance="10"
     gridtolerance="10"
     guidetolerance="10"
     inkscape:pageopacity="0"
     inkscape:pageshadow="2"
     inkscape:window-width="1920"
     inkscape:window-height="1036"
     id="namedview16"
     showgrid="false"
     inkscape:object-paths="true"
     fit-margin-top="1"
     fit-margin-left="1"
     fit-margin-right="1"
     fit-margin-bottom="1"
     inkscape:zoom="1.4142136"
     inkscape:cx="359.53989"
     inkscape:cy="168.89592"
     inkscape:window-x="0"
     inkscape:window-y="25"
     inkscape:window-maximized="1"
     inkscape:current-layer="g4186" />
  <metadata
     id="metadata28">
    <rdf:RDF>
      <cc:Work
         rdf:about="">
        <dc:format>image/svg+xml</dc:format>
        <dc:type
           rdf:resource="http://purl.org/dc/dcmitype/StillImage" />
        <dc:title></dc:title>
      </cc:Work>
    </rdf:RDF>
  </metadata>
  <g
     id="g4186"
     transform="translate(216.47712,46.06238)"
     style="fill:#0078d6">
    <path
       id="svg_2"
       d="M 107.8744,84.63468 90.3252,146.76667 H 81.79147 L 69.00861,101.35989 c -0.54763,-1.934407 -0.88228,-4.043757 -0.99636,-6.325507 h -0.1724 c -0.1724,2.13977 -0.55016,4.2187 -1.12566,6.239307 L 53.84765,146.76667 H 45.39759 L 27.19938,84.63468 h 8.014 l 13.2164,47.66064 c 0.54762,1.99273 0.89495,4.07165 1.03946,6.23931 h 0.21803 c 0.14451,-1.5313 0.58819,-3.61023 1.34116,-6.23931 L 64.76455,84.63468 h 6.97454 l 13.17076,48.00798 c 0.46143,1.64539 0.80622,3.58234 1.03947,5.80577 h 0.1724 c 0.11409,-1.50088 0.50451,-3.49361 1.17129,-5.97818 L 99.98714,84.63721 h 7.88725 v -0.003 z"
       inkscape:connector-curvature="0" />
    <path
       id="svg_3"
       d="m 117.6606,91.13259 c -1.27273,0 -2.35527,-0.43353 -3.25024,-1.30059 -0.89494,-0.86707 -1.34115,-1.96231 -1.34115,-3.29333 0,-1.32595 0.44875,-2.43386 1.34115,-3.31614 0.8975,-0.87974 1.97752,-1.32087 3.25024,-1.32087 1.30058,0 2.40344,0.44367 3.31614,1.32087 0.90761,0.88228 1.36396,1.98766 1.36396,3.31614 0,1.27271 -0.45635,2.35527 -1.36396,3.25023 -0.9127,0.89748 -2.01556,1.3437 -3.31614,1.3437 z m 3.46571,55.63408 h -7.10638 v -44.36732 h 7.10638 z"
       inkscape:connector-curvature="0" />
    <path
       id="svg_4"
       d="m 168.8807,146.7667 h -7.10638 v -25.30204 c 0,-9.41602 -3.43783,-14.12402 -10.31096,-14.12402 -3.55193,0 -6.49284,1.33609 -8.81769,4.00827 -2.32738,2.67218 -3.48854,6.04409 -3.48854,10.11575 v 25.30204 h -7.10638 v -44.36731 h 7.10638 v 7.36497 h 0.1724 c 3.3491,-5.60296 8.20161,-8.40444 14.55755,-8.40444 4.85252,0 8.56418,1.5668 11.13495,4.7004 2.57328,3.1336 3.85613,7.6616 3.85613,13.58147 v 27.12491 h 0.003 z"
       inkscape:connector-curvature="0" />
    <path
       id="svg_5"
       d="m 219.429,146.7667 h -7.10638 v -7.5399 h -0.1724 c -3.29332,5.71958 -8.37908,8.57937 -15.25222,8.57937 -5.57507,0 -10.02954,-1.98513 -13.36597,-5.9579 -3.33388,-3.97024 -5.00463,-9.38052 -5.00463,-16.22576 0,-7.33709 1.84822,-13.21639 5.54718,-17.63284 3.69643,-4.42152 8.61994,-6.62975 14.77559,-6.62975 6.09226,0 10.52646,2.39838 13.30005,7.19258 h 0.1724 V 81.08279 h 7.10638 z m -7.10385,-20.05909 v -6.54355 c 0,-3.57981 -1.1865,-6.612 -3.55192,-9.0991 -2.37048,-2.48203 -5.37224,-3.72686 -9.0129,-3.72686 -4.33279,0 -7.74273,1.58962 -10.22477,4.76632 -2.48456,3.17924 -3.72685,7.5678 -3.72685,13.17076 0,5.11365 1.19158,9.1498 3.57474,12.10847 2.38062,2.9612 5.58014,4.4418 9.59602,4.4418 3.95756,0 7.16975,-1.42736 9.64165,-4.28968 2.46682,-2.85726 3.70403,-6.47002 3.70403,-10.82816 z"
       inkscape:connector-curvature="0" />
    <path
       id="svg_6"
       d="m 250.4912,147.8061 c -6.55878,0 -11.79157,-2.07132 -15.70606,-6.21649 -3.91446,-4.14517 -5.86911,-9.64165 -5.86911,-16.4869 0,-7.45117 2.0358,-13.27216 6.10996,-17.46043 4.06917,-4.18828 9.57323,-6.28495 16.50721,-6.28495 6.61199,0 11.77886,2.03582 15.48802,6.11001 3.71159,4.06912 5.56744,9.72025 5.56744,16.94071 0,7.07849 -2.00033,12.74483 -6.001,17.00663 -4.00066,4.26179 -9.36531,6.39142 -16.09646,6.39142 z m 0.51973,-40.46806 c -4.56606,0 -8.17626,1.55159 -10.8307,4.6573 -2.6595,3.10825 -3.98547,7.3878 -3.98547,12.84624 0,5.25816 1.34118,9.4008 4.03113,12.43553 2.68484,3.02965 6.28239,4.54828 10.78758,4.54828 4.59394,0 8.12304,-1.4882 10.59491,-4.46462 2.46936,-2.97388 3.70404,-7.20525 3.70404,-12.69412 0,-5.54718 -1.23468,-9.81912 -3.70404,-12.82596 -2.47187,-2.99923 -6.00353,-4.50265 -10.59745,-4.50265 z"
       inkscape:connector-curvature="0" />
    <path
       id="svg_7"
       d="m 336.6221,102.3994 -13.3,44.36731 h -7.36754 l -9.13967,-31.75939 c -0.34735,-1.2144 -0.58057,-2.58344 -0.69215,-4.11475 h -0.1724 c -0.0862,1.03946 -0.39046,2.38062 -0.91019,4.03109 l -9.92048,31.84559 h -7.10638 L 274.5814,102.40193 h 7.45118 l 9.18277,33.35916 c 0.28646,1.01157 0.4893,2.34006 0.60593,3.98545 h 0.34733 c 0.0862,-1.27017 0.34733,-2.62655 0.78084,-4.07165 l 10.22479,-33.27549 h 6.49791 l 9.1853,33.44789 c 0.28646,1.06988 0.5045,2.39837 0.65154,3.98545 h 0.34736 c 0.0558,-1.12566 0.3017,-2.45414 0.73523,-3.98545 l 9.0129,-33.44789 z"
       inkscape:connector-curvature="0" />
    <path
       id="svg_8"
       d="m 339.9155,145.1618 v -7.6261 c 3.86885,2.86232 8.13065,4.28968 12.78032,4.28968 6.23931,0 9.3577,-2.07892 9.3577,-6.23931 0,-1.18397 -0.2662,-2.18794 -0.79861,-3.01191 -0.53238,-0.82396 -1.25752,-1.55159 -2.16515,-2.18794 -0.91014,-0.63382 -1.98002,-1.20679 -3.20456,-1.71131 -1.22705,-0.50452 -2.55302,-1.03186 -3.96515,-1.58202 -1.96486,-0.78086 -3.69138,-1.5668 -5.17705,-2.36287 -1.48819,-0.79354 -2.72799,-1.68849 -3.72686,-2.68739 -0.99634,-0.99637 -1.7468,-2.12963 -2.25383,-3.40234 -0.50455,-1.27017 -0.7581,-2.75584 -0.7581,-4.46208 0,-2.07893 0.47666,-3.92207 1.42738,-5.52437 0.9558,-1.60483 2.22598,-2.94599 3.81306,-4.03108 1.58962,-1.08257 3.40236,-1.89893 5.44072,-2.44908 2.0358,-0.54762 4.13501,-0.82143 6.30016,-0.82143 3.84095,0 7.27875,0.66678 10.31348,1.99273 v 7.19257 c -3.26797,-2.13723 -7.02271,-3.20712 -11.26677,-3.20712 -1.32848,0 -2.52513,0.15211 -3.59502,0.45635 -1.06986,0.30169 -1.98512,0.73016 -2.75077,1.27777 -0.76563,0.55016 -1.35635,1.2068 -1.77469,1.96991 -0.42086,0.76819 -0.62875,1.61244 -0.62875,2.53528 0,1.15608 0.20789,2.12202 0.62875,2.90542 0.41834,0.77834 1.03185,1.47046 1.84061,2.07893 0.81129,0.6034 1.79244,1.15355 2.94599,1.64286 1.15862,0.49184 2.47192,1.02679 3.94745,1.60483 1.95974,0.75298 3.72429,1.52624 5.28351,2.31724 1.55917,0.79354 2.88765,1.69103 3.98543,2.68739 1.09777,0.9989 1.94202,2.14738 2.53527,3.44291 0.59072,1.30313 0.88735,2.84711 0.88735,4.63701 0,2.19555 -0.47914,4.10208 -1.45018,5.71958 -0.96845,1.62004 -2.2589,2.9612 -3.87641,4.02856 -1.62007,1.06989 -3.48093,1.86343 -5.59031,2.38315 -2.10427,0.51974 -4.31501,0.78087 -6.62718,0.78087 -4.57113,0.008 -8.52867,-0.87467 -11.87777,-2.63669 z"
       inkscape:connector-curvature="0" />
    <polygon
       id="svg_23"
       transform="matrix(2.535275,0,0,2.535275,-109.6877,62.23806)"
       points="18.502,20.219 41.727,20.219 41.727,0 18.502,3.389 " />
    <polygon
       id="svg_24"
       transform="matrix(2.535275,0,0,2.535275,-109.6877,62.23806)"
       points="16.865,20.219 16.865,3.627 0,6.087 0,20.219 " />
    <polygon
       id="svg_25"
       transform="matrix(2.535275,0,0,2.535275,-109.6877,62.23806)"
       points="16.865,21.855 0,21.855 0,36.167 16.865,38.655 " />
    <polygon
       id="svg_26"
       transform="matrix(2.535275,0,0,2.535275,-109.6877,62.23806)"
       points="18.502,21.855 18.502,38.897 41.727,42.323 41.727,21.855 " />
  </g>
</svg>
