<?xml version="1.0" encoding="UTF-8" standalone="no"?>
<svg
   xmlns:dc="http://purl.org/dc/elements/1.1/"
   xmlns:cc="http://creativecommons.org/ns#"
   xmlns:rdf="http://www.w3.org/1999/02/22-rdf-syntax-ns#"
   xmlns:svg="http://www.w3.org/2000/svg"
   xmlns="http://www.w3.org/2000/svg"
   id="svg8"
   version="1.1"
   viewBox="0 0 16.933333 16.933334"
   height="64"
   width="64">
  <defs
     id="defs2" />
  <metadata
     id="metadata5">
    <rdf:RDF>
      <cc:Work
         rdf:about="">
        <dc:format>image/svg+xml</dc:format>
        <dc:type
           rdf:resource="http://purl.org/dc/dcmitype/StillImage" />
        <dc:title></dc:title>
      </cc:Work>
    </rdf:RDF>
  </metadata>
  <g
     style="display:inline"
     transform="translate(0,-280.06665)"
     id="layer1" />
  <g
     id="layer4">
    <path
       id="path1107"
       d="M 0,7.2625085 0.3292259,7.0625674 C 0.3768449,7.1101864 0.200579,7.441334 0.2548119,7.4412369 0.3344689,7.4410935 14.456316,0.49146494 14.684453,0.34198382 c 0.09279,-0.0700474 -0.980778,0.007157 -0.94567,-0.0898064 0.806933,-0.00232 1.853843,-0.0100687 2.660762,-0.006191 -0.01253,0.28515982 0.0024,0.55015389 0.0024,0.83549288 l -0.381679,0.256128 c -1.617412,1.0170124 -3.580091,2.2692806 -5.19789,3.4493003 -3.3814853,2.4759261 -5.0528675,4.1094668 -5.8461005,5.7137404 -0.3389918,0.685593 -0.4948952,1.30077 -0.4948952,1.952798 0,1.074309 0.6326902,1.91054 1.5158993,3.446355 l 0.4326913,0.752409 c -2.0385926,0 -4.391378,0.01654 -6.4299708,0.01654 z"
       style="display:inline;opacity:1;vector-effect:none;fill:#babdb6;fill-opacity:1;stroke:none;stroke-width:0.52916664;stroke-linecap:butt;stroke-linejoin:bevel;stroke-miterlimit:4;stroke-dasharray:none;stroke-dashoffset:2.20000029;stroke-opacity:1" />
    <path
       transform="matrix(-0.38290688,0.8620129,-2.4475784,0.04639562,41.951076,12.864095)"
       d="m 1.1696384,14.747121 2.819156,-1.150012 -0.4136378,3.016467 z"
       id="path1618"
       style="display:inline;opacity:0.98999999;vector-effect:none;fill:#c17d11;fill-opacity:1;stroke:none;stroke-width:0.52922446;stroke-linecap:butt;stroke-linejoin:bevel;stroke-miterlimit:4;stroke-dasharray:none;stroke-dashoffset:2.20000029;stroke-opacity:1" />
    <path
       id="path901"
       d="M 6.9832381,8.4977371 C 5.9461474,7.5975249 4.9090629,6.697318 3.8719392,5.7970771"
       style="display:inline;fill:none;stroke:#c17d11;stroke-width:1.31913793;stroke-linecap:butt;stroke-linejoin:bevel;stroke-miterlimit:4;stroke-dasharray:none;stroke-opacity:1" />
    <path
       id="path901-2"
       d="M 5.4787178,10.473267 C 3.8587061,9.577344 2.2386368,8.6813891 0.61850022,7.785397"
       style="display:inline;fill:none;stroke:#c17d11;stroke-width:1.45397532;stroke-linecap:butt;stroke-linejoin:miter;stroke-miterlimit:4;stroke-dasharray:none;stroke-opacity:1" />
    <path
       id="path901-2-7-9"
       d="m 4.7514675,12.753725 c -1.4037155,0.0162 -2.8074863,0.0324 -4.21131318,0.0486"
       style="display:inline;fill:#babdb6;fill-opacity:1;stroke:#c17d11;stroke-width:1.91214323;stroke-linecap:butt;stroke-linejoin:miter;stroke-miterlimit:4;stroke-dasharray:none;stroke-opacity:1" />
    <path
       id="path901-0"
       d="M 12.27516,4.1853071 C 11.501847,3.7797199 10.728442,3.3740843 9.9549378,2.9683969"
       style="display:inline;fill:none;stroke:#c17d11;stroke-width:0.52916676;stroke-linecap:butt;stroke-linejoin:bevel;stroke-miterlimit:4;stroke-dasharray:none;stroke-opacity:1" />
    <path
       id="path901-0-2"
       d="M 13.637014,3.738777 C 12.708349,3.2367528 11.779622,2.7346955 10.850838,2.2326069"
       style="display:inline;fill:none;stroke:#c17d11;stroke-width:0.52916682;stroke-linecap:butt;stroke-linejoin:bevel;stroke-miterlimit:4;stroke-dasharray:none;stroke-opacity:1" />
    <path
       id="path901-0-2-1"
       d="M 14.172139,2.9418969 C 13.321447,2.5096023 12.470691,2.077275 11.619874,1.6449169"
       style="display:inline;fill:none;stroke:#c17d11;stroke-width:0.52916676;stroke-linecap:butt;stroke-linejoin:bevel;stroke-miterlimit:4;stroke-dasharray:none;stroke-opacity:1" />
    <path
       id="path901-0-2-1-7"
       d="M 15.243878,2.4391076 C 14.393185,2.006811 13.54243,1.5744828 12.691613,1.142123"
       style="display:inline;fill:none;stroke:#c17d11;stroke-width:0.52916676;stroke-linecap:butt;stroke-linejoin:bevel;stroke-miterlimit:4;stroke-dasharray:none;stroke-opacity:1" />
    <path
       id="path901-0-2-1-7-2"
       d="M 16.037802,1.9111958 C 15.313583,1.5224537 14.589315,1.1336854 13.865001,0.74489217"
       style="display:inline;fill:none;stroke:#c17d11;stroke-width:0.52916676;stroke-linecap:butt;stroke-linejoin:bevel;stroke-miterlimit:4;stroke-dasharray:none;stroke-opacity:1" />
    <path
       id="path901-0-2-1-7-2-1"
       d="M 16.364194,0.98988673 C 15.889764,0.73782639 15.415302,0.48574895 14.940805,0.23365334"
       style="display:inline;fill:none;stroke:#c17d11;stroke-width:0.5291667;stroke-linecap:butt;stroke-linejoin:bevel;stroke-miterlimit:4;stroke-dasharray:none;stroke-opacity:1" />
    <path
       id="path1107-0"
       d="m 0.26460712,7.2820579 0.329226,-0.1999501 c 0.047619,0.0476 -0.1286469,0.3787703 -0.074414,0.37867 0.079657,-1.399e-4 14.20150488,-6.94977004 14.42964188,-7.09925005 0.09279,-0.07 -0.980779,0.007 -0.94567,-0.0898 0.806932,-0.002 1.853843,-0.0101 2.660761,-0.006 -0.01253,0.28516001 0.0024,0.55016001 0.0024,0.83550015 l -0.381703,0.2561199 c -1.617412,1.01702 -3.580091,2.26929 -5.19789,3.44931 -3.3814851,2.47592 -5.0528673,4.1094601 -5.8461003,5.7137302 -0.3389918,0.685599 -0.4948952,1.300769 -0.4948952,1.952799 0,1.074309 0.6326902,1.91054 1.5158993,3.44636 l 0.4326914,0.75241 c -2.0385926,0 -4.3913782,0.0165 -6.42997088,0.0165 z"
       style="display:inline;opacity:1;vector-effect:none;fill:none;fill-opacity:1;stroke:#eeeeec;stroke-width:0.52916664;stroke-linecap:butt;stroke-linejoin:bevel;stroke-miterlimit:4;stroke-dasharray:none;stroke-dashoffset:2.20000029;stroke-opacity:1" />
    <path
       id="path832-5"
       d="M 0.53255456,6.8774959 C 4.9941082,4.6953566 9.4553396,2.5133748 13.916254,0.33154815"
       style="display:inline;fill:none;stroke:#000000;stroke-width:0.52916682;stroke-linecap:round;stroke-linejoin:miter;stroke-miterlimit:4;stroke-dasharray:none;stroke-opacity:1" />
    <path
       style="display:inline;fill:none;stroke:#000000;stroke-width:0.52916676;stroke-linecap:round;stroke-linejoin:miter;stroke-miterlimit:4;stroke-dasharray:none;stroke-opacity:1"
       d="M 7.308243,16.484745 C 6.3710898,15.243283 5.4218101,13.985757 5.3064633,12.645379 5.1911165,11.305001 5.9033554,9.8729887 7.93476,8.0149576 9.9661646,6.1569265 13.315473,3.873511 16.665578,1.5895525"
       id="path836" />
  </g>
  <g
     style="display:inline"
     id="layer3">
    <path
       id="path875"
       d="m 10.707663,15.802363 c 0.646824,-0.857209 0.973005,-1.432703 1.178784,-2.079771 0.149695,-0.470716 0.184078,-0.750685 0.163256,-1.329351 -0.01445,-0.401587 -0.03563,-0.56742 -0.10386,-0.813205 C 11.777806,10.974715 11.536824,10.464215 11.138129,9.8689609 10.275908,8.5816589 8.9584809,7.3329061 6.5357007,5.5064474 5.3626417,4.6221149 4.1737021,3.7763184 1.9736792,2.2610829 0.99298306,1.585642 0.83590433,1.5070424 0.78912539,1.4486325 l 0.00805,-0.63705593 C 1.2612675,0.82501711 2.2398218,0.78647102 2.5105072,0.79520167 2.7870394,0.93827489 16.450229,7.9016965 16.387834,8.0184679 l 0.0038,4.1577611 v 4.222719 h -3.060937 c -1.964486,0 -3.15124,0.07715 -3.15124,0.07715 -0.133288,0.07074 0.316474,-0.393077 0.528254,-0.673739 z"
       style="display:inline;opacity:1;vector-effect:none;fill:none;fill-opacity:1;stroke:#d3d7cf;stroke-width:0.52892041;stroke-linecap:round;stroke-linejoin:miter;stroke-miterlimit:4;stroke-dasharray:none;stroke-dashoffset:2.20000029;stroke-opacity:1" />
    <path
       style="display:inline;opacity:1;vector-effect:none;fill:#888a85;fill-opacity:1;stroke:none;stroke-width:0.52892041;stroke-linecap:round;stroke-linejoin:miter;stroke-miterlimit:4;stroke-dasharray:none;stroke-dashoffset:2.20000029;stroke-opacity:1"
       d="m 12.101421,13.904493 c 0.149695,-0.470716 0.241956,-0.833367 0.221134,-1.412033 -0.01445,-0.401587 -0.05217,-0.683175 -0.120397,-0.92896 C 12.034121,10.958179 11.809676,10.389801 11.410981,9.7945468 10.54876,8.5072448 9.1321137,7.1510051 6.7093335,5.3245464 5.5362745,4.4402139 4.4548219,3.652295 2.254799,2.1370595 1.2741029,1.4616186 0.56454266,1.0443362 0.51776372,0.98592635 L 0.52923853,0.2620036 C 0.99333064,0.27544414 1.0354385,0.26028414 1.3061239,0.26901479 1.5826561,0.41208801 16.433693,8.0174517 16.371298,8.1342231 l 0.02034,4.0420059 v 4.222719 h -3.060937 c -1.964486,0 -2.77917,0.011 -2.77917,0.011 0.520202,-0.604956 1.211293,-1.515337 1.549894,-2.505459 z"
       id="path1498" />
    <path
       id="path832"
       d="M 16.557526,7.4391308 C 11.921513,5.0482445 7.2854002,2.6573071 2.6491886,0.26631849"
       style="display:inline;fill:none;stroke:#000000;stroke-width:0.5291667;stroke-linecap:round;stroke-linejoin:miter;stroke-miterlimit:4;stroke-dasharray:none;stroke-opacity:1" />
    <path
       id="road_eop_lt"
       d="m 9.6844937,296.46785 c 0.8216143,-1.06262 1.6538723,-2.13901 1.8108273,-3.40673 0.156956,-1.26773 -0.355673,-2.73396 -2.2984879,-4.62442 -1.9428147,-1.89046 -5.3165796,-4.20579 -8.69007414,-6.52093"
       style="display:inline;fill:none;stroke:#000000;stroke-width:0.5291667;stroke-linecap:round;stroke-linejoin:miter;stroke-miterlimit:4;stroke-dasharray:none;stroke-opacity:1"
       transform="translate(0,-280.06664)" />
    <path
       id="path849"
       d="m 0.31751002,280.2444 c 3.95815578,2.41085 7.91621258,4.82164 10.58992198,6.52297 2.673709,1.70134 4.063138,2.69327 4.665349,3.38141 0.602211,0.68815 0.417131,1.07291 0.231905,1.45797"
       style="display:inline;fill:none;stroke:#ffffff;stroke-width:0.52916676;stroke-linecap:round;stroke-linejoin:miter;stroke-miterlimit:4;stroke-dasharray:1.05833346, 3.17500038;stroke-dashoffset:0.84666675;stroke-opacity:1"
       transform="translate(0,-280.06664)" />
  </g>
  <g
     style="display:inline"
     id="layer2">
    <rect
       transform="translate(0,-280.06664)"
       y="280.32745"
       x="0.26081666"
       height="16.411705"
       width="16.411699"
       id="rect5065"
       style="display:inline;opacity:1;vector-effect:none;fill:none;fill-opacity:1;stroke:#000000;stroke-width:0.52163333;stroke-linecap:butt;stroke-linejoin:miter;stroke-miterlimit:4;stroke-dasharray:none;stroke-dashoffset:0;stroke-opacity:1" />
  </g>
</svg>
